<svg width="180" height="60" viewBox="0 0 180 60" fill="none" xmlns="http://www.w3.org/2000/svg">
<path d="M165.666 0.000194999H14.3422C13.7906 0.000194999 13.2456 0.000194999 12.6955 0.00319499C12.235 0.00619498 11.7781 0.01491 11.3132 0.0222449C10.3031 0.0340976 9.29543 0.122709 8.29888 0.287309C7.30373 0.455492 6.33976 0.772566 5.43956 1.22781C4.54046 1.6869 3.71893 2.28344 3.00477 2.99579C2.28686 3.70614 1.68842 4.5272 1.23248 5.42742C0.775271 6.32584 0.458244 7.28858 0.292343 8.28239C0.124866 9.27494 0.0347448 10.2789 0.0227888 11.2854C0.00882972 11.7453 0.00735559 12.2067 0 12.6667V47.3379C0.00735559 47.8037 0.00882972 48.2549 0.0227888 48.7208C0.0347485 49.7272 0.12487 50.7311 0.292343 51.7236C0.457785 52.718 0.774831 53.6813 1.23248 54.5801C1.68821 55.4774 2.28673 56.2951 3.00477 57.0015C3.71622 57.717 4.53828 58.314 5.43956 58.7696C6.33975 59.226 7.30362 59.545 8.29888 59.7158C9.2956 59.879 10.3032 59.9677 11.3132 59.981C11.7781 59.9912 12.235 59.997 12.6955 59.997C13.2456 60 13.7906 60 14.3422 60H165.666C166.207 60 166.756 60 167.296 59.997C167.755 59.997 168.225 59.9912 168.683 59.981C169.691 59.9684 170.697 59.8797 171.692 59.7158C172.69 59.5438 173.657 59.2249 174.562 58.7696C175.462 58.3137 176.284 57.7168 176.995 57.0015C177.711 56.2923 178.311 55.4752 178.772 54.5801C179.226 53.6807 179.54 52.7174 179.703 51.7236C179.871 50.731 179.964 49.7273 179.982 48.7208C179.988 48.2549 179.988 47.8037 179.988 47.3379C180 46.793 180 46.251 180 45.6972V14.3043C180 13.755 180 13.2101 179.988 12.6667C179.988 12.2067 179.988 11.7453 179.982 11.2853C179.964 10.2788 179.871 9.27502 179.703 8.28233C179.54 7.28909 179.226 6.32643 178.772 5.42736C177.843 3.62298 176.371 2.15423 174.562 1.22767C173.657 0.773544 172.69 0.456554 171.692 0.287174C170.697 0.121849 169.691 0.0332065 168.683 0.0220349C168.225 0.014715 167.755 0.00592498 167.296 0.00299999C166.756 0 166.207 0 165.666 0V0.000194999Z" fill="white"/>
<path d="M12.7041 58.6877C12.2458 58.6877 11.7985 58.6818 11.3438 58.6716C10.4019 58.6594 9.4621 58.5776 8.53224 58.427C7.6652 58.2781 6.82527 58.0011 6.04016 57.6051C5.26224 57.2125 4.55272 56.6976 3.93877 56.0802C3.31594 55.4702 2.7974 54.7626 2.40371 53.9855C2.00568 53.2034 1.73022 52.3651 1.58693 51.4997C1.43218 50.5699 1.34845 49.6297 1.33647 48.6872C1.32694 48.3709 1.31445 47.3176 1.31445 47.3176V12.6668C1.31445 12.6668 1.32775 11.6297 1.33655 11.325C1.34802 10.3841 1.43126 9.44532 1.58554 8.51694C1.7291 7.64922 2.00478 6.80847 2.40302 6.0238C2.79527 5.24727 3.31092 4.53915 3.93001 3.92688C4.54839 3.30879 5.26018 2.79127 6.03942 2.39318C6.82273 1.9985 7.66107 1.72346 8.52636 1.57727C9.45927 1.42512 10.4023 1.34286 11.3475 1.33118L12.7048 1.31287H167.29L168.664 1.33192C169.6 1.34301 170.535 1.42454 171.459 1.5758C172.333 1.72383 173.18 2.00079 173.973 2.39757C175.534 3.19984 176.804 4.4691 177.605 6.02746C177.997 6.80672 178.269 7.64061 178.41 8.50083C178.567 9.43683 178.654 10.3829 178.672 11.3316C178.676 11.7564 178.676 12.2127 178.676 12.6668C178.688 13.2293 178.688 13.7647 178.688 14.3045V45.6974C178.688 46.2424 178.688 46.7741 178.676 47.3102C178.676 47.798 178.676 48.2449 178.67 48.7048C178.653 49.6365 178.567 50.5658 178.413 51.485C178.273 52.3566 177.999 53.2015 177.601 53.99C177.204 54.7586 176.689 55.4601 176.073 56.0685C175.459 56.6892 174.748 57.2071 173.968 57.6023C173.178 58.0013 172.332 58.2793 171.459 58.427C170.53 58.5784 169.59 58.6602 168.648 58.6716C168.207 58.6818 167.746 58.6877 167.298 58.6877L165.667 58.6907L12.7041 58.6877Z" fill="white"/>
<path d="M37.6014 29.8341C37.6182 28.5322 37.965 27.2557 38.6095 26.1233C39.254 24.9909 40.1752 24.0395 41.2876 23.3576C40.5809 22.3512 39.6487 21.5231 38.565 20.9388C37.4813 20.3546 36.2759 20.0304 35.0445 19.992C32.4178 19.717 29.8713 21.5593 28.5328 21.5593C27.1683 21.5593 25.1075 20.0193 22.8883 20.0648C21.4528 20.111 20.0539 20.5273 18.8277 21.273C17.6015 22.0187 16.59 23.0684 15.8916 24.3198C12.8665 29.5428 15.123 37.2189 18.0208 41.4408C19.4707 43.5081 21.1652 45.8174 23.3824 45.7355C25.5521 45.6457 26.3624 44.3558 28.9814 44.3558C31.5761 44.3558 32.3363 45.7355 34.5985 45.6834C36.9267 45.6457 38.3935 43.6069 39.7926 41.52C40.8343 40.0469 41.6359 38.4189 42.1677 36.6962C40.8151 36.1257 39.6608 35.1708 38.8488 33.9505C38.0368 32.7303 37.6029 31.2986 37.6014 29.8341Z" fill="#253745"/>
<path d="M33.3264 17.2153C34.5958 15.6957 35.2212 13.7425 35.0697 11.7705C33.1304 11.9736 31.3389 12.8979 30.0524 14.3592C29.4233 15.0731 28.9416 15.9036 28.6346 16.8033C28.3276 17.703 28.2015 18.6541 28.2634 19.6025C29.2334 19.6124 30.193 19.4028 31.07 18.9893C31.947 18.5758 32.7185 17.9692 33.3264 17.2153Z" fill="#253745"/>
<path d="M63.6328 40.7096H56.5127L54.8029 45.7442H51.7871L58.5311 27.1173H61.6644L68.4083 45.7442H65.3412L63.6328 40.7096ZM57.2502 38.3864H62.894L60.1117 30.2155H60.0338L57.2502 38.3864Z" fill="#253745"/>
<path d="M82.9739 38.9546C82.9739 43.1748 80.7088 45.8863 77.2906 45.8863C76.4246 45.9314 75.5635 45.7325 74.8057 45.3123C74.0479 44.8921 73.424 44.2676 73.0056 43.5103H72.9409V50.2368H70.1455V32.1636H72.8513V34.4224H72.9027C73.3404 33.6687 73.9748 33.0474 74.7383 32.6247C75.5019 32.2019 76.3662 31.9935 77.2391 32.0215C80.6956 32.0216 82.9739 34.7462 82.9739 38.9546ZM80.1007 38.9546C80.1007 36.2052 78.6758 34.3975 76.5017 34.3975C74.3659 34.3975 72.9292 36.2432 72.9292 38.9546C72.9292 41.691 74.3659 43.5235 76.5017 43.5235C78.6758 43.5235 80.1006 41.729 80.1006 38.9546H80.1007Z" fill="#253745"/>
<path d="M97.962 38.9546C97.962 43.1748 95.6961 45.8863 92.2779 45.8863C91.4119 45.9314 90.5508 45.7325 89.793 45.3123C89.0352 44.8921 88.4113 44.2676 87.9929 43.5103H87.9282V50.2368H85.1328V32.1636H87.8386V34.4224H87.89C88.3277 33.6687 88.9621 33.0474 89.7257 32.6247C90.4892 32.2019 91.3535 31.9935 92.2264 32.0215C95.6829 32.0216 97.962 34.7462 97.962 38.9546ZM95.088 38.9546C95.088 36.2052 93.6631 34.3975 91.489 34.3975C89.3532 34.3975 87.9165 36.2432 87.9165 38.9546C87.9165 41.691 89.3532 43.5235 91.489 43.5235C93.6631 43.5235 95.088 41.729 95.088 38.9546Z" fill="#253745"/>
<path d="M107.867 40.5542C108.075 42.4014 109.874 43.6142 112.333 43.6142C114.689 43.6142 116.384 42.4013 116.384 40.7358C116.384 39.29 115.362 38.4243 112.941 37.831L110.52 37.2495C107.09 36.4233 105.498 34.8237 105.498 32.228C105.498 29.0142 108.307 26.8066 112.293 26.8066C116.242 26.8066 118.948 29.0142 119.039 32.228H116.217C116.048 30.3691 114.507 29.2471 112.255 29.2471C110.003 29.2471 108.462 30.3823 108.462 32.0347C108.462 33.3516 109.447 34.1265 111.854 34.7197L113.912 35.2236C117.745 36.1274 119.336 37.6626 119.336 40.3871C119.336 43.872 116.553 46.0546 112.126 46.0546C107.983 46.0546 105.187 43.9232 105.006 40.5541L107.867 40.5542Z" fill="#253745"/>
<path d="M125.374 28.9496V32.1634H127.964V34.371H125.374V41.8577C125.374 43.0208 125.892 43.5628 127.031 43.5628C127.338 43.5575 127.645 43.5359 127.95 43.4983V45.6926C127.438 45.788 126.918 45.8312 126.398 45.8216C123.64 45.8216 122.565 44.7888 122.565 42.1551V34.371H120.585V32.1634H122.565V28.9496H125.374Z" fill="#253745"/>
<path d="M129.46 38.9547C129.46 34.6818 131.984 31.9967 135.919 31.9967C139.868 31.9967 142.379 34.6817 142.379 38.9547C142.379 43.2393 139.881 45.9127 135.919 45.9127C131.959 45.9127 129.46 43.2393 129.46 38.9547ZM139.531 38.9547C139.531 36.0235 138.184 34.2936 135.919 34.2936C133.654 34.2936 132.307 36.0367 132.307 38.9547C132.307 41.8975 133.654 43.6143 135.919 43.6143C138.184 43.6143 139.531 41.8975 139.531 38.9547H139.531Z" fill="#253745"/>
<path d="M144.686 32.1639H147.352V34.4754H147.416C147.597 33.7534 148.021 33.1155 148.617 32.6686C149.214 32.2218 149.947 31.9934 150.692 32.0218C151.014 32.0206 151.336 32.0555 151.65 32.1258V34.7332C151.243 34.6093 150.819 34.5524 150.394 34.5647C149.988 34.5483 149.583 34.6197 149.207 34.774C148.831 34.9284 148.493 35.162 148.217 35.4588C147.94 35.7556 147.731 36.1087 147.604 36.4937C147.477 36.8787 147.435 37.2865 147.481 37.6892V45.7444H144.686L144.686 32.1639Z" fill="#253745"/>
<path d="M164.536 41.7555C164.16 44.2208 161.752 45.9127 158.672 45.9127C154.71 45.9127 152.251 43.2657 152.251 39.0191C152.251 34.7594 154.723 31.9967 158.554 31.9967C162.322 31.9967 164.692 34.5777 164.692 38.6954V39.6505H155.073V39.8189C155.028 40.3187 155.091 40.8222 155.257 41.296C155.423 41.7698 155.688 42.2029 156.034 42.5667C156.381 42.9306 156.801 43.2167 157.267 43.4062C157.733 43.5956 158.234 43.6841 158.736 43.6656C159.397 43.7273 160.06 43.5748 160.627 43.2306C161.193 42.8864 161.633 42.3691 161.881 41.7554L164.536 41.7555ZM155.086 37.7022H161.895C161.92 37.2529 161.851 36.8031 161.694 36.3813C161.537 35.9595 161.293 35.5747 160.98 35.2511C160.666 34.9274 160.289 34.6719 159.871 34.5006C159.454 34.3293 159.006 34.2458 158.554 34.2555C158.099 34.2528 157.648 34.34 157.227 34.5121C156.805 34.6842 156.422 34.9378 156.1 35.2583C155.778 35.5787 155.522 35.9597 155.348 36.3791C155.174 36.7986 155.085 37.2483 155.086 37.7023V37.7022Z" fill="#253745"/>
<path d="M55.2602 16.8804H56.4604C56.667 16.9061 56.8767 16.8888 57.0762 16.8296C57.2758 16.7705 57.4609 16.6707 57.6199 16.5367C57.7789 16.4026 57.9083 16.2372 58 16.0508C58.0916 15.8644 58.1436 15.6611 58.1526 15.4537C58.1526 14.6283 57.5298 14.0951 56.4736 14.0951C56.2619 14.0656 56.0465 14.0787 55.84 14.1336C55.6335 14.1885 55.4401 14.2841 55.2713 14.4148C55.1024 14.5454 54.9616 14.7085 54.857 14.8944C54.7524 15.0802 54.6862 15.2851 54.6624 15.4969H53.3447C53.3674 15.1125 53.4692 14.7368 53.6437 14.3933C53.8183 14.0497 54.062 13.7457 54.3595 13.5002C54.657 13.2546 55.002 13.0728 55.373 12.966C55.7441 12.8591 56.1332 12.8296 56.5162 12.8792C58.2833 12.8792 59.5276 13.8658 59.5276 15.286C59.5317 15.7617 59.3721 16.2245 59.0754 16.5971C58.7786 16.9696 58.3627 17.2294 57.897 17.3331V17.4385C58.4491 17.463 58.969 17.7043 59.343 18.1099C59.7171 18.5155 59.915 19.0522 59.8933 19.6028C59.8525 19.9987 59.7328 20.3824 59.5413 20.7315C59.3498 21.0806 59.0904 21.3881 58.7781 21.6359C58.4659 21.8838 58.1073 22.0669 57.7231 22.1747C57.339 22.2825 56.9372 22.3128 56.5412 22.2637C56.1443 22.3177 55.7407 22.2914 55.3543 22.1865C54.9678 22.0815 54.6066 21.9001 54.292 21.6529C53.9774 21.4058 53.7159 21.098 53.5231 20.7479C53.3303 20.3978 53.2102 20.0127 53.1699 19.6153H54.5081C54.5889 20.4715 55.3778 21.0238 56.5412 21.0238C57.7046 21.0238 58.464 20.4034 58.464 19.5289C58.464 18.642 57.7487 18.0956 56.4986 18.0956H55.2602V16.8804Z" fill="#253745"/>
<path d="M61.4141 20.1367C61.4141 18.9209 62.3233 18.22 63.9333 18.1203L65.768 18.0149V17.4319C65.768 16.7185 65.2965 16.3157 64.3814 16.3157C63.6351 16.3157 63.1195 16.5889 62.9697 17.0664H61.6755C61.8121 15.9062 62.908 15.1621 64.4445 15.1621C66.1426 15.1621 67.1004 16.0051 67.1004 17.4319V22.0468H65.8121V21.0976H65.7064C65.4917 21.4381 65.1902 21.7157 64.8328 21.902C64.4754 22.0883 64.0747 22.1767 63.6719 22.1581C63.3875 22.1876 63.1001 22.1574 62.8282 22.0693C62.5563 21.9813 62.3059 21.8374 62.0932 21.6469C61.8805 21.4565 61.7101 21.2237 61.5932 20.9636C61.4762 20.7034 61.4152 20.4218 61.4141 20.1367ZM65.768 19.5595V18.9949L64.1139 19.1003C63.1811 19.1626 62.7581 19.479 62.7581 20.0744C62.7581 20.6823 63.2869 21.0361 64.0141 21.0361C64.2272 21.0576 64.4424 21.0362 64.647 20.973C64.8516 20.9099 65.0413 20.8064 65.205 20.6686C65.3686 20.5308 65.5028 20.3617 65.5995 20.1711C65.6963 19.9806 65.7536 19.7726 65.768 19.5595Z" fill="#253745"/>
<path d="M70.6463 16.4144V22.0467H69.3096V15.2924H73.7694V16.4144L70.6463 16.4144Z" fill="#253745"/>
<path d="M81.8722 18.6666C81.8722 20.8125 80.7837 22.158 79.0738 22.158C78.6541 22.1866 78.2349 22.095 77.8656 21.894C77.4964 21.693 77.1923 21.391 76.9894 21.0235H76.8836V24.2923H75.5469V15.2923H76.8337V16.4085H76.9336C77.1402 16.0282 77.4481 15.7122 77.8235 15.4955C78.1989 15.2787 78.627 15.1696 79.0606 15.1803C80.7837 15.1802 81.8722 16.5198 81.8722 18.6666ZM80.4973 18.6666C80.4973 17.2398 79.8201 16.3777 78.6875 16.3777C77.5624 16.3777 76.8587 17.2581 76.8587 18.6724C76.8587 20.0801 77.5623 20.9612 78.6816 20.9612C79.8201 20.9612 80.4973 20.0992 80.4973 18.6666Z" fill="#253745"/>
<path d="M83.6534 24.4659V23.3182C83.798 23.3365 83.9438 23.3449 84.0896 23.3431C84.3744 23.3642 84.6569 23.2796 84.883 23.1056C85.1091 22.9316 85.2628 22.6805 85.3147 22.4005L85.4146 22.0716L82.9629 15.2924H84.4186L86.1168 20.6573H86.2226L87.9148 15.2924H89.3323L86.8072 22.3258C86.2285 23.9693 85.588 24.4967 84.2072 24.4967C84.0955 24.4967 83.7782 24.4842 83.6534 24.4659Z" fill="#253745"/>
<path d="M90.3721 20.1299H91.703C91.8337 20.7254 92.3934 21.0359 93.1763 21.0359C94.0665 21.0359 94.613 20.6448 94.613 20.0369C94.613 19.3858 94.1223 19.0752 93.1763 19.0752H92.1627V18.0396H93.1587C93.9666 18.0396 94.3779 17.7298 94.3779 17.1651C94.3779 16.6692 93.9798 16.2906 93.1587 16.2906C92.411 16.2906 91.8645 16.607 91.7778 17.1402H90.4896C90.5859 16.5275 90.9195 15.977 91.4186 15.6071C91.9178 15.2371 92.5426 15.0773 93.1587 15.1619C94.7687 15.1619 95.6897 15.8878 95.6897 17.0289C95.6972 17.3466 95.5951 17.6574 95.4005 17.9091C95.2058 18.1608 94.9304 18.3382 94.6203 18.4117V18.5172C94.9895 18.5647 95.3284 18.7456 95.5726 19.0258C95.8169 19.3059 95.9495 19.6657 95.9453 20.0369C95.9453 21.3209 94.8494 22.1705 93.1763 22.1705C91.6971 22.1704 90.4955 21.4944 90.3721 20.1299Z" fill="#253745"/>
<path d="M97.873 22.0467V15.2924H99.198V19.9381H99.3038L102.425 15.2924H103.75V22.0467H102.425V17.3761H102.325L99.198 22.0468L97.873 22.0467Z" fill="#253745"/>
<path d="M111.048 16.4144H108.916V22.0467H107.577V16.4144H105.444V15.2924H111.048V16.4144Z" fill="#253745"/>
<path d="M118.248 20.2233C118.065 20.8405 117.672 21.3744 117.135 21.7315C116.598 22.0887 115.953 22.2465 115.311 22.1773C114.865 22.1891 114.421 22.1039 114.011 21.9276C113.602 21.7513 113.235 21.4881 112.937 21.1564C112.64 20.8247 112.418 20.4324 112.288 20.0067C112.157 19.5809 112.121 19.132 112.182 18.691C112.123 18.2487 112.159 17.7988 112.289 17.3718C112.42 16.9448 112.64 16.5506 112.936 16.216C113.232 15.8814 113.597 15.6142 114.006 15.4323C114.415 15.2505 114.858 15.1584 115.305 15.1622C117.19 15.1622 118.328 16.4462 118.328 18.5672V19.0324H113.545V19.1071C113.524 19.355 113.555 19.6046 113.637 19.8398C113.718 20.075 113.848 20.2907 114.018 20.4729C114.187 20.6552 114.394 20.8 114.623 20.898C114.852 20.996 115.1 21.0451 115.349 21.0421C115.669 21.0802 115.993 21.0226 116.279 20.8768C116.566 20.731 116.803 20.5035 116.959 20.2232L118.248 20.2233ZM113.545 18.0465H116.965C116.982 17.8199 116.951 17.5923 116.875 17.3783C116.798 17.1643 116.678 16.9687 116.521 16.8039C116.364 16.6391 116.174 16.5089 115.964 16.4216C115.753 16.3342 115.527 16.2917 115.299 16.2968C115.068 16.2936 114.838 16.3367 114.624 16.4236C114.41 16.5104 114.215 16.6392 114.052 16.8023C113.888 16.9654 113.759 17.1596 113.672 17.3733C113.585 17.587 113.542 17.8159 113.545 18.0465H113.545Z" fill="#253745"/>
<path d="M123.917 15.2924H126.971C128.296 15.2924 129.073 15.9618 129.073 17.0099C129.075 17.3424 128.963 17.6656 128.754 17.9253C128.546 18.185 128.255 18.3655 127.929 18.4366V18.5421C128.324 18.567 128.695 18.7425 128.965 19.0322C129.234 19.322 129.382 19.704 129.377 20.0992C129.377 21.2777 128.488 22.0467 127.002 22.0467H123.917V15.2924ZM125.242 16.3155V18.0645H126.567C127.375 18.0645 127.761 17.7547 127.761 17.1834C127.761 16.6568 127.425 16.3155 126.715 16.3155L125.242 16.3155ZM125.242 19.0446V21.0236H126.827C127.617 21.0236 128.04 20.6757 128.04 20.037C128.04 19.361 127.562 19.0446 126.66 19.0446L125.242 19.0446Z" fill="#253745"/>
</svg>
