<svg width="183" height="54" viewBox="0 0 183 54" fill="none" xmlns="http://www.w3.org/2000/svg">
<path d="M176.223 54H6.77742C4.98151 53.9949 3.26062 53.2821 1.99071 52.0174C0.720807 50.7526 0.00511658 49.0388 0 47.2501L0 6.74985C0.00543462 4.96134 0.721227 3.24763 1.99106 1.98296C3.2609 0.718293 4.98161 0.00541252 6.77742 0H176.223C178.018 0.00541252 179.739 0.718293 181.009 1.98296C182.279 3.24763 182.995 4.96134 183 6.74985V47.2501C182.995 49.0387 182.279 50.7524 181.009 52.017C179.739 53.2817 178.018 53.9946 176.223 54" fill="white"/>
<path d="M176.223 0H6.77742C4.9814 0.00541408 3.26051 0.718461 1.99064 1.98339C0.720767 3.24832 0.00511505 4.96234 0 6.75106L0 47.2501C0.00511658 49.0388 0.720807 50.7526 1.99071 52.0174C3.26062 53.2821 4.98151 53.9949 6.77742 54H176.223C178.018 53.9946 179.739 53.2817 181.009 52.017C182.279 50.7524 182.995 49.0387 183 47.2501V6.75106C182.995 4.96234 182.279 3.24832 181.009 1.98339C179.739 0.718461 178.019 0.00541408 176.223 0M176.223 1.08635C177.733 1.08635 179.182 1.68406 180.25 2.74798C181.319 3.8119 181.919 5.25489 181.919 6.75951V47.2501C181.919 48.7548 181.319 50.1978 180.25 51.2617C179.182 52.3256 177.733 52.9233 176.223 52.9233H6.77742C5.26666 52.9233 3.81777 52.3256 2.74951 51.2617C1.68124 50.1978 1.08109 48.7548 1.08109 47.2501V6.75106C1.08109 5.24644 1.68124 3.80345 2.74951 2.73953C3.81777 1.6756 5.26666 1.0779 6.77742 1.0779L176.223 1.08635Z" fill="white"/>
<path d="M144.953 40.5003H147.483V23.6244H144.953V40.5003ZM167.738 29.7032L164.839 37.0203H164.752L161.743 29.7032H159.012L163.524 39.9293L160.951 45.6182H163.589L170.543 29.7032H167.738ZM153.395 38.5835C152.564 38.5835 151.409 38.1707 151.409 37.1495C151.409 35.8471 152.848 35.3486 154.092 35.3486C155.203 35.3486 155.725 35.59 156.403 35.9135C156.309 36.6452 155.954 37.3186 155.401 37.8093C154.848 38.3001 154.135 38.5751 153.395 38.5835M153.699 29.335C151.868 29.335 149.971 30.1377 149.185 31.9169L151.431 32.8512C151.916 31.9169 152.804 31.6127 153.742 31.6127C155.05 31.6127 156.381 32.3949 156.409 33.7854V33.9592C155.596 33.53 154.69 33.3066 153.77 33.3086C151.346 33.3086 148.886 34.6364 148.886 37.1072C148.886 39.3656 150.871 40.8201 153.094 40.8201C154.791 40.8201 155.731 40.0609 156.322 39.1701H156.409V40.4737H158.85V34.0015C158.85 31.0056 156.605 29.335 153.705 29.335M138.07 31.7576H134.472V25.9722H138.07C138.456 25.9685 138.839 26.0405 139.196 26.1841C139.554 26.3277 139.88 26.5401 140.155 26.8091C140.43 27.0781 140.65 27.3985 140.801 27.752C140.952 28.1054 141.031 28.485 141.035 28.8691C141.035 30.1775 139.961 31.766 138.07 31.766M138.005 23.6329H131.945V40.5003H134.472V34.1029H138.005C140.808 34.1029 143.564 32.0811 143.564 28.8606C143.564 25.6402 140.808 23.6208 138.005 23.6208M104.956 38.5883C103.209 38.5883 101.746 37.1314 101.746 35.1313C101.746 33.1083 103.209 31.6308 104.956 31.6308C106.682 31.6308 108.035 33.1095 108.035 35.1313C108.035 37.1314 106.682 38.5883 104.956 38.5883ZM107.859 30.6507H107.773C107.205 29.9772 106.114 29.3664 104.743 29.3664C101.86 29.3664 99.2177 31.8903 99.2177 35.1313C99.2177 38.3493 101.86 40.8515 104.743 40.8515C106.119 40.8515 107.21 40.242 107.773 39.5455H107.859V40.3723C107.859 42.5692 106.682 43.7424 104.782 43.7424C103.231 43.7424 102.269 42.6343 101.873 41.6989L99.6673 42.6126C100.3 44.1359 101.982 46.0056 104.778 46.0056C107.748 46.0056 110.259 44.2651 110.259 40.0247V29.7128H107.853V30.6483L107.859 30.6507ZM112.003 40.5003H114.532V23.6232H111.999V40.5003H112.003ZM118.271 34.9333C118.206 32.7136 119.996 31.5838 121.284 31.5838C122.29 31.5838 123.141 32.0835 123.425 32.8017L118.271 34.9333ZM126.132 33.0165C125.647 31.7322 124.193 29.3616 121.197 29.3616C118.228 29.3616 115.76 31.6888 115.76 35.1047C115.76 38.3227 118.206 40.8467 121.481 40.8467C122.431 40.8523 123.368 40.6229 124.207 40.179C125.046 39.7351 125.761 39.0906 126.289 38.3034L124.32 36.9998C123.665 37.957 122.77 38.5871 121.481 38.5871C120.191 38.5871 119.275 38.0005 118.686 36.8489L126.394 33.672L126.132 33.0202V33.0165ZM64.7198 31.1275V33.5621H70.5712C70.3967 34.9333 69.9386 35.9328 69.2381 36.628C68.3897 37.473 67.0565 38.4121 64.7173 38.4121C61.1129 38.4121 58.2938 35.5151 58.2938 31.9302C58.2938 28.3452 61.1105 25.4507 64.7173 25.4507C66.36 25.4289 67.9449 26.0535 69.1278 27.1889L70.8536 25.4724C69.3895 24.0843 67.4467 23.0137 64.7198 23.0137C59.7846 23.0137 55.6299 27.0163 55.6299 31.9302C55.6299 36.8441 59.7797 40.8491 64.7198 40.8491C67.3861 40.8491 69.392 39.9776 70.9639 38.3469C72.5783 36.7379 73.0825 34.4771 73.0825 32.6544C73.0882 32.1444 73.044 31.635 72.9504 31.1335L64.7198 31.1275ZM79.7363 38.5859C77.9898 38.5859 76.4833 37.1507 76.4833 35.1072C76.4833 33.0407 77.9898 31.6272 79.7363 31.6272C81.4827 31.6272 82.9904 33.0407 82.9904 35.1072C82.9904 37.1507 81.4827 38.5859 79.7363 38.5859ZM79.7363 29.364C76.5475 29.364 73.949 31.7781 73.949 35.1072C73.949 38.4121 76.5475 40.8491 79.7363 40.8491C82.925 40.8491 85.5235 38.4121 85.5235 35.1072C85.5235 31.7793 82.9238 29.364 79.7363 29.364ZM92.3615 38.5859C90.6138 38.5859 89.1061 37.1507 89.1061 35.1072C89.1061 33.0407 90.6138 31.6272 92.3615 31.6272C94.1092 31.6272 95.6145 33.0407 95.6145 35.1072C95.6145 37.1507 94.1092 38.5859 92.3615 38.5859ZM92.3615 29.364C89.1728 29.364 86.5743 31.7781 86.5743 35.1072C86.5743 38.4121 89.1728 40.8491 92.3615 40.8491C95.5502 40.8491 98.1475 38.4121 98.1475 35.1072C98.1475 31.7793 95.549 29.364 92.3615 29.364Z" fill="#253745"/>
<path d="M28.0832 26.2233L13.6509 41.478C13.6509 41.478 13.6509 41.478 13.6509 41.4877C13.807 42.0649 14.0948 42.5985 14.4919 43.0468C14.8889 43.4952 15.3845 43.8463 15.94 44.0727C16.4955 44.2992 17.096 44.3949 17.6947 44.3525C18.2935 44.3101 18.8743 44.1307 19.3921 43.8282L19.4381 43.8016L35.6787 34.4662L28.0759 26.2233H28.0832Z" fill="#E43629"/>
<path d="M42.6824 23.6256L42.6691 23.616L35.6553 19.5675L27.7544 26.5684L35.6832 34.465L42.6618 30.4563C43.2804 30.1248 43.7976 29.6332 44.1589 29.0333C44.5201 28.4333 44.7121 27.7474 44.7145 27.0478C44.7168 26.3482 44.5295 25.661 44.1723 25.0587C43.815 24.4564 43.3011 23.9612 42.6848 23.6256" fill="#F9BD00"/>
<path d="M13.6504 12.5244C13.5615 12.8502 13.5166 13.1863 13.5171 13.5239V40.4798C13.5164 40.8171 13.5616 41.1529 13.6516 41.478L28.5784 26.6192L13.6504 12.5244Z" fill="#587DBE"/>
<path d="M28.1886 27.0019L35.6581 19.564L19.432 10.196C18.914 9.88598 18.3307 9.69996 17.7281 9.65265C17.1255 9.60534 16.5201 9.69803 15.9597 9.92341C15.3992 10.1488 14.8989 10.5007 14.4983 10.9515C14.0976 11.4022 13.8075 11.9394 13.6509 12.5208C13.6509 12.5208 13.6509 12.5208 13.6509 12.5208L28.1947 26.9982L28.1886 27.0019Z" fill="#30A043"/>
<path d="M58.3778 17.3429C57.7142 16.9674 57.1661 16.4186 56.7925 15.7557C56.4127 15.0722 56.2134 14.3038 56.2134 13.5226C56.2134 12.7414 56.4127 11.973 56.7925 11.2896C57.1662 10.6271 57.7144 10.0787 58.3778 9.7035C59.0583 9.31748 59.8296 9.11875 60.6127 9.12773C61.8788 9.12773 62.9207 9.58601 63.7384 10.5026L62.8306 11.3837C62.5663 11.0595 62.2358 10.7949 61.8611 10.6076C61.4751 10.4297 61.0537 10.3414 60.6285 10.3493C60.0803 10.343 59.5399 10.4786 59.0602 10.7428C58.5903 11.0046 58.2026 11.3911 57.9403 11.8593C57.6689 12.3714 57.527 12.9417 57.527 13.5208C57.527 14.0999 57.6689 14.6702 57.9403 15.1823C58.202 15.651 58.5898 16.0377 59.0602 16.2988C59.5399 16.563 60.0803 16.6986 60.6285 16.6923C61.5876 16.6923 62.3935 16.2968 63.0464 15.5058L63.9772 16.3978C63.5731 16.8721 63.0702 17.253 62.5034 17.5143C61.8497 17.8047 61.1373 17.9399 60.4222 17.9093C59.7071 17.8788 59.0089 17.6832 58.3827 17.3381L58.3778 17.3429Z" fill="#253745"/>
<path d="M65.4243 9.3208H66.7224V13.3958H66.7926L70.1535 9.3208H71.7812V9.39081L68.2192 13.5962L71.9702 17.6591V17.7303H70.271L66.7926 13.8774H66.7224V17.7303H65.4243V9.3208Z" fill="#253745"/>
<path d="M78.0069 14.3711L77.0639 11.7928L76.7452 10.8272H76.6749L76.3561 11.7928L75.4132 14.3711H78.0069ZM75.9671 9.3208H77.4457L80.6417 17.7303H79.2104L78.4323 15.5697H74.9878L74.2097 17.7303H72.7832L75.9671 9.3208Z" fill="#253745"/>
<path d="M85.5203 13.9837C84.9819 14.4499 84.2871 14.6973 83.5739 14.6765C83.0939 14.6835 82.6191 14.5767 82.1886 14.3651C81.7852 14.165 81.4485 13.8532 81.219 13.467C80.9753 13.0464 80.8528 12.5669 80.8651 12.0813V9.3208H82.1728V11.8556C82.1728 12.365 82.3223 12.7585 82.6213 13.0361C82.9202 13.3137 83.321 13.4525 83.8235 13.4525C84.1488 13.4579 84.471 13.3887 84.7652 13.2504C85.0594 13.1121 85.3178 12.9082 85.5203 12.6547V9.3208H86.805V17.7303H85.5203V13.9885V13.9837Z" fill="#253745"/>
<path d="M93.1724 14.3711L92.2319 11.7928L91.9131 10.8272H91.8428L91.5241 11.7928L90.5812 14.3711H93.1724ZM91.1326 9.3208H92.6064L95.8024 17.7303H94.3759L93.5978 15.5697H90.1533L89.3752 17.7303H87.9487L91.1326 9.3208Z" fill="#253745"/>
<path d="M97.9961 10.5423H95.6255V9.3208H101.653V10.5423H99.293V17.7303H97.9961V10.5423Z" fill="#253745"/>
<path d="M106.181 16.5209C106.466 16.526 106.748 16.4529 106.994 16.3096C107.223 16.1761 107.411 15.9829 107.537 15.7508C107.66 15.5256 107.725 15.2733 107.725 15.0169C107.725 14.7605 107.66 14.5081 107.537 14.283C107.41 14.0504 107.222 13.8559 106.994 13.7193C106.749 13.5719 106.467 13.4966 106.181 13.502H104.294V16.5197L106.181 16.5209ZM102.997 9.3208H104.294V12.3155H106.086C106.592 12.3106 107.093 12.4213 107.549 12.639C107.882 12.8088 108.175 13.0453 108.412 13.3335C108.648 13.6217 108.822 13.9555 108.923 14.3139C109.024 14.6723 109.049 15.0476 108.997 15.4161C108.945 15.7847 108.818 16.1386 108.622 16.4557C108.359 16.8632 107.987 17.1903 107.549 17.4008C107.094 17.622 106.593 17.7348 106.086 17.7303H102.997V9.3208Z" fill="#253745"/>
<path d="M113.197 9.3208H114.483V13.9716L114.411 15.5927H114.483L118.268 9.3208H119.743V17.7303H118.457V12.9613L118.527 11.3402H118.457L114.612 17.7303H113.197V9.3208Z" fill="#253745"/>
<path d="M122.29 17.378C121.759 17.0183 121.395 16.486 121.199 15.7811L122.39 15.3103C122.47 15.7106 122.679 16.074 122.985 16.3448C123.275 16.5935 123.647 16.7271 124.03 16.7202C124.437 16.7291 124.833 16.5842 125.138 16.3146C125.284 16.1917 125.402 16.0378 125.482 15.8641C125.561 15.6904 125.601 15.5013 125.598 15.3103C125.599 15.0563 125.521 14.8082 125.374 14.6006C125.218 14.3802 125.006 14.2042 124.761 14.09C124.496 13.9634 124.206 13.899 123.912 13.9017H123.217V12.7743H123.842C124.226 12.7875 124.602 12.6648 124.904 12.4279C125.042 12.3156 125.153 12.1727 125.227 12.0106C125.3 11.8484 125.335 11.6714 125.328 11.4936C125.331 11.3304 125.297 11.1685 125.229 11.0202C125.16 10.8718 125.059 10.7407 124.933 10.6366C124.658 10.406 124.308 10.2848 123.949 10.2962C123.621 10.2868 123.301 10.3996 123.052 10.6125C122.816 10.8117 122.64 11.072 122.544 11.3644L121.4 10.8949C121.582 10.4107 121.894 9.9859 122.303 9.66733C122.739 9.31165 123.291 9.13341 123.96 9.13261C124.431 9.12375 124.898 9.22677 125.322 9.43316C125.702 9.61721 126.024 9.9015 126.254 10.2552C126.479 10.6074 126.595 11.0172 126.59 11.4345C126.605 11.8073 126.512 12.1767 126.322 12.4981C126.131 12.8194 125.851 13.0788 125.516 13.245V13.315C125.906 13.4872 126.244 13.7586 126.495 14.102C126.754 14.4696 126.887 14.9109 126.873 15.3598C126.877 15.8209 126.748 16.2734 126.501 16.6634C126.251 17.0568 125.898 17.3751 125.481 17.5844C125.03 17.8124 124.531 17.9276 124.026 17.92C123.404 17.9219 122.797 17.7331 122.286 17.3792L122.29 17.378Z" fill="#253745"/>
</svg>
