<svg width="20" height="20" viewBox="0 0 20 20" fill="" xmlns="http://www.w3.org/2000/svg">
<path fill-rule="evenodd" clip-rule="evenodd" d="M18.75 10.0004C18.75 10.1662 18.6842 10.3252 18.5669 10.4424C18.4497 10.5596 18.2908 10.6254 18.125 10.6254L3.38375 10.6254L7.3175 14.5579C7.43486 14.6753 7.50079 14.8345 7.50079 15.0004C7.50079 15.1664 7.43486 15.3256 7.3175 15.4429C7.20014 15.5603 7.04097 15.6262 6.875 15.6262C6.70903 15.6262 6.54986 15.5603 6.4325 15.4429L1.4325 10.4429C1.3743 10.3849 1.32812 10.3159 1.29661 10.24C1.2651 10.164 1.24888 10.0826 1.24888 10.0004C1.24888 9.91823 1.2651 9.83682 1.29661 9.76089C1.32812 9.68496 1.3743 9.61599 1.4325 9.55793L6.4325 4.55793C6.54986 4.44057 6.70903 4.37464 6.875 4.37464C7.04097 4.37464 7.20014 4.44057 7.3175 4.55793C7.43486 4.67529 7.50079 4.83446 7.50079 5.00043C7.50079 5.1664 7.43486 5.32557 7.3175 5.44293L3.38375 9.37543L18.125 9.37543C18.2908 9.37543 18.4497 9.44128 18.5669 9.55849C18.6842 9.6757 18.75 9.83467 18.75 10.0004Z" fill=""/>
</svg>
