<svg width="31" height="32" viewBox="0 0 31 32" fill="none" xmlns="http://www.w3.org/2000/svg">
<path d="M1.36463 3.13511C1.24841 3.01889 1.15622 2.88092 1.09332 2.72907C1.03042 2.57722 0.998047 2.41447 0.998047 2.25011C0.998047 2.08575 1.03042 1.923 1.09332 1.77116C1.15622 1.61931 1.24841 1.48133 1.36463 1.36511C1.48085 1.24889 1.61882 1.1567 1.77067 1.09381C1.92252 1.03091 2.08527 0.998535 2.24963 0.998535C2.41399 0.998535 2.57674 1.03091 2.72858 1.09381C2.88043 1.1567 3.01841 1.24889 3.13463 1.36511L15.9996 14.2326L28.8646 1.36511C28.9808 1.24889 29.1188 1.1567 29.2707 1.09381C29.4225 1.03091 29.5853 0.998535 29.7496 0.998535C29.914 0.998535 30.0767 1.03091 30.2286 1.09381C30.3804 1.1567 30.5184 1.24889 30.6346 1.36511C30.7508 1.48133 30.843 1.61931 30.9059 1.77116C30.9688 1.923 31.0012 2.08575 31.0012 2.25011C31.0012 2.41447 30.9688 2.57722 30.9059 2.72907C30.843 2.88092 30.7508 3.01889 30.6346 3.13511L17.7671 16.0001L30.6346 28.8651C30.7508 28.9813 30.843 29.1193 30.9059 29.2712C30.9688 29.423 31.0012 29.5858 31.0012 29.7501C31.0012 29.9145 30.9688 30.0772 30.9059 30.2291C30.843 30.3809 30.7508 30.5189 30.6346 30.6351C30.5184 30.7513 30.3804 30.8435 30.2286 30.9064C30.0767 30.9693 29.914 31.0017 29.7496 31.0017C29.5853 31.0017 29.4225 30.9693 29.2707 30.9064C29.1188 30.8435 28.9808 30.7513 28.8646 30.6351L15.9996 17.7676L3.13463 30.6351C3.01841 30.7513 2.88043 30.8435 2.72858 30.9064C2.57674 30.9693 2.41399 31.0017 2.24963 31.0017C2.08527 31.0017 1.92252 30.9693 1.77067 30.9064C1.61882 30.8435 1.48085 30.7513 1.36463 30.6351C1.24841 30.5189 1.15622 30.3809 1.09332 30.2291C1.03042 30.0772 0.998047 29.9145 0.998047 29.7501C0.998047 29.5858 1.03042 29.423 1.09332 29.2712C1.15622 29.1193 1.24841 28.9813 1.36463 28.8651L7.79838 22.4326L14.2321 16.0001L1.36463 3.13511Z" fill="white"/>
</svg>
