<svg width="111" height="40" viewBox="0 0 111 40" fill="none" xmlns="http://www.w3.org/2000/svg">
<path d="M105.189 34.0489C101.315 37.9171 96.6111 39.8511 91.0769 39.8511C85.5427 39.8511 80.8387 37.9171 76.9647 34.0489C73.0908 30.1808 71.1538 25.4838 71.1538 19.9579C71.1538 14.4319 73.0908 9.73492 76.9647 5.86678C80.8387 1.99864 85.5427 0.0645752 91.0769 0.0645752C96.6111 0.0645752 101.315 1.99864 105.189 5.86678C109.063 9.73492 111 14.4319 111 19.9579C111 25.4838 109.063 30.1808 105.189 34.0489ZM79.8504 31.3649C82.8942 34.4436 86.6496 35.983 91.0769 35.983C95.5043 35.983 99.2596 34.4436 102.303 31.3649C105.347 28.2862 106.889 24.4575 106.889 19.9579C106.889 15.4582 105.347 11.6295 102.303 8.5508C99.2596 5.47207 95.5043 3.93271 91.0769 3.93271C86.6496 3.93271 82.8942 5.47207 79.8504 8.5508C76.8066 11.6295 75.2649 15.4582 75.2649 19.9579C75.2649 24.4575 76.8066 28.2862 79.8504 31.3649Z" fill="#285BA7"/>
<path d="M70.0474 39.8511L67.2408 37.167L47.12 18.1816V0.0250244H43.2461V39.8511H47.12V23.5496L64.5528 39.8511H70.0474Z" fill="#285BA7"/>
<path d="M62.7337 0.0250244L48.5029 16.9975L51.6653 19.7604L67.8726 0.0250244H62.7337Z" fill="#285BA7"/>
<path d="M24.5877 32.3516C27.8686 29.5492 29.7266 25.9179 30.1614 21.3788C30.5962 16.8791 29.4103 12.932 26.6827 9.57698C23.9552 6.22197 20.3975 4.32737 16.0096 3.93266C14.3889 3.77478 12.7682 3.85372 11.2265 4.20896C9.68486 4.56419 8.4199 4.9589 7.47118 5.47202C6.48293 5.98514 5.57373 6.53773 4.7436 7.24821C3.91347 7.95868 3.36006 8.43233 3.08335 8.66916C2.72758 8.98492 2.92522 8.78757 2.60898 9.10333L0 6.65614L0.672015 5.86673C1.10684 5.35361 1.81838 4.72208 2.7671 4.0116C3.71582 3.30113 4.82267 2.63012 6.04809 1.95912C7.27352 1.28812 8.81519 0.774996 10.6731 0.380287C12.4915 -0.0144205 14.3889 -0.0933609 16.3259 0.103993C21.781 0.617113 26.2479 2.98536 29.7266 7.20874C33.2052 11.4321 34.6678 16.287 34.1539 21.7735C33.64 27.2599 31.3077 31.799 27.1176 35.2725C22.9274 38.7854 19.9626 40.2458 14.0331 39.8511C13.4007 39.8116 12.2938 39.5748 11.6613 39.4564L15.219 35.904C18.8953 35.8645 21.781 34.7199 24.5877 32.3516Z" fill="#285BA7"/>
<path d="M28.5015 18.3789H15.7729H11.8989L15.7729 22.2865H28.3434C28.4225 21.7734 28.4225 21.655 28.462 21.3787C28.541 20.3524 28.541 19.3657 28.5015 18.3789Z" fill="#285BA7"/>
</svg>
