<svg width="161" height="60" viewBox="0 0 161 60" fill="" xmlns="http://www.w3.org/2000/svg">
<path d="M31.8457 25.924C31.8457 27.0929 32.8062 28.0519 33.9768 28.0519C35.1473 28.0519 36.1078 27.0929 36.1078 25.924C36.1078 24.7552 35.1473 23.7961 33.9768 23.7961C32.8062 23.8261 31.8457 24.7552 31.8457 25.924Z" fill=""/>
<path d="M1.11098 25.2347C1.41113 25.2347 1.65125 25.0549 1.7413 24.8151C2.10148 24.7851 2.37161 24.4854 2.37161 24.1258C2.37161 23.7362 2.04145 23.4065 1.65125 23.4065C1.3511 23.4065 1.11098 23.5863 1.02094 23.8261C0.660759 23.856 0.390625 24.1557 0.390625 24.5154C0.42064 24.905 0.72079 25.2347 1.11098 25.2347Z" fill=""/>
<path d="M1.44072 29.6405V29.6106C1.56078 29.7304 1.74087 29.7904 1.92096 29.7904C2.31115 29.7904 2.64132 29.4607 2.64132 29.0711C2.64132 28.6815 2.31115 28.3518 1.92096 28.3518C1.53076 28.3518 1.2006 28.6815 1.2006 29.0711V29.1011C1.08054 28.9812 0.90045 28.9212 0.72036 28.9212C0.330165 28.9212 0 29.2509 0 29.6405C0 30.0301 0.330165 30.3598 0.72036 30.3598C1.11055 30.3598 1.44072 30.0301 1.44072 29.6405Z" fill=""/>
<path d="M3.21181 24.6654C3.60966 24.6654 3.93217 24.3433 3.93217 23.9461C3.93217 23.5488 3.60966 23.2268 3.21181 23.2268C2.81397 23.2268 2.49146 23.5488 2.49146 23.9461C2.49146 24.3433 2.81397 24.6654 3.21181 24.6654Z" fill=""/>
<path d="M5.01225 27.8724C5.01225 27.4827 4.68209 27.1531 4.29189 27.1531C3.9017 27.1531 3.57153 27.4827 3.57153 27.8724C3.57153 28.262 3.9017 28.5916 4.29189 28.5916C4.68209 28.5617 5.01225 28.262 5.01225 27.8724Z" fill=""/>
<path d="M2.3716 34.6153C2.3716 34.2257 2.04143 33.896 1.65124 33.896C1.26104 33.896 0.930881 34.2257 0.930881 34.6153C0.930881 34.6452 0.930881 34.6752 0.930881 34.7052C0.600716 34.7651 0.360596 35.0648 0.360596 35.3945C0.360596 35.7841 0.690761 36.1138 1.08096 36.1138C1.47115 36.1138 1.80131 35.7841 1.80131 35.3945C1.80131 35.3645 1.80131 35.3346 1.80131 35.3046C2.13148 35.2447 2.3716 34.9749 2.3716 34.6153Z" fill=""/>
<path d="M5.73267 32.3977C5.73267 32.8772 6.12286 33.2668 6.6031 33.2668C7.08334 33.2668 7.47353 32.8772 7.47353 32.3977C7.47353 31.9182 7.08334 31.5286 6.6031 31.5286C6.12286 31.5585 5.73267 31.9182 5.73267 32.3977Z" fill=""/>
<path d="M3.4518 34.3455C3.84965 34.3455 4.17216 34.0235 4.17216 33.6263C4.17216 33.229 3.84965 32.907 3.4518 32.907C3.05396 32.907 2.73145 33.229 2.73145 33.6263C2.73145 34.0235 3.05396 34.3455 3.4518 34.3455Z" fill=""/>
<path d="M3.27153 39.9202C3.39159 40.0701 3.57168 40.16 3.78178 40.16C4.17198 40.16 4.50214 39.8303 4.50214 39.4407C4.50214 39.0511 4.17198 38.7214 3.78178 38.7214C3.39159 38.7214 3.06142 39.0511 3.06142 39.4407C2.94136 39.2909 2.76127 39.201 2.55117 39.201C2.16097 39.201 1.83081 39.5306 1.83081 39.9202C1.83081 40.1001 1.89084 40.2499 1.98089 40.3698C1.95087 40.4597 1.92085 40.5496 1.92085 40.6395C1.92085 41.0291 2.25102 41.3588 2.64121 41.3588C3.03141 41.3588 3.36157 41.0291 3.36157 40.6395C3.36157 40.4597 3.30154 40.3099 3.2115 40.19C3.27153 40.1001 3.27153 40.0101 3.27153 39.9202Z" fill=""/>
<path d="M10.1448 37.9719C10.6256 37.9719 11.0153 37.5828 11.0153 37.1028C11.0153 36.6228 10.6256 36.2336 10.1448 36.2336C9.66412 36.2336 9.27441 36.6228 9.27441 37.1028C9.27441 37.5828 9.66412 37.9719 10.1448 37.9719Z" fill=""/>
<path d="M6.36343 39.2008C6.75362 39.2008 7.08379 38.8711 7.08379 38.4815C7.08379 38.0919 6.75362 37.7622 6.36343 37.7622C5.97323 37.7622 5.64307 38.0919 5.64307 38.4815C5.67308 38.8711 5.97323 39.2008 6.36343 39.2008Z" fill=""/>
<path d="M14.4073 42.1677C14.888 42.1677 15.2777 41.7786 15.2777 41.2986C15.2777 40.8186 14.888 40.4294 14.4073 40.4294C13.9266 40.4294 13.5369 40.8186 13.5369 41.2986C13.5369 41.7786 13.9266 42.1677 14.4073 42.1677Z" fill=""/>
<path d="M10.4452 43.6964C10.8431 43.6964 11.1656 43.3743 11.1656 42.9771C11.1656 42.5798 10.8431 42.2578 10.4452 42.2578C10.0474 42.2578 9.72485 42.5798 9.72485 42.9771C9.72485 43.3743 10.0474 43.6964 10.4452 43.6964Z" fill=""/>
<path d="M7.26382 44.8053C7.65401 44.8053 7.98418 44.4756 7.98418 44.086C7.98418 43.6964 7.65401 43.3667 7.26382 43.3667C6.87362 43.3667 6.54346 43.6964 6.54346 44.086C6.57347 44.5056 6.87362 44.8053 7.26382 44.8053Z" fill=""/>
<path d="M5.28269 43.8462C5.16263 43.8462 5.04257 43.8762 4.92251 43.9361C4.80245 43.8162 4.62236 43.7263 4.41225 43.7263C4.02206 43.7263 3.69189 44.056 3.69189 44.4456C3.69189 44.8352 4.02206 45.1649 4.41225 45.1649C4.53231 45.1649 4.65237 45.1349 4.77243 45.075C4.89249 45.1949 5.07258 45.2848 5.28269 45.2848C5.67288 45.2848 6.00305 44.9551 6.00305 44.5655C5.97303 44.1759 5.67288 43.8462 5.28269 43.8462Z" fill=""/>
<path d="M5.97305 23.5262C6.36324 23.5262 6.69341 23.1965 6.69341 22.8069C6.69341 22.4173 6.36324 22.0876 5.97305 22.0876C5.58285 22.0876 5.25269 22.4173 5.25269 22.8069C5.25269 23.1965 5.58285 23.5262 5.97305 23.5262Z" fill=""/>
<path d="M5.82304 19.6604C5.82304 19.2708 5.49288 18.9412 5.10268 18.9412C4.71249 18.9412 4.38232 19.2708 4.38232 19.6604C4.38232 20.0501 4.71249 20.3797 5.10268 20.3797C5.49288 20.3797 5.82304 20.0501 5.82304 19.6604Z" fill=""/>
<path d="M7.80378 27.5725C8.28451 27.5725 8.67422 27.1834 8.67422 26.7034C8.67422 26.2234 8.28451 25.8342 7.80378 25.8342C7.32305 25.8342 6.93335 26.2234 6.93335 26.7034C6.93335 27.1834 7.32305 27.5725 7.80378 27.5725Z" fill=""/>
<path d="M10.4152 20.8293C10.4152 20.3498 10.025 19.9602 9.54475 19.9602C9.06451 19.9602 8.67432 20.3498 8.67432 20.8293C8.67432 21.3089 9.06451 21.6985 9.54475 21.6985C10.025 21.6985 10.4152 21.3089 10.4152 20.8293Z" fill=""/>
<path d="M10.7156 32.1281C11.2792 32.1281 11.7361 31.6718 11.7361 31.1091C11.7361 30.5463 11.2792 30.0901 10.7156 30.0901C10.152 30.0901 9.69507 30.5463 9.69507 31.1091C9.69507 31.6718 10.152 32.1281 10.7156 32.1281Z" fill=""/>
<path d="M14.467 19.9901C15.0373 19.9901 15.4876 19.5406 15.4876 18.9711C15.4876 18.4017 15.0373 17.9521 14.467 17.9521C13.8968 17.9521 13.4465 18.4017 13.4465 18.9711C13.4465 19.5406 13.9268 19.9901 14.467 19.9901Z" fill=""/>
<path d="M12.1562 26.0739C12.7199 26.0739 13.1768 25.6176 13.1768 25.0549C13.1768 24.4921 12.7199 24.0359 12.1562 24.0359C11.5926 24.0359 11.1357 24.4921 11.1357 25.0549C11.1357 25.6176 11.5926 26.0739 12.1562 26.0739Z" fill=""/>
<path d="M14.467 36.5336C15.0307 36.5336 15.4876 36.0774 15.4876 35.5146C15.4876 34.9518 15.0307 34.4956 14.467 34.4956C13.9034 34.4956 13.4465 34.9518 13.4465 35.5146C13.4465 36.0774 13.9034 36.5336 14.467 36.5336Z" fill=""/>
<path d="M19.0598 17.5323C19.0598 18.2816 19.6601 18.851 20.3805 18.851C21.1008 18.851 21.7011 18.2516 21.7011 17.5323C21.7011 16.7831 21.1008 16.2136 20.3805 16.2136C19.6601 16.2136 19.0598 16.7831 19.0598 17.5323Z" fill=""/>
<path d="M17.7689 24.8151C18.4983 24.8151 19.0896 24.2247 19.0896 23.4964C19.0896 22.7681 18.4983 22.1777 17.7689 22.1777C17.0395 22.1777 16.4482 22.7681 16.4482 23.4964C16.4482 24.2247 17.0395 24.8151 17.7689 24.8151Z" fill=""/>
<path d="M17.0485 29.7603C17.0485 29.0111 16.4482 28.4417 15.7279 28.4417C14.9775 28.4417 14.4072 29.0411 14.4072 29.7603C14.4072 30.4796 15.0075 31.079 15.7279 31.079C16.4482 31.109 17.0485 30.5096 17.0485 29.7603Z" fill=""/>
<path d="M18.519 40.3998C19.0827 40.3998 19.5396 39.9436 19.5396 39.3808C19.5396 38.818 19.0827 38.3618 18.519 38.3618C17.9554 38.3618 17.4985 38.818 17.4985 39.3808C17.4985 39.9436 17.9554 40.3998 18.519 40.3998Z" fill=""/>
<path d="M26.5332 18.1918C27.3436 18.1918 28.034 17.5325 28.034 16.6933C28.034 15.8841 27.3736 15.1948 26.5332 15.1948C25.7228 15.1948 25.0325 15.8542 25.0325 16.6933C25.0325 17.5325 25.6928 18.1918 26.5332 18.1918Z" fill=""/>
<path d="M24.0115 23.7062C24.8403 23.7062 25.5122 23.0353 25.5122 22.2077C25.5122 21.3801 24.8403 20.7092 24.0115 20.7092C23.1827 20.7092 22.5107 21.3801 22.5107 22.2077C22.5107 23.0353 23.1827 23.7062 24.0115 23.7062Z" fill=""/>
<path d="M21.6704 29.85C22.4993 29.85 23.1712 29.1791 23.1712 28.3515C23.1712 27.5239 22.4993 26.853 21.6704 26.853C20.8416 26.853 20.1697 27.5239 20.1697 28.3515C20.1697 29.1791 20.8416 29.85 21.6704 29.85Z" fill=""/>
<path d="M19.8103 35.6344C20.5606 35.6344 21.1309 35.035 21.1309 34.3158C21.1309 33.5665 20.5306 32.9971 19.8103 32.9971C19.0899 32.9971 18.4896 33.5965 18.4896 34.3158C18.4596 35.035 19.0599 35.6344 19.8103 35.6344Z" fill=""/>
<path d="M8.01382 18.1917C8.41166 18.1917 8.73418 17.8697 8.73418 17.4725C8.73418 17.0752 8.41166 16.7532 8.01382 16.7532C7.61597 16.7532 7.29346 17.0752 7.29346 17.4725C7.29346 17.8697 7.61597 18.1917 8.01382 18.1917Z" fill=""/>
<path d="M12.1558 16.2439C12.6366 16.2439 13.0263 15.8548 13.0263 15.3747C13.0263 14.8947 12.6366 14.5056 12.1558 14.5056C11.6751 14.5056 11.2854 14.8947 11.2854 15.3747C11.2854 15.8548 11.6751 16.2439 12.1558 16.2439Z" fill=""/>
<path d="M10.0851 13.5167C10.4829 13.5167 10.8055 13.1947 10.8055 12.7974C10.8055 12.4002 10.4829 12.0781 10.0851 12.0781C9.68726 12.0781 9.36475 12.4002 9.36475 12.7974C9.36475 13.1947 9.68726 13.5167 10.0851 13.5167Z" fill=""/>
<path d="M17.4082 14.6852C17.9718 14.6852 18.4287 14.229 18.4287 13.6662C18.4287 13.1034 17.9718 12.6472 17.4082 12.6472C16.8446 12.6472 16.3877 13.1034 16.3877 13.6662C16.3877 14.229 16.8446 14.6852 17.4082 14.6852Z" fill=""/>
<path d="M12.4866 8.24199C12.4866 8.6316 12.8167 8.96127 13.2069 8.96127C13.5971 8.96127 13.9273 8.6316 13.9273 8.24199C13.9273 7.85238 13.5971 7.52271 13.2069 7.52271C12.7867 7.52271 12.4866 7.85238 12.4866 8.24199Z" fill=""/>
<path d="M14.9776 11.4187C15.4579 11.4187 15.848 11.0291 15.848 10.5496C15.848 10.07 15.4579 9.68042 14.9776 9.68042C14.4974 9.68042 14.1072 10.07 14.1072 10.5496C14.1072 11.0291 14.4974 11.4187 14.9776 11.4187Z" fill=""/>
<path d="M23.2018 13.966C23.9521 13.966 24.5224 13.3666 24.5224 12.6473C24.5224 11.898 23.9221 11.3286 23.2018 11.3286C22.4814 11.3286 21.8811 11.928 21.8811 12.6473C21.8811 13.3666 22.4814 13.966 23.2018 13.966Z" fill=""/>
<path d="M16.298 4.79525C16.358 4.79525 16.4481 4.79525 16.5081 4.76528C16.5981 5.03502 16.8683 5.24481 17.1684 5.24481C17.5586 5.24481 17.8888 4.91513 17.8888 4.52552C17.8888 4.13591 17.5586 3.80624 17.1684 3.80624C17.1084 3.80624 17.0184 3.80624 16.9583 3.83621C16.8683 3.56648 16.5981 3.35669 16.298 3.35669C15.9078 3.35669 15.5776 3.68636 15.5776 4.07597C15.6077 4.46558 15.9078 4.79525 16.298 4.79525Z" fill=""/>
<path d="M20.5299 3.02683C20.7701 3.02683 20.9802 2.90695 21.1002 2.72713C21.2203 2.81704 21.3403 2.84701 21.4904 2.84701C21.8806 2.84701 22.2108 2.51734 22.2108 2.12773C22.2108 1.73812 21.8806 1.40845 21.4904 1.40845C21.2503 1.40845 21.0402 1.52833 20.9201 1.70815C20.8001 1.61824 20.68 1.58827 20.5299 1.58827C20.1397 1.58827 19.8096 1.91794 19.8096 2.30755C19.8396 2.69716 20.1397 3.02683 20.5299 3.02683Z" fill=""/>
<path d="M18.7296 7.07274C19.2098 7.07274 19.6 6.68313 19.6 6.2036C19.6 5.72408 19.2098 5.33447 18.7296 5.33447C18.2493 5.33447 17.8591 5.72408 17.8591 6.2036C17.8591 6.68313 18.2493 7.07274 18.7296 7.07274Z" fill=""/>
<path d="M20.8604 10.0997C21.424 10.0997 21.8809 9.64352 21.8809 9.08075C21.8809 8.51798 21.424 8.06177 20.8604 8.06177C20.2967 8.06177 19.8398 8.51798 19.8398 9.08075C19.8398 9.64352 20.2967 10.0997 20.8604 10.0997Z" fill=""/>
<path d="M28.8446 13.6664C29.574 13.6664 30.1652 13.076 30.1652 12.3477C30.1652 11.6194 29.574 11.0291 28.8446 11.0291C28.1152 11.0291 27.5239 11.6194 27.5239 12.3477C27.5239 13.076 28.1152 13.6664 28.8446 13.6664Z" fill=""/>
<path d="M25.6027 1.73813C25.9929 1.73813 26.323 1.40846 26.323 1.01884C26.323 0.629232 25.9929 0.299561 25.6027 0.299561C25.2125 0.299561 24.8823 0.629232 24.8823 1.01884C24.9123 1.40846 25.2125 1.73813 25.6027 1.73813Z" fill=""/>
<path d="M22.9911 3.77621C23.3813 3.77621 23.7115 3.44654 23.7115 3.05693C23.7115 2.66732 23.3813 2.33765 22.9911 2.33765C22.6009 2.33765 22.2708 2.66732 22.2708 3.05693C22.2708 3.44654 22.6009 3.77621 22.9911 3.77621Z" fill=""/>
<path d="M24.8526 6.17381C25.3333 6.17381 25.723 5.78469 25.723 5.30468C25.723 4.82467 25.3333 4.43555 24.8526 4.43555C24.3719 4.43555 23.9822 4.82467 23.9822 5.30468C23.9822 5.78469 24.3719 6.17381 24.8526 6.17381Z" fill=""/>
<path d="M26.9233 9.65027C27.487 9.65027 27.9439 9.19406 27.9439 8.63129C27.9439 8.06852 27.487 7.6123 26.9233 7.6123C26.3597 7.6123 25.9028 8.06852 25.9028 8.63129C25.9028 9.19406 26.3597 9.65027 26.9233 9.65027Z" fill=""/>
<path d="M2.61123 20.1399C2.79132 20.1399 2.97141 20.08 3.09147 19.9601C3.21153 20.05 3.3616 20.11 3.51168 20.11C3.90187 20.11 4.23204 19.7803 4.23204 19.3907C4.23204 19.0011 3.90187 18.6714 3.51168 18.6714C3.33159 18.6714 3.1515 18.7313 3.03144 18.8512C2.91138 18.7613 2.7613 18.7014 2.61123 18.7014C2.22103 18.7014 1.89087 19.031 1.89087 19.4206C1.89087 19.8103 2.22103 20.1399 2.61123 20.1399Z" fill=""/>
<path d="M4.77236 15.7045C4.89242 15.7045 5.01248 15.6745 5.10253 15.6146C5.13254 15.6146 5.16256 15.6146 5.19257 15.6146C5.43269 15.6146 5.6428 15.4947 5.76286 15.3149C5.76286 15.3449 5.76286 15.3748 5.76286 15.3748C5.76286 15.7644 6.09302 16.0941 6.48322 16.0941C6.87341 16.0941 7.20357 15.7644 7.20357 15.3748C7.20357 14.9852 6.87341 14.6555 6.48322 14.6555C6.2431 14.6555 6.03299 14.7754 5.91293 14.9552C5.91293 14.9253 5.91293 14.8953 5.91293 14.8953C5.91293 14.5057 5.58277 14.176 5.19257 14.176C5.07251 14.176 4.95245 14.206 4.86241 14.2659C4.83239 14.2659 4.80238 14.2659 4.77236 14.2659C4.38217 14.2659 4.052 14.5956 4.052 14.9852C4.052 15.3748 4.38217 15.7045 4.77236 15.7045Z" fill=""/>
<path d="M11.6158 7.40248C11.7359 7.61227 11.976 7.73216 12.2161 7.73216C12.6063 7.73216 12.9365 7.40248 12.9365 7.01287C12.9365 6.77311 12.8164 6.56332 12.6363 6.44344C12.5163 6.23365 12.2762 6.11377 12.036 6.11377C11.6458 6.11377 11.3157 6.44344 11.3157 6.83305C11.3157 7.07281 11.4357 7.2826 11.6158 7.40248Z" fill=""/>
<path d="M8.07412 11.2088C8.10413 11.2088 8.13415 11.2088 8.16417 11.2088C8.25421 11.5085 8.52434 11.6884 8.82449 11.6884C9.21469 11.6884 9.54485 11.3587 9.54485 10.9691C9.54485 10.5795 9.21469 10.2498 8.82449 10.2498C8.79448 10.2498 8.76447 10.2498 8.73445 10.2498C8.64441 9.95008 8.37427 9.77026 8.07412 9.77026C7.68392 9.77026 7.35376 10.0999 7.35376 10.4895C7.35376 10.8792 7.68392 11.2088 8.07412 11.2088Z" fill=""/>
<path d="M53.5167 44.2657C53.9146 44.2657 54.2371 43.9437 54.2371 43.5464C54.2371 43.1492 53.9146 42.8271 53.5167 42.8271C53.1189 42.8271 52.7964 43.1492 52.7964 43.5464C52.7964 43.9437 53.1189 44.2657 53.5167 44.2657Z" fill=""/>
<path d="M54.8073 43.936C54.4171 43.936 54.0869 44.2657 54.0869 44.6553C54.0869 44.8351 54.177 45.015 54.297 45.1348C54.297 45.5245 54.6272 45.8241 55.0174 45.8241C55.4076 45.8241 55.7377 45.4945 55.7377 45.1049C55.7377 44.925 55.6477 44.7452 55.5276 44.6253C55.4976 44.2357 55.1975 43.936 54.8073 43.936Z" fill=""/>
<path d="M51.7759 48.7316C51.7459 48.7316 51.7159 48.7316 51.7159 48.7316C51.7459 48.6717 51.7459 48.6117 51.7459 48.5518C51.7459 48.1622 51.4157 47.8325 51.0255 47.8325C50.6353 47.8325 50.3052 48.1622 50.3052 48.5518C50.3052 48.9414 50.6353 49.2711 51.0255 49.2711C51.0555 49.2711 51.0856 49.2711 51.0856 49.2711C51.0555 49.331 51.0556 49.391 51.0556 49.4509C51.0556 49.8405 51.3857 50.1702 51.7759 50.1702C52.1661 50.1702 52.4963 49.8405 52.4963 49.4509C52.4963 49.0313 52.1661 48.7316 51.7759 48.7316Z" fill=""/>
<path d="M48.1739 52.6874C48.0838 52.3877 47.8137 52.1479 47.4835 52.1479C47.0933 52.1479 46.7632 52.4776 46.7632 52.8672C46.7632 53.107 46.8832 53.3168 47.0633 53.4367C47.1534 53.7364 47.4235 53.9761 47.7537 53.9761C48.1439 53.9761 48.474 53.6465 48.474 53.2568C48.474 53.0171 48.354 52.8073 48.1739 52.6874Z" fill=""/>
<path d="M43.462 55.2648C43.492 55.2049 43.492 55.1449 43.492 55.085C43.492 54.6954 43.1618 54.3657 42.7716 54.3657C42.3814 54.3657 42.0513 54.6954 42.0513 55.085C42.0513 55.4446 42.3214 55.7444 42.6516 55.7743C42.6216 55.8343 42.6216 55.8942 42.6216 55.9541C42.6216 56.3438 42.9517 56.6734 43.3419 56.6734C43.7321 56.6734 44.0623 56.3438 44.0623 55.9541C44.0623 55.6245 43.7921 55.3248 43.462 55.2648Z" fill=""/>
<path d="M39.5897 57.1533C39.4696 56.9135 39.2295 56.7637 38.9594 56.7637C38.5692 56.7637 38.239 57.0933 38.239 57.483C38.239 57.7527 38.3891 57.9924 38.6292 58.1123C38.7493 58.3521 38.9894 58.5019 39.2595 58.5019C39.6497 58.5019 39.9799 58.1723 39.9799 57.7827C39.9799 57.5129 39.8298 57.2732 39.5897 57.1533Z" fill=""/>
<path d="M22.3911 43.4865C22.9614 43.4865 23.4116 43.0369 23.4116 42.4675C23.4116 41.898 22.9614 41.4485 22.3911 41.4485C21.8208 41.4485 21.3706 41.898 21.3706 42.4675C21.3706 43.0369 21.8508 43.4865 22.3911 43.4865Z" fill=""/>
<path d="M29.6548 48.0424C30.2184 48.0424 30.6753 47.5861 30.6753 47.0234C30.6753 46.4606 30.2184 46.0044 29.6548 46.0044C29.0912 46.0044 28.6343 46.4606 28.6343 47.0234C28.6343 47.5861 29.0912 48.0424 29.6548 48.0424Z" fill=""/>
<path d="M36.9189 46.7831C36.9189 46.2137 36.4687 45.7642 35.8984 45.7642C35.3282 45.7642 34.8779 46.2137 34.8779 46.7831C34.8779 47.3526 35.3282 47.8021 35.8984 47.8021C36.4387 47.8021 36.9189 47.3526 36.9189 46.7831Z" fill=""/>
<path d="M32.3256 51.9383C32.7234 51.9383 33.0459 51.6163 33.0459 51.219C33.0459 50.8218 32.7234 50.4998 32.3256 50.4998C31.9277 50.4998 31.6052 50.8218 31.6052 51.219C31.6052 51.6163 31.9277 51.9383 32.3256 51.9383Z" fill=""/>
<path d="M51.5057 42.9172C51.9864 42.9172 52.3761 42.5281 52.3761 42.0481C52.3761 41.5681 51.9864 41.179 51.5057 41.179C51.025 41.179 50.6353 41.5681 50.6353 42.0481C50.6353 42.5281 51.025 42.9172 51.5057 42.9172Z" fill=""/>
<path d="M42.0808 44.7151C41.5105 44.7151 41.0603 45.1646 41.0603 45.7341C41.0603 46.3035 41.5105 46.7531 42.0808 46.7531C42.6511 46.7531 43.1013 46.3035 43.1013 45.7341C43.1013 45.1646 42.6511 44.7151 42.0808 44.7151Z" fill=""/>
<path d="M49.4345 47.6522C49.8323 47.6522 50.1548 47.3302 50.1548 46.9329C50.1548 46.5357 49.8323 46.2136 49.4345 46.2136C49.0366 46.2136 48.7141 46.5357 48.7141 46.9329C48.7141 47.3302 49.0366 47.6522 49.4345 47.6522Z" fill=""/>
<path d="M47.4239 44.9253C47.9046 44.9253 48.2943 44.5362 48.2943 44.0561C48.2943 43.5761 47.9046 43.187 47.4239 43.187C46.9432 43.187 46.5535 43.5761 46.5535 44.0561C46.5535 44.5362 46.9432 44.9253 47.4239 44.9253Z" fill=""/>
<path d="M38.7193 51.5486C39.2 51.5486 39.5897 51.1594 39.5897 50.6794C39.5897 50.1994 39.2 49.8103 38.7193 49.8103C38.2386 49.8103 37.8489 50.1994 37.8489 50.6794C37.8489 51.1594 38.2386 51.5486 38.7193 51.5486Z" fill=""/>
<path d="M47.1536 51.4588C47.1536 51.0692 46.8234 50.7395 46.4332 50.7395C46.0431 50.7395 45.7129 51.0692 45.7129 51.4588C45.7129 51.8484 46.0431 52.1781 46.4332 52.1781C46.8234 52.1781 47.1536 51.8484 47.1536 51.4588Z" fill=""/>
<path d="M44.6622 48.252C44.1819 48.252 43.7917 48.6416 43.7917 49.1211C43.7917 49.6006 44.1819 49.9902 44.6622 49.9902C45.1424 49.9902 45.5326 49.6006 45.5326 49.1211C45.5326 48.6416 45.1424 48.252 44.6622 48.252Z" fill=""/>
<path d="M34.9674 55.265C35.3653 55.265 35.6878 54.9429 35.6878 54.5457C35.6878 54.1484 35.3653 53.8264 34.9674 53.8264C34.5696 53.8264 34.2471 54.1484 34.2471 54.5457C34.2471 54.9429 34.5696 55.265 34.9674 55.265Z" fill=""/>
<path d="M41.1207 54.2159C41.5186 54.2159 41.8411 53.8939 41.8411 53.4966C41.8411 53.0994 41.5186 52.7773 41.1207 52.7773C40.7229 52.7773 40.4004 53.0994 40.4004 53.4966C40.4004 53.8939 40.7229 54.2159 41.1207 54.2159Z" fill=""/>
<path d="M37.2487 57.3329C37.6465 57.3329 37.969 57.0108 37.969 56.6136C37.969 56.2163 37.6465 55.8943 37.2487 55.8943C36.8508 55.8943 36.5283 56.2163 36.5283 56.6136C36.5283 57.0108 36.8508 57.3329 37.2487 57.3329Z" fill=""/>
<path d="M23.8016 39.5009C24.552 39.5009 25.1223 38.9015 25.1223 38.1822C25.1223 37.4629 24.522 36.8635 23.8016 36.8635C23.0813 36.8635 22.481 37.4629 22.481 38.1822C22.481 38.9015 23.0512 39.5009 23.8016 39.5009Z" fill=""/>
<path d="M28.6042 42.6776C28.6042 41.9283 28.0039 41.3589 27.2836 41.3589C26.5332 41.3589 25.9629 41.9583 25.9629 42.6776C25.9629 43.4268 26.5632 43.9963 27.2836 43.9963C28.0039 43.9963 28.6042 43.3969 28.6042 42.6776Z" fill=""/>
<path d="M27.1035 32.907C27.1035 32.0978 26.4432 31.4084 25.6028 31.4084C24.7924 31.4084 24.1021 32.0678 24.1021 32.907C24.1021 33.7161 24.7624 34.4055 25.6028 34.4055C26.4432 34.3755 27.1035 33.7161 27.1035 32.907Z" fill=""/>
<path d="M32.9864 43.7863C33.7158 43.7863 34.3071 43.1959 34.3071 42.4676C34.3071 41.7393 33.7158 41.1489 32.9864 41.1489C32.2571 41.1489 31.6658 41.7393 31.6658 42.4676C31.6658 43.1959 32.2571 43.7863 32.9864 43.7863Z" fill=""/>
<path d="M29.5647 27.0631C29.5647 26.0741 28.7543 25.2649 27.7638 25.2649C26.7733 25.2649 25.9629 26.0741 25.9629 27.0631C25.9629 28.0521 26.7733 28.8613 27.7638 28.8613C28.7543 28.8613 29.5647 28.0821 29.5647 27.0631Z" fill=""/>
<path d="M29.2949 39.3508C30.1053 39.3508 30.7957 38.6914 30.7957 37.8523C30.7957 37.0431 30.1354 36.3538 29.2949 36.3538C28.4845 36.3538 27.7942 37.0131 27.7942 37.8523C27.7942 38.6914 28.4845 39.3508 29.2949 39.3508Z" fill=""/>
<path d="M39.0494 43.0668C39.7788 43.0668 40.3701 42.4764 40.3701 41.7481C40.3701 41.0198 39.7788 40.4294 39.0494 40.4294C38.32 40.4294 37.7288 41.0198 37.7288 41.7481C37.7288 42.4764 38.32 43.0668 39.0494 43.0668Z" fill=""/>
<path d="M28.2144 21.3688C28.2144 22.3578 29.0248 23.167 30.0153 23.167C31.0057 23.167 31.8162 22.3578 31.8162 21.3688C31.8162 20.3797 31.0057 19.5706 30.0153 19.5706C29.0248 19.5706 28.2144 20.3797 28.2144 21.3688Z" fill=""/>
<path d="M33.4363 32.068C33.4363 31.079 32.6259 30.2698 31.6354 30.2698C30.6449 30.2698 29.8345 31.079 29.8345 32.068C29.8345 33.057 30.6449 33.8662 31.6354 33.8662C32.6259 33.8662 33.4363 33.057 33.4363 32.068Z" fill=""/>
<path d="M35.5676 38.6918C36.3965 38.6918 37.0684 38.0209 37.0684 37.1933C37.0684 36.3657 36.3965 35.6948 35.5676 35.6948C34.7388 35.6948 34.0669 36.3657 34.0669 37.1933C34.0669 38.0209 34.7388 38.6918 35.5676 38.6918Z" fill=""/>
<path d="M44.6621 41.5382C45.2257 41.5382 45.6826 41.082 45.6826 40.5192C45.6826 39.9565 45.2257 39.5002 44.6621 39.5002C44.0985 39.5002 43.6416 39.9565 43.6416 40.5192C43.6416 41.082 44.0985 41.5382 44.6621 41.5382Z" fill=""/>
<path d="M32.086 14.9849C31.2755 14.9849 30.5852 15.6442 30.5852 16.4834C30.5852 17.2926 31.2455 17.9819 32.086 17.9819C32.9264 17.9819 33.5867 17.3225 33.5867 16.4834C33.5867 15.6442 32.8964 14.9849 32.086 14.9849Z" fill=""/>
<path d="M42.0505 24.9349C42.0505 23.9459 41.2401 23.1367 40.2496 23.1367C39.2591 23.1367 38.4487 23.9459 38.4487 24.9349C38.4487 25.9239 39.2591 26.7331 40.2496 26.7331C41.2401 26.7331 42.0505 25.9239 42.0505 24.9349Z" fill=""/>
<path d="M39.8899 31.079C39.8899 30.09 39.0795 29.2808 38.089 29.2808C37.0985 29.2808 36.2881 30.09 36.2881 31.079C36.2881 32.068 37.0985 32.8772 38.089 32.8772C39.0795 32.8772 39.8899 32.068 39.8899 31.079Z" fill=""/>
<path d="M41.8108 37.6721C42.6396 37.6721 43.3116 37.0012 43.3116 36.1736C43.3116 35.346 42.6396 34.675 41.8108 34.675C40.982 34.675 40.3101 35.346 40.3101 36.1736C40.3101 37.0012 40.982 37.6721 41.8108 37.6721Z" fill=""/>
<path d="M49.2546 40.0399C49.8183 40.0399 50.2751 39.5837 50.2751 39.0209C50.2751 38.4582 49.8183 38.002 49.2546 38.002C48.691 38.002 48.2341 38.4582 48.2341 39.0209C48.2341 39.5837 48.691 40.0399 49.2546 40.0399Z" fill=""/>
<path d="M33.7967 13.966C34.5261 13.966 35.1174 13.3756 35.1174 12.6473C35.1174 11.919 34.5261 11.3286 33.7967 11.3286C33.0674 11.3286 32.4761 11.919 32.4761 12.6473C32.4761 13.3756 33.0674 13.966 33.7967 13.966Z" fill=""/>
<path d="M34.2168 20.2597C34.2168 21.2487 35.0272 22.0579 36.0177 22.0579C37.0082 22.0579 37.8186 21.2487 37.8186 20.2597C37.8186 19.2707 37.0082 18.4615 36.0177 18.4615C35.0272 18.4315 34.2168 19.2407 34.2168 20.2597Z" fill=""/>
<path d="M44.1519 31.5585C44.9807 31.5585 45.6526 30.8876 45.6526 30.06C45.6526 29.2324 44.9807 28.5615 44.1519 28.5615C43.323 28.5615 42.6511 29.2324 42.6511 30.06C42.6511 30.8876 43.323 31.5585 44.1519 31.5585Z" fill=""/>
<path d="M47.2132 33.5964C46.4629 33.5964 45.8926 34.1958 45.8926 34.9151C45.8926 35.6344 46.4929 36.2338 47.2132 36.2338C47.9336 36.2338 48.5339 35.6344 48.5339 34.9151C48.5339 34.1958 47.9336 33.5964 47.2132 33.5964Z" fill=""/>
<path d="M53.5167 37.4626C53.5167 36.9831 53.1266 36.5935 52.6463 36.5935C52.1661 36.5935 51.7759 36.9831 51.7759 37.4626C51.7759 37.9422 52.1661 38.3318 52.6463 38.3318C53.1266 38.3318 53.5167 37.9422 53.5167 37.4626Z" fill=""/>
<path d="M37.6089 17.113C38.4377 17.113 39.1097 16.4421 39.1097 15.6145C39.1097 14.7869 38.4377 14.116 37.6089 14.116C36.7801 14.116 36.1082 14.7869 36.1082 15.6145C36.1082 16.4421 36.7801 17.113 37.6089 17.113Z" fill=""/>
<path d="M41.7507 21.0388C42.5796 21.0388 43.2515 20.3679 43.2515 19.5403C43.2515 18.7127 42.5796 18.0417 41.7507 18.0417C40.9219 18.0417 40.25 18.7127 40.25 19.5403C40.25 20.3679 40.9219 21.0388 41.7507 21.0388Z" fill=""/>
<path d="M43.4919 14.2957C43.4919 13.5465 42.8916 12.9771 42.1712 12.9771C41.4209 12.9771 40.8506 13.5765 40.8506 14.2957C40.8506 15.045 41.4509 15.6144 42.1712 15.6144C42.8916 15.6144 43.4919 15.015 43.4919 14.2957Z" fill=""/>
<path d="M45.7132 25.7145C46.542 25.7145 47.2139 25.0436 47.2139 24.216C47.2139 23.3884 46.542 22.7175 45.7132 22.7175C44.8843 22.7175 44.2124 23.3884 44.2124 24.216C44.2124 25.0436 44.8843 25.7145 45.7132 25.7145Z" fill=""/>
<path d="M47.7539 13.4565C47.7539 12.8871 47.3037 12.4375 46.7334 12.4375C46.1631 12.4375 45.7129 12.8871 45.7129 13.4565C45.7129 14.0259 46.1631 14.4755 46.7334 14.4755C47.3037 14.4755 47.7539 14.0259 47.7539 13.4565Z" fill=""/>
<path d="M46.6131 19.9899C47.3425 19.9899 47.9338 19.3995 47.9338 18.6712C47.9338 17.9429 47.3425 17.3525 46.6131 17.3525C45.8838 17.3525 45.2925 17.9429 45.2925 18.6712C45.2925 19.3995 45.8838 19.9899 46.6131 19.9899Z" fill=""/>
<path d="M50.3354 29.1309C50.3354 28.3817 49.7351 27.8123 49.0147 27.8123C48.2944 27.8123 47.6941 28.4117 47.6941 29.1309C47.6941 29.8802 48.2944 30.4496 49.0147 30.4496C49.7351 30.4496 50.3354 29.8502 50.3354 29.1309Z" fill=""/>
<path d="M50.6954 14.2356C51.1761 14.2356 51.5658 13.8465 51.5658 13.3664C51.5658 12.8864 51.1761 12.4973 50.6954 12.4973C50.2147 12.4973 49.825 12.8864 49.825 13.3664C49.825 13.8465 50.2147 14.2356 50.6954 14.2356Z" fill=""/>
<path d="M51.0854 19.2709C51.6491 19.2709 52.106 18.8147 52.106 18.2519C52.106 17.6891 51.6491 17.2329 51.0854 17.2329C50.5218 17.2329 50.0649 17.6891 50.0649 18.2519C50.0649 18.8147 50.5218 19.2709 51.0854 19.2709Z" fill=""/>
<path d="M49.1348 23.7662C49.1348 24.5154 49.7351 25.0849 50.4554 25.0849C51.1758 25.0849 51.7761 24.4855 51.7761 23.7662C51.7761 23.0169 51.1758 22.4475 50.4554 22.4475C49.7351 22.4475 49.1348 23.0169 49.1348 23.7662Z" fill=""/>
<path d="M51.2954 34.6754C51.859 34.6754 52.3159 34.2192 52.3159 33.6564C52.3159 33.0937 51.859 32.6375 51.2954 32.6375C50.7318 32.6375 50.2749 33.0937 50.2749 33.6564C50.2749 34.2192 50.7318 34.6754 51.2954 34.6754Z" fill=""/>
<path d="M53.1564 12.9471C53.5466 12.9471 53.8768 12.6174 53.8768 12.2278C53.8768 11.8382 53.5466 11.5085 53.1564 11.5085C52.7662 11.5085 52.436 11.8382 52.436 12.2278C52.436 12.6174 52.7662 12.9471 53.1564 12.9471Z" fill=""/>
<path d="M52.7964 13.9959C52.7964 14.3855 53.1265 14.7152 53.5167 14.7152C53.9069 14.7152 54.2371 14.3855 54.2371 13.9959C54.2371 13.6063 53.9069 13.2766 53.5167 13.2766C53.0965 13.3066 52.7964 13.6063 52.7964 13.9959Z" fill=""/>
<path d="M55.1073 15.8541C55.5052 15.8541 55.8277 15.5321 55.8277 15.1348C55.8277 14.7376 55.5052 14.4155 55.1073 14.4155C54.7095 14.4155 54.387 14.7376 54.387 15.1348C54.387 15.5321 54.7095 15.8541 55.1073 15.8541Z" fill=""/>
<path d="M54.4774 19.2707C54.9581 19.2707 55.3478 18.8816 55.3478 18.4016C55.3478 17.9216 54.9581 17.5325 54.4774 17.5325C53.9966 17.5325 53.6069 17.9216 53.6069 18.4016C53.6069 18.8816 53.9966 19.2707 54.4774 19.2707Z" fill=""/>
<path d="M54.3872 22.5674C53.8169 22.5674 53.3667 23.0169 53.3667 23.5864C53.3667 24.1558 53.8169 24.6054 54.3872 24.6054C54.9575 24.6054 55.4077 24.1558 55.4077 23.5864C55.4077 23.0169 54.9575 22.5674 54.3872 22.5674Z" fill=""/>
<path d="M53.2166 29.9103C53.7802 29.9103 54.2371 29.4541 54.2371 28.8913C54.2371 28.3285 53.7802 27.8723 53.2166 27.8723C52.6529 27.8723 52.196 28.3285 52.196 28.8913C52.196 29.4541 52.6529 29.9103 53.2166 29.9103Z" fill=""/>
<path d="M56.5182 19.7501C56.5482 19.7501 56.5782 19.7501 56.5782 19.7501C56.6683 20.0198 56.9384 20.2296 57.2386 20.2296C57.6288 20.2296 57.9589 19.8999 57.9589 19.5103C57.9589 19.1207 57.6288 18.791 57.2386 18.791C57.2086 18.791 57.1785 18.791 57.1785 18.791C57.0885 18.5213 56.8184 18.3115 56.5182 18.3115C56.128 18.3115 55.7979 18.6412 55.7979 19.0308C55.7979 19.4204 56.128 19.7501 56.5182 19.7501Z" fill=""/>
<path d="M56.9982 23.0171C56.608 23.0171 56.2778 23.3468 56.2778 23.7364C56.2778 24.126 56.608 24.4557 56.9982 24.4557C57.3884 24.4557 57.7186 24.126 57.7186 23.7364C57.7186 23.3168 57.3884 23.0171 56.9982 23.0171Z" fill=""/>
<path d="M57.719 24.096C57.719 24.2758 57.779 24.4556 57.8991 24.5755C57.8691 24.6355 57.8691 24.6954 57.8691 24.7553C57.8691 25.1449 58.1992 25.4746 58.5894 25.4746C58.9796 25.4746 59.3098 25.1449 59.3098 24.7553C59.3098 24.5755 59.2498 24.3957 59.1297 24.2758C59.1597 24.2159 59.1597 24.1559 59.1597 24.096C59.1597 23.7064 58.8295 23.3767 58.4394 23.3767C58.0492 23.4067 57.719 23.7064 57.719 24.096Z" fill=""/>
<path d="M56.3677 29.5803C56.8485 29.5803 57.2382 29.1912 57.2382 28.7112C57.2382 28.2312 56.8485 27.842 56.3677 27.842C55.887 27.842 55.4973 28.2312 55.4973 28.7112C55.4973 29.1912 55.887 29.5803 56.3677 29.5803Z" fill=""/>
<path d="M59.2197 29.191C59.1597 29.191 59.1297 29.191 59.0696 29.2209C59.0396 28.8613 58.7395 28.5916 58.3793 28.5916C57.9891 28.5916 57.6589 28.9212 57.6589 29.3108C57.6589 29.7004 57.9891 30.0301 58.3793 30.0301C58.4393 30.0301 58.4693 30.0301 58.5294 30.0002C58.5594 30.3598 58.8595 30.6295 59.2197 30.6295C59.6099 30.6295 59.9401 30.2999 59.9401 29.9102C59.9401 29.5206 59.6099 29.191 59.2197 29.191Z" fill=""/>
<path d="M57.2984 39.6206C57.2684 39.231 56.9382 38.9014 56.548 38.9014C56.1578 38.9014 55.8276 39.231 55.8276 39.6206C55.8276 40.0103 56.1578 40.3399 56.548 40.3399H56.578C56.578 40.7295 56.9082 41.0592 57.2984 41.0592C57.6886 41.0592 58.0187 40.7295 58.0187 40.3399C58.0187 39.9503 57.6886 39.6206 57.2984 39.6206Z" fill=""/>
<path d="M59.1597 35.0647C59.1597 34.6751 58.8295 34.3455 58.4394 34.3455C58.0492 34.3455 57.719 34.6751 57.719 35.0647C57.719 35.2446 57.779 35.3944 57.8991 35.5143C57.8991 35.5443 57.8991 35.5742 57.8991 35.6342C57.8991 36.0238 58.2292 36.3535 58.6194 36.3535C59.0096 36.3535 59.3398 36.0238 59.3398 35.6342C59.3398 35.4543 59.2798 35.3045 59.1597 35.1846C59.1597 35.1247 59.1597 35.0947 59.1597 35.0647Z" fill=""/>
<path d="M54.8673 39.3206C55.2652 39.3206 55.5877 38.9986 55.5877 38.6014C55.5877 38.2041 55.2652 37.8821 54.8673 37.8821C54.4695 37.8821 54.147 38.2041 54.147 38.6014C54.147 38.9986 54.4695 39.3206 54.8673 39.3206Z" fill=""/>
<path d="M56.3379 34.2854C56.3379 34.6751 56.6681 35.0047 57.0582 35.0047C57.4484 35.0047 57.7786 34.6751 57.7786 34.2854C57.7786 33.8958 57.4484 33.5662 57.0582 33.5662C56.638 33.5662 56.3379 33.8958 56.3379 34.2854Z" fill=""/>
<path d="M54.7772 32.5774C54.2969 32.5774 53.9067 32.967 53.9067 33.4465C53.9067 33.926 54.2969 34.3157 54.7772 34.3157C55.2574 34.3157 55.6476 33.926 55.6476 33.4465C55.6476 32.967 55.2574 32.5774 54.7772 32.5774Z" fill=""/>
<path d="M35.4175 58.0221C35.1173 58.0221 34.8772 58.2019 34.7572 58.4716C34.6371 58.3218 34.487 58.2019 34.2769 58.2019C34.1869 57.9022 33.9167 57.6924 33.6166 57.6924C33.2264 57.6924 32.8962 58.0221 32.8962 58.4117C32.8962 58.7713 33.1664 59.071 33.4965 59.101C33.5866 59.4007 33.8567 59.6105 34.1569 59.6105C34.457 59.6105 34.6971 59.4306 34.8172 59.1609C34.9373 59.3407 35.1474 59.4606 35.3875 59.4606C35.7777 59.4606 36.1078 59.1309 36.1078 58.7413C36.1078 58.3517 35.8077 58.0221 35.4175 58.0221Z" fill=""/>
<path d="M24.1621 47.6525C24.7257 47.6525 25.1826 47.1963 25.1826 46.6335C25.1826 46.0707 24.7257 45.6145 24.1621 45.6145C23.5985 45.6145 23.1416 46.0707 23.1416 46.6335C23.1416 47.1963 23.5985 47.6525 24.1621 47.6525Z" fill=""/>
<path d="M19.6298 44.5955C19.6298 44.1159 19.2396 43.7263 18.7593 43.7263C18.2791 43.7263 17.8889 44.1159 17.8889 44.5955C17.8889 45.075 18.2791 45.4646 18.7593 45.4646C19.2396 45.4646 19.6298 45.075 19.6298 44.5955Z" fill=""/>
<path d="M26.3831 49.96C25.9029 49.96 25.5127 50.3496 25.5127 50.8291C25.5127 51.3086 25.9029 51.6982 26.3831 51.6982C26.8634 51.6982 27.2536 51.3086 27.2536 50.8291C27.2536 50.3496 26.8334 49.96 26.3831 49.96Z" fill=""/>
<path d="M15.0075 47.2625C15.4053 47.2625 15.7278 46.9405 15.7278 46.5433C15.7278 46.146 15.4053 45.824 15.0075 45.824C14.6096 45.824 14.2871 46.146 14.2871 46.5433C14.2871 46.9405 14.6096 47.2625 15.0075 47.2625Z" fill=""/>
<path d="M28.8747 55.2052C29.2725 55.2052 29.595 54.8831 29.595 54.4859C29.595 54.0886 29.2725 53.7666 28.8747 53.7666C28.4768 53.7666 28.1543 54.0886 28.1543 54.4859C28.1543 54.8831 28.4768 55.2052 28.8747 55.2052Z" fill=""/>
<path d="M20.5001 49.9604C20.9808 49.9604 21.3705 49.5713 21.3705 49.0913C21.3705 48.6113 20.9808 48.2222 20.5001 48.2222C20.0193 48.2222 19.6296 48.6113 19.6296 49.0913C19.6296 49.5713 20.0193 49.9604 20.5001 49.9604Z" fill=""/>
<path d="M11.6159 47.2627C11.2257 47.2627 10.8955 47.5924 10.8955 47.982C10.8955 48.3716 11.2257 48.7013 11.6159 48.7013C12.0061 48.7013 12.3362 48.3716 12.3362 47.982C12.3362 47.5624 12.0061 47.2627 11.6159 47.2627Z" fill=""/>
<path d="M31.3954 56.3438C31.0052 56.3438 30.675 56.6734 30.675 57.063C30.675 57.4526 31.0052 57.7823 31.3954 57.7823C31.7856 57.7823 32.1158 57.4526 32.1158 57.063C32.0858 56.6434 31.7856 56.3438 31.3954 56.3438Z" fill=""/>
<path d="M22.7814 54.0662C23.1792 54.0662 23.5018 53.7442 23.5018 53.347C23.5018 52.9497 23.1792 52.6277 22.7814 52.6277C22.3836 52.6277 22.061 52.9497 22.061 53.347C22.061 53.7442 22.3836 54.0662 22.7814 54.0662Z" fill=""/>
<path d="M16.7785 51.7882C17.1763 51.7882 17.4988 51.4661 17.4988 51.0689C17.4988 50.6716 17.1763 50.3496 16.7785 50.3496C16.3806 50.3496 16.0581 50.6716 16.0581 51.0689C16.0581 51.4661 16.3806 51.7882 16.7785 51.7882Z" fill=""/>
<path d="M9.03481 49.3311C9.43266 49.3311 9.75517 49.0091 9.75517 48.6119C9.75517 48.2146 9.43266 47.8926 9.03481 47.8926C8.63697 47.8926 8.31445 48.2146 8.31445 48.6119C8.31445 49.0091 8.63697 49.3311 9.03481 49.3311Z" fill=""/>
<path d="M30.6752 60.0001C31.073 60.0001 31.3956 59.6781 31.3956 59.2808C31.3956 58.8836 31.073 58.5615 30.6752 58.5615C30.2773 58.5615 29.9548 58.8836 29.9548 59.2808C29.9548 59.6781 30.2773 60.0001 30.6752 60.0001Z" fill=""/>
<path d="M25.5128 57.3626C25.9107 57.3626 26.2332 57.0406 26.2332 56.6434C26.2332 56.2461 25.9107 55.9241 25.5128 55.9241C25.115 55.9241 24.7925 56.2461 24.7925 56.6434C24.7925 57.0406 25.115 57.3626 25.5128 57.3626Z" fill=""/>
<path d="M25.2128 59.6407C25.6106 59.6407 25.9332 59.3187 25.9332 58.9214C25.9332 58.5242 25.6106 58.2021 25.2128 58.2021C24.8149 58.2021 24.4924 58.5242 24.4924 58.9214C24.4924 59.3187 24.8149 59.6407 25.2128 59.6407Z" fill=""/>
<path d="M28.2443 59.3111C28.6421 59.3111 28.9646 58.9891 28.9646 58.5918C28.9646 58.1946 28.6421 57.8726 28.2443 57.8726C27.8464 57.8726 27.5239 58.1946 27.5239 58.5918C27.5239 58.9891 27.8464 59.3111 28.2443 59.3111Z" fill=""/>
<path d="M19.2699 55.6844C19.6678 55.6844 19.9903 55.3624 19.9903 54.9651C19.9903 54.5679 19.6678 54.2458 19.2699 54.2458C18.8721 54.2458 18.5496 54.5679 18.5496 54.9651C18.5496 55.3624 18.8721 55.6844 19.2699 55.6844Z" fill=""/>
<path d="M19.4796 56.6736C19.0894 56.6736 18.7593 57.0033 18.7593 57.3929C18.7593 57.7825 19.0894 58.1121 19.4796 58.1121C19.8698 58.1121 20.2 57.7825 20.2 57.3929C20.2 57.0033 19.8698 56.6736 19.4796 56.6736Z" fill=""/>
<path d="M22.2414 58.3514C22.6392 58.3514 22.9617 58.0294 22.9617 57.6321C22.9617 57.2349 22.6392 56.9128 22.2414 56.9128C21.8435 56.9128 21.521 57.2349 21.521 57.6321C21.521 58.0294 21.8435 58.3514 22.2414 58.3514Z" fill=""/>
<path d="M13.567 52.8375C13.9649 52.8375 14.2874 52.5155 14.2874 52.1182C14.2874 51.721 13.9649 51.3989 13.567 51.3989C13.1692 51.3989 12.8467 51.721 12.8467 52.1182C12.8467 52.5155 13.1692 52.8375 13.567 52.8375Z" fill=""/>
<path d="M14.1972 54.0361C13.807 54.0361 13.4768 54.3658 13.4768 54.7554C13.4768 55.145 13.807 55.4747 14.1972 55.4747C14.5874 55.4747 14.9175 55.145 14.9175 54.7554C14.9175 54.3658 14.5874 54.0361 14.1972 54.0361Z" fill=""/>
<path d="M16.298 56.1336C16.6958 56.1336 17.0184 55.8116 17.0184 55.4143C17.0184 55.0171 16.6958 54.6951 16.298 54.6951C15.9002 54.6951 15.5776 55.0171 15.5776 55.4143C15.5776 55.8116 15.9002 56.1336 16.298 56.1336Z" fill=""/>
<path d="M9.90468 50.7095C9.51449 50.7095 9.18433 51.0391 9.18433 51.4288C9.18433 51.8184 9.51449 52.148 9.90468 52.148C10.2949 52.148 10.625 51.8184 10.625 51.4288C10.625 51.0391 10.2949 50.7095 9.90468 50.7095Z" fill=""/>
<path d="M11.256 51.4585C10.8658 51.4585 10.5356 51.7882 10.5356 52.1778C10.5356 52.5674 10.8658 52.8971 11.256 52.8971C11.6462 52.8971 11.9764 52.5674 11.9764 52.1778C11.9463 51.7582 11.6462 51.4585 11.256 51.4585Z" fill=""/>
<path d="M7.44365 47.8023C7.38362 47.4726 7.08347 47.2029 6.72329 47.2029C6.33309 47.2029 6.00293 47.5326 6.00293 47.9222C6.00293 48.3118 6.33309 48.6414 6.72329 48.6414C6.72329 48.6414 6.72329 48.6414 6.7533 48.6414C6.81333 48.9711 7.08347 49.2408 7.44365 49.2408C7.83384 49.2408 8.16401 48.9112 8.16401 48.5216C8.16401 48.132 7.83384 47.8023 7.44365 47.8023Z" fill=""/>
<path d="M27.1037 2.06772C27.4939 2.06772 27.824 1.73804 27.824 1.34843C27.824 0.958822 27.4939 0.62915 27.1037 0.62915C26.7135 0.62915 26.3833 0.958822 26.3833 1.34843C26.4133 1.73804 26.7135 2.06772 27.1037 2.06772Z" fill=""/>
<path d="M30.9152 1.43857C31.3054 1.43857 31.6355 1.10889 31.6355 0.719283C31.6355 0.329672 31.3054 0 30.9152 0C30.525 0 30.1948 0.329672 30.1948 0.719283C30.1948 1.13886 30.525 1.43857 30.9152 1.43857Z" fill=""/>
<path d="M28.8747 3.56625C29.2725 3.56625 29.595 3.24422 29.595 2.84697C29.595 2.44972 29.2725 2.12769 28.8747 2.12769C28.4768 2.12769 28.1543 2.44972 28.1543 2.84697C28.1543 3.24422 28.4768 3.56625 28.8747 3.56625Z" fill=""/>
<path d="M36.8583 2.30771C37.2561 2.30771 37.5787 1.98567 37.5787 1.58842C37.5787 1.19117 37.2561 0.869141 36.8583 0.869141C36.4605 0.869141 36.1379 1.19117 36.1379 1.58842C36.1379 1.98567 36.4605 2.30771 36.8583 2.30771Z" fill=""/>
<path d="M32.8668 2.30771C33.257 2.30771 33.5872 1.97803 33.5872 1.58842C33.5872 1.19881 33.257 0.869141 32.8668 0.869141C32.4766 0.869141 32.1465 1.19881 32.1465 1.58842C32.1765 1.97803 32.4766 2.30771 32.8668 2.30771Z" fill=""/>
<path d="M30.7049 6.41356C31.1856 6.41356 31.5753 6.02444 31.5753 5.54443C31.5753 5.06442 31.1856 4.67529 30.7049 4.67529C30.2242 4.67529 29.8345 5.06442 29.8345 5.54443C29.8345 6.02444 30.2242 6.41356 30.7049 6.41356Z" fill=""/>
<path d="M51.7763 11.4486C52.1665 11.4486 52.4966 11.1189 52.4966 10.7293C52.4966 10.3397 52.1665 10.01 51.7763 10.01C51.3861 10.01 51.0559 10.3397 51.0559 10.7293C51.0559 11.1189 51.3861 11.4486 51.7763 11.4486Z" fill=""/>
<path d="M42.8019 4.52572C43.1997 4.52572 43.5223 4.20369 43.5223 3.80644C43.5223 3.40919 43.1997 3.08716 42.8019 3.08716C42.4041 3.08716 42.0815 3.40919 42.0815 3.80644C42.0815 4.20369 42.4041 4.52572 42.8019 4.52572Z" fill=""/>
<path d="M49.4647 10.3396C49.8549 10.3396 50.1851 10.01 50.1851 9.62034C50.1851 9.5604 50.1851 9.47049 50.1551 9.41055C50.4552 9.32064 50.6954 9.05091 50.6954 8.72124C50.6954 8.33162 50.3652 8.00195 49.975 8.00195C49.5848 8.00195 49.2546 8.33162 49.2546 8.72124C49.2546 8.78118 49.2546 8.87109 49.2847 8.93103C48.9845 9.02094 48.7444 9.29067 48.7444 9.62034C48.7444 10.0399 49.0745 10.3396 49.4647 10.3396Z" fill=""/>
<path d="M47.9037 7.7623C48.3016 7.7623 48.6241 7.44026 48.6241 7.04301C48.6241 6.64576 48.3016 6.32373 47.9037 6.32373C47.5059 6.32373 47.1833 6.64576 47.1833 7.04301C47.1833 7.44026 47.5059 7.7623 47.9037 7.7623Z" fill=""/>
<path d="M39.0492 3.86614C39.4094 3.86614 39.7095 3.59641 39.7396 3.23676C39.8596 3.41658 40.0697 3.53647 40.3098 3.53647C40.7 3.53647 41.0302 3.20679 41.0302 2.81718C41.0302 2.42757 40.7 2.0979 40.3098 2.0979C39.9497 2.0979 39.6495 2.36763 39.6195 2.72727C39.4994 2.54745 39.2893 2.42757 39.0492 2.42757C38.659 2.42757 38.3289 2.75724 38.3289 3.14685C38.3589 3.56644 38.659 3.86614 39.0492 3.86614Z" fill=""/>
<path d="M45.2627 9.26049C45.2627 9.74001 45.6529 10.1296 46.1331 10.1296C46.6134 10.1296 47.0036 9.74001 47.0036 9.26049C47.0036 8.78097 46.6134 8.39136 46.1331 8.39136C45.6529 8.39136 45.2627 8.78097 45.2627 9.26049Z" fill=""/>
<path d="M44.8126 6.74329C45.1728 6.74329 45.473 6.47356 45.503 6.14389C45.533 6.14389 45.563 6.14389 45.623 6.14389C46.0132 6.14389 46.3434 5.81422 46.3434 5.42461C46.3434 5.03499 46.0132 4.70532 45.623 4.70532C45.2629 4.70532 44.9627 4.97505 44.9327 5.30472C44.9027 5.30472 44.8727 5.30472 44.8126 5.30472C44.4224 5.30472 44.0923 5.6344 44.0923 6.02401C44.1223 6.41362 44.4224 6.74329 44.8126 6.74329Z" fill=""/>
<path d="M34.8175 4.67528C35.2977 4.67528 35.6879 4.28567 35.6879 3.80615C35.6879 3.32662 35.2977 2.93701 34.8175 2.93701C34.3372 2.93701 33.947 3.32662 33.947 3.80615C33.977 4.31564 34.3672 4.67528 34.8175 4.67528Z" fill=""/>
<path d="M41.0305 9.77032C41.0305 10.3397 41.4807 10.7893 42.051 10.7893C42.6213 10.7893 43.0715 10.3397 43.0715 9.77032C43.0715 9.20089 42.6213 8.75133 42.051 8.75133C41.4807 8.72136 41.0305 9.20089 41.0305 9.77032Z" fill=""/>
<path d="M40.8502 6.92308C41.3309 6.92308 41.7206 6.53395 41.7206 6.05395C41.7206 5.57394 41.3309 5.18481 40.8502 5.18481C40.3694 5.18481 39.9797 5.57394 39.9797 6.05395C39.9797 6.53395 40.3694 6.92308 40.8502 6.92308Z" fill=""/>
<path d="M36.438 10.9991C36.438 11.7484 37.0383 12.3178 37.7586 12.3178C38.479 12.3178 39.0793 11.7184 39.0793 10.9991C39.0793 10.2499 38.479 9.68042 37.7586 9.68042C37.0383 9.68042 36.438 10.2499 36.438 10.9991Z" fill=""/>
<path d="M36.4983 8.18201C37.0686 8.18201 37.5188 7.73246 37.5188 7.16303C37.5188 6.5936 37.0686 6.14404 36.4983 6.14404C35.928 6.14404 35.4778 6.5936 35.4778 7.16303C35.4778 7.73246 35.958 8.18201 36.4983 8.18201Z" fill=""/>
<path d="M32.3862 10.0101C32.9498 10.0101 33.4067 9.55392 33.4067 8.99115C33.4067 8.42838 32.9498 7.97217 32.3862 7.97217C31.8226 7.97217 31.3657 8.42838 31.3657 8.99115C31.3657 9.55392 31.8226 10.0101 32.3862 10.0101Z" fill=""/>
<path d="M156.588 40.2798C153.647 43.2169 150.075 44.6855 145.873 44.6855C141.671 44.6855 138.099 43.2169 135.157 40.2798C132.216 37.3428 130.745 33.7763 130.745 29.5805C130.745 25.3847 132.216 21.8183 135.157 18.8812C138.099 15.9441 141.671 14.4756 145.873 14.4756C150.075 14.4756 153.647 15.9441 156.588 18.8812C159.529 21.8183 161 25.3847 161 29.5805C161 33.7763 159.529 37.3428 156.588 40.2798ZM137.348 38.2419C139.66 40.5795 142.511 41.7484 145.873 41.7484C149.234 41.7484 152.086 40.5795 154.397 38.2419C156.708 35.9042 157.879 32.9971 157.879 29.5805C157.879 26.1639 156.708 23.2568 154.397 20.9192C152.086 18.5815 149.234 17.4127 145.873 17.4127C142.511 17.4127 139.66 18.5815 137.348 20.9192C135.037 23.2568 133.867 26.1639 133.867 29.5805C133.867 32.9971 135.037 35.9042 137.348 38.2419Z" fill=""/>
<path d="M129.905 44.6854L127.774 42.6474L112.496 28.2318V14.4456H109.555V44.6854H112.496V32.3077L125.733 44.6854H129.905Z" fill=""/>
<path d="M124.352 14.4456L113.546 27.3327L115.948 29.4306L128.254 14.4456H124.352Z" fill=""/>
<path d="M95.3876 38.9911C97.8788 36.8632 99.2895 34.1059 99.6197 30.6594C99.9499 27.2428 99.0494 24.2458 96.9784 21.6983C94.9073 19.1508 92.206 17.7123 88.8743 17.4126C87.6437 17.2927 86.4131 17.3526 85.2425 17.6224C84.0719 17.8921 83.1115 18.1918 82.3911 18.5814C81.6407 18.971 80.9504 19.3906 80.3201 19.9301C79.6897 20.4695 79.2695 20.8292 79.0594 21.009C78.7893 21.2487 78.9394 21.0989 78.6993 21.3387L76.7183 19.4805L77.2285 18.8811C77.5587 18.4915 78.099 18.012 78.8193 17.4725C79.5397 16.9331 80.3801 16.4236 81.3106 15.9141C82.241 15.4046 83.4116 15.015 84.8223 14.7153C86.203 14.4156 87.6437 14.3556 89.1145 14.5055C93.2565 14.8951 96.6482 16.6933 99.2895 19.9001C101.931 23.1069 103.041 26.7932 102.651 30.9591C102.261 35.1249 100.49 38.5715 97.3085 41.2088C94.1269 43.8762 91.8758 44.9851 87.3736 44.6854C86.8933 44.6554 86.0529 44.4756 85.5727 44.3857L88.274 41.6884C91.0654 41.6584 93.2565 40.7893 95.3876 38.9911Z" fill=""/>
<path d="M98.3595 28.3816H88.6946H85.7532L88.6946 31.3486H98.2394C98.2994 30.959 98.2994 30.8691 98.3294 30.6593C98.3895 29.8801 98.3895 29.1308 98.3595 28.3816Z" fill=""/>
</svg>
