<svg width="215" height="80" viewBox="0 0 215 80" fill="none" xmlns="http://www.w3.org/2000/svg">
<path d="M42.4609 34.5657C42.4609 36.1241 43.7416 37.4029 45.3024 37.4029C46.8631 37.4029 48.1438 36.1241 48.1438 34.5657C48.1438 33.0072 46.8631 31.7285 45.3024 31.7285C43.7416 31.7685 42.4609 33.0072 42.4609 34.5657Z" fill="white"/>
<path d="M1.48099 33.6466C1.88119 33.6466 2.20135 33.4068 2.32141 33.0871C2.80165 33.0472 3.16182 32.6476 3.16182 32.168C3.16182 31.6485 2.7216 31.209 2.20135 31.209C1.80115 31.209 1.48099 31.4487 1.36093 31.7684C0.880687 31.8084 0.520508 32.208 0.520508 32.6875C0.560528 33.207 0.960728 33.6466 1.48099 33.6466Z" fill="white"/>
<path d="M1.92096 39.5205V39.4806C2.08104 39.6404 2.32116 39.7203 2.56128 39.7203C3.08154 39.7203 3.52176 39.2808 3.52176 38.7613C3.52176 38.2418 3.08154 37.8022 2.56128 37.8022C2.04102 37.8022 1.6008 38.2418 1.6008 38.7613V38.8012C1.44072 38.6414 1.2006 38.5615 0.96048 38.5615C0.44022 38.5615 0 39.001 0 39.5205C0 40.04 0.44022 40.4796 0.96048 40.4796C1.48074 40.4796 1.92096 40.04 1.92096 39.5205Z" fill="white"/>
<path d="M4.28226 32.8873C4.81272 32.8873 5.24274 32.4579 5.24274 31.9283C5.24274 31.3986 4.81272 30.9692 4.28226 30.9692C3.7518 30.9692 3.32178 31.3986 3.32178 31.9283C3.32178 32.4579 3.7518 32.8873 4.28226 32.8873Z" fill="white"/>
<path d="M6.68317 37.1636C6.68317 36.6441 6.24295 36.2046 5.72269 36.2046C5.20243 36.2046 4.76221 36.6441 4.76221 37.1636C4.76221 37.6831 5.20243 38.1227 5.72269 38.1227C6.24295 38.0827 6.68317 37.6831 6.68317 37.1636Z" fill="white"/>
<path d="M3.16229 46.1539C3.16229 45.6344 2.72207 45.1948 2.20181 45.1948C1.68155 45.1948 1.24134 45.6344 1.24134 46.1539C1.24134 46.1938 1.24134 46.2338 1.24134 46.2737C0.801117 46.3537 0.480957 46.7533 0.480957 47.1928C0.480957 47.7123 0.921177 48.1519 1.44144 48.1519C1.9617 48.1519 2.40191 47.7123 2.40191 47.1928C2.40191 47.1529 2.40191 47.1129 2.40191 47.073C2.84213 46.993 3.16229 46.6334 3.16229 46.1539Z" fill="white"/>
<path d="M7.64355 43.1974C7.64355 43.8368 8.16381 44.3563 8.80413 44.3563C9.44445 44.3563 9.96471 43.8368 9.96471 43.1974C9.96471 42.5581 9.44445 42.0386 8.80413 42.0386C8.16381 42.0785 7.64355 42.5581 7.64355 43.1974Z" fill="white"/>
<path d="M4.60257 45.7946C5.13302 45.7946 5.56305 45.3652 5.56305 44.8355C5.56305 44.3058 5.13302 43.8765 4.60257 43.8765C4.07211 43.8765 3.64209 44.3058 3.64209 44.8355C3.64209 45.3652 4.07211 45.7946 4.60257 45.7946Z" fill="white"/>
<path d="M4.36236 53.2268C4.52244 53.4266 4.76256 53.5465 5.0427 53.5465C5.56296 53.5465 6.00318 53.1069 6.00318 52.5875C6.00318 52.068 5.56296 51.6284 5.0427 51.6284C4.52244 51.6284 4.08222 52.068 4.08222 52.5875C3.92214 52.3877 3.68202 52.2678 3.40188 52.2678C2.88162 52.2678 2.44141 52.7073 2.44141 53.2268C2.44141 53.4666 2.52145 53.6664 2.64151 53.8262C2.60149 53.9461 2.56146 54.066 2.56146 54.1859C2.56146 54.7054 3.00168 55.1449 3.52194 55.1449C4.0422 55.1449 4.48242 54.7054 4.48242 54.1859C4.48242 53.9461 4.40238 53.7463 4.28232 53.5865C4.36236 53.4666 4.36236 53.3467 4.36236 53.2268Z" fill="white"/>
<path d="M13.5268 50.6297C14.1678 50.6297 14.6874 50.1109 14.6874 49.4709C14.6874 48.8308 14.1678 48.312 13.5268 48.312C12.8858 48.312 12.3662 48.8308 12.3662 49.4709C12.3662 50.1109 12.8858 50.6297 13.5268 50.6297Z" fill="white"/>
<path d="M8.48441 52.2677C9.00467 52.2677 9.44489 51.8281 9.44489 51.3087C9.44489 50.7892 9.00467 50.3496 8.48441 50.3496C7.96415 50.3496 7.52393 50.7892 7.52393 51.3087C7.56395 51.8281 7.96415 52.2677 8.48441 52.2677Z" fill="white"/>
<path d="M19.2099 56.2239C19.8509 56.2239 20.3705 55.7051 20.3705 55.0651C20.3705 54.4251 19.8509 53.9062 19.2099 53.9062C18.5689 53.9062 18.0493 54.4251 18.0493 55.0651C18.0493 55.7051 18.5689 56.2239 19.2099 56.2239Z" fill="white"/>
<path d="M13.9268 58.2618C14.4572 58.2618 14.8873 57.8325 14.8873 57.3028C14.8873 56.7731 14.4572 56.3438 13.9268 56.3438C13.3963 56.3438 12.9663 56.7731 12.9663 57.3028C12.9663 57.8325 13.3963 58.2618 13.9268 58.2618Z" fill="white"/>
<path d="M9.68509 59.7404C10.2053 59.7404 10.6456 59.3008 10.6456 58.7813C10.6456 58.2618 10.2053 57.8223 9.68509 57.8223C9.16483 57.8223 8.72461 58.2618 8.72461 58.7813C8.76463 59.3408 9.16483 59.7404 9.68509 59.7404Z" fill="white"/>
<path d="M7.04391 58.4621C6.88383 58.4621 6.72375 58.5021 6.56367 58.582C6.40359 58.4221 6.16347 58.3022 5.88333 58.3022C5.36307 58.3022 4.92285 58.7418 4.92285 59.2613C4.92285 59.7808 5.36307 60.2203 5.88333 60.2203C6.04341 60.2203 6.20349 60.1804 6.36357 60.1005C6.52365 60.2603 6.76377 60.3802 7.04391 60.3802C7.56417 60.3802 8.00439 59.9406 8.00439 59.4211C7.96437 58.9016 7.56417 58.4621 7.04391 58.4621Z" fill="white"/>
<path d="M7.9639 31.3688C8.48416 31.3688 8.92438 30.9292 8.92438 30.4097C8.92438 29.8902 8.48416 29.4507 7.9639 29.4507C7.44364 29.4507 7.00342 29.8902 7.00342 30.4097C7.00342 30.9292 7.44364 31.3688 7.9639 31.3688Z" fill="white"/>
<path d="M7.76422 26.2144C7.76422 25.6949 7.324 25.2554 6.80374 25.2554C6.28348 25.2554 5.84326 25.6949 5.84326 26.2144C5.84326 26.7339 6.28348 27.1735 6.80374 27.1735C7.324 27.1735 7.76422 26.7339 7.76422 26.2144Z" fill="white"/>
<path d="M10.4052 36.7635C11.0462 36.7635 11.5658 36.2447 11.5658 35.6046C11.5658 34.9646 11.0462 34.4458 10.4052 34.4458C9.76424 34.4458 9.24463 34.9646 9.24463 35.6046C9.24463 36.2447 9.76424 36.7635 10.4052 36.7635Z" fill="white"/>
<path d="M13.8871 27.7726C13.8871 27.1333 13.3668 26.6138 12.7265 26.6138C12.0862 26.6138 11.5659 27.1333 11.5659 27.7726C11.5659 28.412 12.0862 28.9315 12.7265 28.9315C13.3668 28.9315 13.8871 28.412 13.8871 27.7726Z" fill="white"/>
<path d="M14.2874 42.8379C15.0389 42.8379 15.6481 42.2296 15.6481 41.4793C15.6481 40.7289 15.0389 40.1206 14.2874 40.1206C13.536 40.1206 12.9268 40.7289 12.9268 41.4793C12.9268 42.2296 13.536 42.8379 14.2874 42.8379Z" fill="white"/>
<path d="M19.2894 26.6533C20.0498 26.6533 20.6501 26.0539 20.6501 25.2947C20.6501 24.5354 20.0498 23.936 19.2894 23.936C18.529 23.936 17.9287 24.5354 17.9287 25.2947C17.9287 26.0539 18.569 26.6533 19.2894 26.6533Z" fill="white"/>
<path d="M16.2083 34.7656C16.9598 34.7656 17.569 34.1573 17.569 33.407C17.569 32.6566 16.9598 32.0483 16.2083 32.0483C15.4569 32.0483 14.8477 32.6566 14.8477 33.407C14.8477 34.1573 15.4569 34.7656 16.2083 34.7656Z" fill="white"/>
<path d="M19.2894 48.7114C20.0409 48.7114 20.6501 48.1031 20.6501 47.3528C20.6501 46.6024 20.0409 45.9941 19.2894 45.9941C18.5379 45.9941 17.9287 46.6024 17.9287 47.3528C17.9287 48.1031 18.5379 48.7114 19.2894 48.7114Z" fill="white"/>
<path d="M25.4131 23.3769C25.4131 24.3759 26.2135 25.1351 27.174 25.1351C28.1344 25.1351 28.9348 24.3359 28.9348 23.3769C28.9348 22.3779 28.1344 21.6187 27.174 21.6187C26.2135 21.6187 25.4131 22.3779 25.4131 23.3769Z" fill="white"/>
<path d="M23.692 33.0868C24.6645 33.0868 25.4529 32.2996 25.4529 31.3286C25.4529 30.3575 24.6645 29.5703 23.692 29.5703C22.7195 29.5703 21.9312 30.3575 21.9312 31.3286C21.9312 32.2996 22.7195 33.0868 23.692 33.0868Z" fill="white"/>
<path d="M22.7312 39.6806C22.7312 38.6816 21.9308 37.9224 20.9704 37.9224C19.9699 37.9224 19.2095 38.7216 19.2095 39.6806C19.2095 40.6397 20.0099 41.4389 20.9704 41.4389C21.9308 41.4788 22.7312 40.6796 22.7312 39.6806Z" fill="white"/>
<path d="M24.6922 53.8662C25.4437 53.8662 26.0529 53.2579 26.0529 52.5076C26.0529 51.7572 25.4437 51.1489 24.6922 51.1489C23.9407 51.1489 23.3315 51.7572 23.3315 52.5076C23.3315 53.2579 23.9407 53.8662 24.6922 53.8662Z" fill="white"/>
<path d="M35.378 24.2558C36.4585 24.2558 37.379 23.3767 37.379 22.2578C37.379 21.1788 36.4985 20.2598 35.378 20.2598C34.2974 20.2598 33.377 21.1389 33.377 22.2578C33.377 23.3767 34.2574 24.2558 35.378 24.2558Z" fill="white"/>
<path d="M32.0156 31.6088C33.1208 31.6088 34.0166 30.7143 34.0166 29.6108C34.0166 28.5073 33.1208 27.6128 32.0156 27.6128C30.9105 27.6128 30.0146 28.5073 30.0146 29.6108C30.0146 30.7143 30.9105 31.6088 32.0156 31.6088Z" fill="white"/>
<path d="M28.8941 39.8002C29.9992 39.8002 30.8951 38.9057 30.8951 37.8022C30.8951 36.6987 29.9992 35.8042 28.8941 35.8042C27.7889 35.8042 26.8931 36.6987 26.8931 37.8022C26.8931 38.9057 27.7889 39.8002 28.8941 39.8002Z" fill="white"/>
<path d="M26.4137 47.5126C27.4142 47.5126 28.1746 46.7134 28.1746 45.7543C28.1746 44.7553 27.3742 43.9961 26.4137 43.9961C25.4532 43.9961 24.6528 44.7953 24.6528 45.7543C24.6128 46.7134 25.4132 47.5126 26.4137 47.5126Z" fill="white"/>
<path d="M10.6851 24.256C11.2155 24.256 11.6456 23.8266 11.6456 23.2969C11.6456 22.7673 11.2155 22.3379 10.6851 22.3379C10.1546 22.3379 9.72461 22.7673 9.72461 23.2969C9.72461 23.8266 10.1546 24.256 10.6851 24.256Z" fill="white"/>
<path d="M16.2079 21.659C16.8489 21.659 17.3685 21.1402 17.3685 20.5002C17.3685 19.8601 16.8489 19.3413 16.2079 19.3413C15.567 19.3413 15.0474 19.8601 15.0474 20.5002C15.0474 21.1402 15.567 21.659 16.2079 21.659Z" fill="white"/>
<path d="M13.4468 18.0221C13.9773 18.0221 14.4073 17.5927 14.4073 17.063C14.4073 16.5334 13.9773 16.104 13.4468 16.104C12.9163 16.104 12.4863 16.5334 12.4863 17.063C12.4863 17.5927 12.9163 18.0221 13.4468 18.0221Z" fill="white"/>
<path d="M23.2113 19.5806C23.9627 19.5806 24.5719 18.9723 24.5719 18.2219C24.5719 17.4716 23.9627 16.8633 23.2113 16.8633C22.4598 16.8633 21.8506 17.4716 21.8506 18.2219C21.8506 18.9723 22.4598 19.5806 23.2113 19.5806Z" fill="white"/>
<path d="M16.6489 10.9888C16.6489 11.5083 17.0891 11.9479 17.6094 11.9479C18.1297 11.9479 18.5699 11.5083 18.5699 10.9888C18.5699 10.4693 18.1297 10.0298 17.6094 10.0298C17.0491 10.0298 16.6489 10.4693 16.6489 10.9888Z" fill="white"/>
<path d="M19.9701 15.2254C20.6105 15.2254 21.1307 14.7059 21.1307 14.0666C21.1307 13.4272 20.6105 12.9077 19.9701 12.9077C19.3298 12.9077 18.8096 13.4272 18.8096 14.0666C18.8096 14.7059 19.3298 15.2254 19.9701 15.2254Z" fill="white"/>
<path d="M30.9357 18.6215C31.9362 18.6215 32.6966 17.8223 32.6966 16.8632C32.6966 15.8642 31.8962 15.105 30.9357 15.105C29.9752 15.105 29.1748 15.9042 29.1748 16.8632C29.1748 17.8223 29.9752 18.6215 30.9357 18.6215Z" fill="white"/>
<path d="M21.7305 6.39318C21.8105 6.39318 21.9306 6.39319 22.0106 6.35323C22.1307 6.71287 22.4909 6.99259 22.8911 6.99259C23.4113 6.99259 23.8516 6.55302 23.8516 6.03354C23.8516 5.51406 23.4113 5.0745 22.8911 5.0745C22.811 5.0745 22.691 5.0745 22.6109 5.11446C22.4909 4.75482 22.1307 4.4751 21.7305 4.4751C21.2102 4.4751 20.77 4.91466 20.77 5.43414C20.81 5.95362 21.2102 6.39318 21.7305 6.39318Z" fill="white"/>
<path d="M27.3736 4.03529C27.6937 4.03529 27.9739 3.87545 28.1339 3.63569C28.294 3.75557 28.4541 3.79553 28.6542 3.79553C29.1745 3.79553 29.6147 3.35597 29.6147 2.83648C29.6147 2.317 29.1745 1.87744 28.6542 1.87744C28.334 1.87744 28.0539 2.03728 27.8938 2.27704C27.7337 2.15716 27.5737 2.1172 27.3736 2.1172C26.8533 2.1172 26.4131 2.55676 26.4131 3.07625C26.4531 3.59573 26.8533 4.03529 27.3736 4.03529Z" fill="white"/>
<path d="M24.9731 9.43048C25.6134 9.43048 26.1337 8.911 26.1337 8.27164C26.1337 7.63227 25.6134 7.11279 24.9731 7.11279C24.3328 7.11279 23.8125 7.63227 23.8125 8.27164C23.8125 8.911 24.3328 9.43048 24.9731 9.43048Z" fill="white"/>
<path d="M27.8138 13.4668C28.5653 13.4668 29.1745 12.8585 29.1745 12.1082C29.1745 11.3578 28.5653 10.7495 27.8138 10.7495C27.0623 10.7495 26.4531 11.3578 26.4531 12.1082C26.4531 12.8585 27.0623 13.4668 27.8138 13.4668Z" fill="white"/>
<path d="M38.4596 18.2221C39.4321 18.2221 40.2205 17.4349 40.2205 16.4638C40.2205 15.4928 39.4321 14.7056 38.4596 14.7056C37.4871 14.7056 36.6987 15.4928 36.6987 16.4638C36.6987 17.4349 37.4871 18.2221 38.4596 18.2221Z" fill="white"/>
<path d="M34.1367 2.31701C34.657 2.31701 35.0972 1.87745 35.0972 1.35797C35.0972 0.838488 34.657 0.398926 34.1367 0.398926C33.6165 0.398926 33.1763 0.838488 33.1763 1.35797C33.2163 1.87745 33.6165 2.31701 34.1367 2.31701Z" fill="white"/>
<path d="M30.6548 5.03527C31.1751 5.03527 31.6153 4.59571 31.6153 4.07623C31.6153 3.55675 31.1751 3.11719 30.6548 3.11719C30.1346 3.11719 29.6943 3.55675 29.6943 4.07623C29.6943 4.59571 30.1346 5.03527 30.6548 5.03527Z" fill="white"/>
<path d="M33.1367 8.23175C33.7776 8.23175 34.2972 7.71292 34.2972 7.0729C34.2972 6.43289 33.7776 5.91406 33.1367 5.91406C32.4957 5.91406 31.9761 6.43289 31.9761 7.0729C31.9761 7.71292 32.4957 8.23175 33.1367 8.23175Z" fill="white"/>
<path d="M35.8978 12.8672C36.6493 12.8672 37.2585 12.2589 37.2585 11.5085C37.2585 10.7582 36.6493 10.1499 35.8978 10.1499C35.1463 10.1499 34.5371 10.7582 34.5371 11.5085C34.5371 12.2589 35.1463 12.8672 35.8978 12.8672Z" fill="white"/>
<path d="M3.48196 26.8531C3.72208 26.8531 3.9622 26.7731 4.12228 26.6133C4.28236 26.7332 4.48246 26.8131 4.68256 26.8131C5.20282 26.8131 5.64304 26.3735 5.64304 25.8541C5.64304 25.3346 5.20282 24.895 4.68256 24.895C4.44244 24.895 4.20232 24.9749 4.04224 25.1348C3.88216 25.0149 3.68206 24.935 3.48196 24.935C2.9617 24.935 2.52148 25.3745 2.52148 25.894C2.52148 26.4135 2.9617 26.8531 3.48196 26.8531Z" fill="white"/>
<path d="M6.36331 20.9398C6.52339 20.9398 6.68347 20.8999 6.80353 20.8199C6.84355 20.8199 6.88357 20.8199 6.92359 20.8199C7.24375 20.8199 7.52389 20.6601 7.68397 20.4203C7.68397 20.4603 7.68397 20.5003 7.68397 20.5003C7.68397 21.0197 8.12419 21.4593 8.64445 21.4593C9.16471 21.4593 9.60493 21.0197 9.60493 20.5003C9.60493 19.9808 9.16471 19.5412 8.64445 19.5412C8.32429 19.5412 8.04415 19.7011 7.88407 19.9408C7.88407 19.9009 7.88407 19.8609 7.88407 19.8609C7.88407 19.3414 7.44385 18.9019 6.92359 18.9019C6.76351 18.9019 6.60343 18.9418 6.48337 19.0217C6.44335 19.0217 6.40333 19.0217 6.36331 19.0217C5.84305 19.0217 5.40283 19.4613 5.40283 19.9808C5.40283 20.5003 5.84305 20.9398 6.36331 20.9398Z" fill="white"/>
<path d="M15.4876 9.87014C15.6477 10.1499 15.9678 10.3097 16.288 10.3097C16.8083 10.3097 17.2485 9.87014 17.2485 9.35066C17.2485 9.03098 17.0884 8.75126 16.8483 8.59142C16.6882 8.3117 16.368 8.15186 16.0479 8.15186C15.5276 8.15186 15.0874 8.59142 15.0874 9.1109C15.0874 9.43058 15.2475 9.7103 15.4876 9.87014Z" fill="white"/>
<path d="M10.7657 14.9454C10.8057 14.9454 10.8457 14.9454 10.8857 14.9454C11.0058 15.345 11.366 15.5848 11.7662 15.5848C12.2864 15.5848 12.7266 15.1452 12.7266 14.6257C12.7266 14.1063 12.2864 13.6667 11.7662 13.6667C11.7261 13.6667 11.6861 13.6667 11.6461 13.6667C11.526 13.2671 11.1659 13.0273 10.7657 13.0273C10.2454 13.0273 9.80518 13.4669 9.80518 13.9864C9.80518 14.5059 10.2454 14.9454 10.7657 14.9454Z" fill="white"/>
<path d="M71.356 59.0211C71.8864 59.0211 72.3165 58.5917 72.3165 58.0621C72.3165 57.5324 71.8864 57.103 71.356 57.103C70.8255 57.103 70.3955 57.5324 70.3955 58.0621C70.3955 58.5917 70.8255 59.0211 71.356 59.0211Z" fill="white"/>
<path d="M73.0762 58.5815C72.5559 58.5815 72.1157 59.0211 72.1157 59.5406C72.1157 59.7803 72.2358 60.0201 72.3959 60.1799C72.3959 60.6994 72.8361 61.099 73.3563 61.099C73.8766 61.099 74.3168 60.6595 74.3168 60.14C74.3168 59.9002 74.1968 59.6605 74.0367 59.5006C73.9967 58.9811 73.5965 58.5815 73.0762 58.5815Z" fill="white"/>
<path d="M69.0342 64.9757C68.9942 64.9757 68.9542 64.9757 68.9542 64.9757C68.9942 64.8957 68.9942 64.8158 68.9942 64.7359C68.9942 64.2164 68.554 63.7769 68.0337 63.7769C67.5135 63.7769 67.0732 64.2164 67.0732 64.7359C67.0732 65.2554 67.5135 65.6949 68.0337 65.6949C68.0737 65.6949 68.1138 65.6949 68.1138 65.6949C68.0737 65.7749 68.0737 65.8548 68.0737 65.9347C68.0737 66.4542 68.514 66.8937 69.0342 66.8937C69.5545 66.8937 69.9947 66.4542 69.9947 65.9347C69.9947 65.3753 69.5545 64.9757 69.0342 64.9757Z" fill="white"/>
<path d="M64.232 70.25C64.112 69.8504 63.7518 69.5308 63.3116 69.5308C62.7913 69.5308 62.3511 69.9703 62.3511 70.4898C62.3511 70.8095 62.5112 71.0892 62.7513 71.249C62.8713 71.6487 63.2315 71.9683 63.6717 71.9683C64.192 71.9683 64.6322 71.5288 64.6322 71.0093C64.6322 70.6896 64.4721 70.4099 64.232 70.25Z" fill="white"/>
<path d="M57.9493 73.6866C57.9893 73.6067 57.9893 73.5268 57.9893 73.4468C57.9893 72.9274 57.5491 72.4878 57.0288 72.4878C56.5086 72.4878 56.0684 72.9274 56.0684 73.4468C56.0684 73.9264 56.4285 74.326 56.8688 74.3659C56.8287 74.4458 56.8287 74.5258 56.8287 74.6057C56.8287 75.1252 57.269 75.5647 57.7892 75.5647C58.3095 75.5647 58.7497 75.1252 58.7497 74.6057C58.7497 74.1661 58.3895 73.7665 57.9493 73.6866Z" fill="white"/>
<path d="M52.7863 76.2045C52.6262 75.8849 52.306 75.6851 51.9458 75.6851C51.4256 75.6851 50.9854 76.1246 50.9854 76.6441C50.9854 77.0037 51.1854 77.3234 51.5056 77.4833C51.6657 77.8029 51.9858 78.0027 52.346 78.0027C52.8663 78.0027 53.3065 77.5632 53.3065 77.0437C53.3065 76.6841 53.1064 76.3644 52.7863 76.2045Z" fill="white"/>
<path d="M29.8548 57.9824C30.6152 57.9824 31.2155 57.383 31.2155 56.6238C31.2155 55.8645 30.6152 55.2651 29.8548 55.2651C29.0944 55.2651 28.4941 55.8645 28.4941 56.6238C28.4941 57.383 29.1345 57.9824 29.8548 57.9824Z" fill="white"/>
<path d="M39.5399 64.0566C40.2914 64.0566 40.9006 63.4484 40.9006 62.698C40.9006 61.9476 40.2914 61.3394 39.5399 61.3394C38.7884 61.3394 38.1792 61.9476 38.1792 62.698C38.1792 63.4484 38.7884 64.0566 39.5399 64.0566Z" fill="white"/>
<path d="M49.2253 62.3777C49.2253 61.6184 48.625 61.019 47.8646 61.019C47.1042 61.019 46.5039 61.6184 46.5039 62.3777C46.5039 63.1369 47.1042 63.7363 47.8646 63.7363C48.5849 63.7363 49.2253 63.1369 49.2253 62.3777Z" fill="white"/>
<path d="M43.1011 69.2516C43.6316 69.2516 44.0616 68.8222 44.0616 68.2925C44.0616 67.7629 43.6316 67.3335 43.1011 67.3335C42.5706 67.3335 42.1406 67.7629 42.1406 68.2925C42.1406 68.8222 42.5706 69.2516 43.1011 69.2516Z" fill="white"/>
<path d="M68.6743 57.2235C69.3152 57.2235 69.8348 56.7046 69.8348 56.0646C69.8348 55.4246 69.3152 54.9058 68.6743 54.9058C68.0333 54.9058 67.5137 55.4246 67.5137 56.0646C67.5137 56.7046 68.0333 57.2235 68.6743 57.2235Z" fill="white"/>
<path d="M56.1077 59.6206C55.3474 59.6206 54.7471 60.22 54.7471 60.9793C54.7471 61.7385 55.3474 62.3379 56.1077 62.3379C56.8681 62.3379 57.4684 61.7385 57.4684 60.9793C57.4684 60.22 56.8681 59.6206 56.1077 59.6206Z" fill="white"/>
<path d="M65.9126 63.5367C66.4431 63.5367 66.8731 63.1074 66.8731 62.5777C66.8731 62.048 66.4431 61.6187 65.9126 61.6187C65.3822 61.6187 64.9521 62.048 64.9521 62.5777C64.9521 63.1074 65.3822 63.5367 65.9126 63.5367Z" fill="white"/>
<path d="M63.2319 59.9002C63.8728 59.9002 64.3924 59.3814 64.3924 58.7414C64.3924 58.1013 63.8728 57.5825 63.2319 57.5825C62.5909 57.5825 62.0713 58.1013 62.0713 58.7414C62.0713 59.3814 62.5909 59.9002 63.2319 59.9002Z" fill="white"/>
<path d="M51.6259 68.7313C52.2669 68.7313 52.7865 68.2124 52.7865 67.5724C52.7865 66.9324 52.2669 66.4136 51.6259 66.4136C50.9849 66.4136 50.4653 66.9324 50.4653 67.5724C50.4653 68.2124 50.9849 68.7313 51.6259 68.7313Z" fill="white"/>
<path d="M62.8716 68.6114C62.8716 68.0919 62.4314 67.6523 61.9112 67.6523C61.3909 67.6523 60.9507 68.0919 60.9507 68.6114C60.9507 69.1309 61.3909 69.5704 61.9112 69.5704C62.4314 69.5704 62.8716 69.1309 62.8716 68.6114Z" fill="white"/>
<path d="M59.5497 64.3359C58.9094 64.3359 58.3892 64.8554 58.3892 65.4948C58.3892 66.1341 58.9094 66.6536 59.5497 66.6536C60.1901 66.6536 60.7103 66.1341 60.7103 65.4948C60.7103 64.8554 60.1901 64.3359 59.5497 64.3359Z" fill="white"/>
<path d="M46.6231 73.6871C47.1535 73.6871 47.5836 73.2577 47.5836 72.7281C47.5836 72.1984 47.1535 71.769 46.6231 71.769C46.0926 71.769 45.6626 72.1984 45.6626 72.7281C45.6626 73.2577 46.0926 73.6871 46.6231 73.6871Z" fill="white"/>
<path d="M54.8277 72.2877C55.3581 72.2877 55.7881 71.8583 55.7881 71.3287C55.7881 70.799 55.3581 70.3696 54.8277 70.3696C54.2972 70.3696 53.8672 70.799 53.8672 71.3287C53.8672 71.8583 54.2972 72.2877 54.8277 72.2877Z" fill="white"/>
<path d="M49.6646 76.4435C50.195 76.4435 50.6251 76.0141 50.6251 75.4844C50.6251 74.9548 50.195 74.5254 49.6646 74.5254C49.1341 74.5254 48.7041 74.9548 48.7041 75.4844C48.7041 76.0141 49.1341 76.4435 49.6646 76.4435Z" fill="white"/>
<path d="M31.7355 52.6674C32.736 52.6674 33.4964 51.8682 33.4964 50.9091C33.4964 49.9501 32.696 49.1509 31.7355 49.1509C30.775 49.1509 29.9746 49.9501 29.9746 50.9091C29.9746 51.8682 30.735 52.6674 31.7355 52.6674Z" fill="white"/>
<path d="M38.1389 56.9033C38.1389 55.9043 37.3385 55.145 36.3781 55.145C35.3776 55.145 34.6172 55.9442 34.6172 56.9033C34.6172 57.9023 35.4176 58.6615 36.3781 58.6615C37.3385 58.6615 38.1389 57.8623 38.1389 56.9033Z" fill="white"/>
<path d="M36.1382 43.8764C36.1382 42.7975 35.2578 41.8784 34.1372 41.8784C33.0567 41.8784 32.1362 42.7575 32.1362 43.8764C32.1362 44.9553 33.0167 45.8744 34.1372 45.8744C35.2578 45.8345 36.1382 44.9553 36.1382 43.8764Z" fill="white"/>
<path d="M43.9821 58.3817C44.9546 58.3817 45.7429 57.5945 45.7429 56.6235C45.7429 55.6524 44.9546 54.8652 43.9821 54.8652C43.0096 54.8652 42.2212 55.6524 42.2212 56.6235C42.2212 57.5945 43.0096 58.3817 43.9821 58.3817Z" fill="white"/>
<path d="M39.4196 36.0846C39.4196 34.7659 38.339 33.687 37.0184 33.687C35.6977 33.687 34.6172 34.7659 34.6172 36.0846C34.6172 37.4033 35.6977 38.4822 37.0184 38.4822C38.339 38.4822 39.4196 37.4433 39.4196 36.0846Z" fill="white"/>
<path d="M39.0601 52.4682C40.1406 52.4682 41.0611 51.5891 41.0611 50.4702C41.0611 49.3913 40.1806 48.4722 39.0601 48.4722C37.9795 48.4722 37.0591 49.3513 37.0591 50.4702C37.0591 51.5891 37.9795 52.4682 39.0601 52.4682Z" fill="white"/>
<path d="M52.0661 57.4227C53.0386 57.4227 53.8269 56.6356 53.8269 55.6645C53.8269 54.6934 53.0386 53.9062 52.0661 53.9062C51.0936 53.9062 50.3052 54.6934 50.3052 55.6645C50.3052 56.6356 51.0936 57.4227 52.0661 57.4227Z" fill="white"/>
<path d="M37.6191 28.4918C37.6191 29.8105 38.6997 30.8895 40.0203 30.8895C41.341 30.8895 42.4215 29.8105 42.4215 28.4918C42.4215 27.1732 41.341 26.0942 40.0203 26.0942C38.6997 26.0942 37.6191 27.1732 37.6191 28.4918Z" fill="white"/>
<path d="M44.5817 42.7575C44.5817 41.4388 43.5012 40.3599 42.1805 40.3599C40.8598 40.3599 39.7793 41.4388 39.7793 42.7575C39.7793 44.0762 40.8598 45.1551 42.1805 45.1551C43.5012 45.1551 44.5817 44.0762 44.5817 42.7575Z" fill="white"/>
<path d="M47.4239 51.5893C48.529 51.5893 49.4248 50.6947 49.4248 49.5913C49.4248 48.4878 48.529 47.5933 47.4239 47.5933C46.3187 47.5933 45.4229 48.4878 45.4229 49.5913C45.4229 50.6947 46.3187 51.5893 47.4239 51.5893Z" fill="white"/>
<path d="M59.5496 55.3848C60.3011 55.3848 60.9103 54.7765 60.9103 54.0261C60.9103 53.2758 60.3011 52.6675 59.5496 52.6675C58.7982 52.6675 58.189 53.2758 58.189 54.0261C58.189 54.7765 58.7982 55.3848 59.5496 55.3848Z" fill="white"/>
<path d="M42.7813 19.98C41.7007 19.98 40.7803 20.8591 40.7803 21.978C40.7803 23.0569 41.6607 23.976 42.7813 23.976C43.9018 23.976 44.7823 23.0969 44.7823 21.978C44.7823 20.8591 43.8618 19.98 42.7813 19.98Z" fill="white"/>
<path d="M56.0675 33.2467C56.0675 31.928 54.987 30.8491 53.6663 30.8491C52.3457 30.8491 51.2651 31.928 51.2651 33.2467C51.2651 34.5654 52.3457 35.6443 53.6663 35.6443C54.987 35.6443 56.0675 34.5654 56.0675 33.2467Z" fill="white"/>
<path d="M53.1867 41.4386C53.1867 40.1199 52.1061 39.041 50.7855 39.041C49.4648 39.041 48.3843 40.1199 48.3843 41.4386C48.3843 42.7573 49.4648 43.8362 50.7855 43.8362C52.1061 43.8362 53.1867 42.7573 53.1867 41.4386Z" fill="white"/>
<path d="M55.7476 50.2299C56.8527 50.2299 57.7486 49.3354 57.7486 48.2319C57.7486 47.1284 56.8527 46.2339 55.7476 46.2339C54.6425 46.2339 53.7466 47.1284 53.7466 48.2319C53.7466 49.3354 54.6425 50.2299 55.7476 50.2299Z" fill="white"/>
<path d="M65.6727 53.3867C66.4242 53.3867 67.0334 52.7784 67.0334 52.0281C67.0334 51.2777 66.4242 50.6694 65.6727 50.6694C64.9212 50.6694 64.312 51.2777 64.312 52.0281C64.312 52.7784 64.9212 53.3867 65.6727 53.3867Z" fill="white"/>
<path d="M45.0626 18.6215C46.0351 18.6215 46.8235 17.8343 46.8235 16.8632C46.8235 15.8922 46.0351 15.105 45.0626 15.105C44.0901 15.105 43.3018 15.8922 43.3018 16.8632C43.3018 17.8343 44.0901 18.6215 45.0626 18.6215Z" fill="white"/>
<path d="M45.6226 27.0134C45.6226 28.3321 46.7031 29.411 48.0238 29.411C49.3444 29.411 50.425 28.3321 50.425 27.0134C50.425 25.6947 49.3444 24.6158 48.0238 24.6158C46.7031 24.5759 45.6226 25.6548 45.6226 27.0134Z" fill="white"/>
<path d="M58.8692 42.078C59.9743 42.078 60.8702 41.1835 60.8702 40.08C60.8702 38.9766 59.9743 38.082 58.8692 38.082C57.764 38.082 56.8682 38.9766 56.8682 40.08C56.8682 41.1835 57.764 42.078 58.8692 42.078Z" fill="white"/>
<path d="M62.9508 44.7954C61.9503 44.7954 61.1899 45.5946 61.1899 46.5537C61.1899 47.5127 61.9903 48.3119 62.9508 48.3119C63.9113 48.3119 64.7117 47.5127 64.7117 46.5537C64.7117 45.5946 63.9113 44.7954 62.9508 44.7954Z" fill="white"/>
<path d="M71.3558 49.9503C71.3558 49.311 70.8356 48.7915 70.1953 48.7915C69.5549 48.7915 69.0347 49.311 69.0347 49.9503C69.0347 50.5897 69.5549 51.1092 70.1953 51.1092C70.8356 51.1092 71.3558 50.5897 71.3558 49.9503Z" fill="white"/>
<path d="M50.145 22.8178C51.2502 22.8178 52.146 21.9233 52.146 20.8198C52.146 19.7163 51.2502 18.8218 50.145 18.8218C49.0399 18.8218 48.144 19.7163 48.144 20.8198C48.144 21.9233 49.0399 22.8178 50.145 22.8178Z" fill="white"/>
<path d="M55.6675 28.0522C56.7726 28.0522 57.6685 27.1576 57.6685 26.0542C57.6685 24.9507 56.7726 24.0562 55.6675 24.0562C54.5624 24.0562 53.6665 24.9507 53.6665 26.0542C53.6665 27.1576 54.5624 28.0522 55.6675 28.0522Z" fill="white"/>
<path d="M57.989 19.061C57.989 18.062 57.1886 17.3027 56.2282 17.3027C55.2277 17.3027 54.4673 18.1019 54.4673 19.061C54.4673 20.06 55.2677 20.8192 56.2282 20.8192C57.1886 20.8192 57.989 20.02 57.989 19.061Z" fill="white"/>
<path d="M60.9507 34.2865C62.0558 34.2865 62.9517 33.392 62.9517 32.2885C62.9517 31.1851 62.0558 30.2905 60.9507 30.2905C59.8456 30.2905 58.9497 31.1851 58.9497 32.2885C58.9497 33.392 59.8456 34.2865 60.9507 34.2865Z" fill="white"/>
<path d="M63.672 17.9421C63.672 17.1829 63.0717 16.5835 62.3114 16.5835C61.551 16.5835 60.9507 17.1829 60.9507 17.9421C60.9507 18.7014 61.551 19.3008 62.3114 19.3008C63.0717 19.3008 63.672 18.7014 63.672 17.9421Z" fill="white"/>
<path d="M62.151 26.6532C63.1235 26.6532 63.9119 25.866 63.9119 24.895C63.9119 23.9239 63.1235 23.1367 62.151 23.1367C61.1785 23.1367 60.3901 23.9239 60.3901 24.895C60.3901 25.866 61.1785 26.6532 62.151 26.6532Z" fill="white"/>
<path d="M67.114 38.8417C67.114 37.8427 66.3136 37.0835 65.3532 37.0835C64.3927 37.0835 63.5923 37.8827 63.5923 38.8417C63.5923 39.8407 64.3927 40.6 65.3532 40.6C66.3136 40.6 67.114 39.8008 67.114 38.8417Z" fill="white"/>
<path d="M67.5942 18.9813C68.2351 18.9813 68.7548 18.4624 68.7548 17.8224C68.7548 17.1824 68.2351 16.6636 67.5942 16.6636C66.9532 16.6636 66.4336 17.1824 66.4336 17.8224C66.4336 18.4624 66.9532 18.9813 67.5942 18.9813Z" fill="white"/>
<path d="M68.1141 25.6943C68.8656 25.6943 69.4748 25.0861 69.4748 24.3357C69.4748 23.5853 68.8656 22.9771 68.1141 22.9771C67.3626 22.9771 66.7534 23.5853 66.7534 24.3357C66.7534 25.0861 67.3626 25.6943 68.1141 25.6943Z" fill="white"/>
<path d="M65.5132 31.6884C65.5132 32.6874 66.3136 33.4467 67.2741 33.4467C68.2345 33.4467 69.0349 32.6475 69.0349 31.6884C69.0349 30.6894 68.2345 29.9302 67.2741 29.9302C66.3136 29.9302 65.5132 30.6894 65.5132 31.6884Z" fill="white"/>
<path d="M68.3939 46.2344C69.1454 46.2344 69.7546 45.6261 69.7546 44.8757C69.7546 44.1254 69.1454 43.5171 68.3939 43.5171C67.6424 43.5171 67.0332 44.1254 67.0332 44.8757C67.0332 45.6261 67.6424 46.2344 68.3939 46.2344Z" fill="white"/>
<path d="M70.875 17.2633C71.3953 17.2633 71.8355 16.8237 71.8355 16.3043C71.8355 15.7848 71.3953 15.3452 70.875 15.3452C70.3548 15.3452 69.9146 15.7848 69.9146 16.3043C69.9146 16.8237 70.3548 17.2633 70.875 17.2633Z" fill="white"/>
<path d="M70.3955 18.6617C70.3955 19.1812 70.8357 19.6207 71.356 19.6207C71.8762 19.6207 72.3165 19.1812 72.3165 18.6617C72.3165 18.1422 71.8762 17.7026 71.356 17.7026C70.7957 17.7426 70.3955 18.1422 70.3955 18.6617Z" fill="white"/>
<path d="M73.4766 21.1388C74.0071 21.1388 74.4371 20.7094 74.4371 20.1797C74.4371 19.6501 74.0071 19.2207 73.4766 19.2207C72.9461 19.2207 72.5161 19.6501 72.5161 20.1797C72.5161 20.7094 72.9461 21.1388 73.4766 21.1388Z" fill="white"/>
<path d="M72.6362 25.6946C73.2771 25.6946 73.7967 25.1758 73.7967 24.5358C73.7967 23.8958 73.2771 23.377 72.6362 23.377C71.9952 23.377 71.4756 23.8958 71.4756 24.5358C71.4756 25.1758 71.9952 25.6946 72.6362 25.6946Z" fill="white"/>
<path d="M72.5164 30.0898C71.7561 30.0898 71.1558 30.6892 71.1558 31.4485C71.1558 32.2077 71.7561 32.8071 72.5164 32.8071C73.2768 32.8071 73.8771 32.2077 73.8771 31.4485C73.8771 30.6892 73.2768 30.0898 72.5164 30.0898Z" fill="white"/>
<path d="M70.9554 39.8809C71.7069 39.8809 72.3161 39.2726 72.3161 38.5222C72.3161 37.7719 71.7069 37.1636 70.9554 37.1636C70.2039 37.1636 69.5947 37.7719 69.5947 38.5222C69.5947 39.2726 70.2039 39.8809 70.9554 39.8809Z" fill="white"/>
<path d="M75.3574 26.3336C75.3975 26.3336 75.4375 26.3336 75.4375 26.3336C75.5575 26.6933 75.9177 26.973 76.3179 26.973C76.8382 26.973 77.2784 26.5334 77.2784 26.0139C77.2784 25.4945 76.8382 25.0549 76.3179 25.0549C76.2779 25.0549 76.2379 25.0549 76.2379 25.0549C76.1178 24.6952 75.7576 24.4155 75.3574 24.4155C74.8372 24.4155 74.397 24.8551 74.397 25.3746C74.397 25.8941 74.8372 26.3336 75.3574 26.3336Z" fill="white"/>
<path d="M75.9976 30.6895C75.4773 30.6895 75.0371 31.129 75.0371 31.6485C75.0371 32.168 75.4773 32.6075 75.9976 32.6075C76.5179 32.6075 76.9581 32.168 76.9581 31.6485C76.9581 31.0891 76.5179 30.6895 75.9976 30.6895Z" fill="white"/>
<path d="M76.9585 32.1285C76.9585 32.3682 77.0385 32.608 77.1986 32.7678C77.1586 32.8478 77.1586 32.9277 77.1586 33.0076C77.1586 33.5271 77.5988 33.9666 78.1191 33.9666C78.6393 33.9666 79.0795 33.5271 79.0795 33.0076C79.0795 32.7678 78.9995 32.5281 78.8394 32.3682C78.8795 32.2883 78.8794 32.2084 78.8794 32.1285C78.8794 31.609 78.4392 31.1694 77.919 31.1694C77.3987 31.2094 76.9585 31.609 76.9585 32.1285Z" fill="white"/>
<path d="M75.1572 39.4407C75.7981 39.4407 76.3177 38.9219 76.3177 38.2819C76.3177 37.6419 75.7981 37.123 75.1572 37.123C74.5162 37.123 73.9966 37.6419 73.9966 38.2819C73.9966 38.9219 74.5162 39.4407 75.1572 39.4407Z" fill="white"/>
<path d="M78.9595 38.9218C78.8794 38.9218 78.8394 38.9218 78.7594 38.9617C78.7193 38.4822 78.3191 38.1226 77.8389 38.1226C77.3186 38.1226 76.8784 38.5621 76.8784 39.0816C76.8784 39.6011 77.3186 40.0406 77.8389 40.0406C77.9189 40.0406 77.959 40.0407 78.039 40.0007C78.079 40.4802 78.4792 40.8399 78.9595 40.8399C79.4797 40.8399 79.9199 40.4003 79.9199 39.8808C79.9199 39.3613 79.4797 38.9218 78.9595 38.9218Z" fill="white"/>
<path d="M76.3975 52.8277C76.3575 52.3082 75.9173 51.8687 75.397 51.8687C74.8767 51.8687 74.4365 52.3082 74.4365 52.8277C74.4365 53.3472 74.8767 53.7867 75.397 53.7867H75.437C75.437 54.3062 75.8772 54.7458 76.3975 54.7458C76.9178 54.7458 77.358 54.3062 77.358 53.7867C77.358 53.2673 76.9178 52.8277 76.3975 52.8277Z" fill="white"/>
<path d="M78.8794 46.7535C78.8794 46.234 78.4392 45.7944 77.919 45.7944C77.3987 45.7944 76.9585 46.234 76.9585 46.7535C76.9585 46.9932 77.0385 47.193 77.1986 47.3529C77.1986 47.3928 77.1986 47.4328 77.1986 47.5127C77.1986 48.0322 77.6388 48.4718 78.1591 48.4718C78.6794 48.4718 79.1196 48.0322 79.1196 47.5127C79.1196 47.273 79.0395 47.0732 78.8794 46.9133C78.8794 46.8334 78.8794 46.7934 78.8794 46.7535Z" fill="white"/>
<path d="M73.1563 52.4279C73.6867 52.4279 74.1168 51.9985 74.1168 51.4688C74.1168 50.9391 73.6867 50.5098 73.1563 50.5098C72.6258 50.5098 72.1958 50.9391 72.1958 51.4688C72.1958 51.9985 72.6258 52.4279 73.1563 52.4279Z" fill="white"/>
<path d="M75.1172 45.7144C75.1172 46.2339 75.5574 46.6735 76.0777 46.6735C76.5979 46.6735 77.0382 46.2339 77.0382 45.7144C77.0382 45.1949 76.5979 44.7554 76.0777 44.7554C75.5174 44.7554 75.1172 45.1949 75.1172 45.7144Z" fill="white"/>
<path d="M73.0366 43.437C72.3962 43.437 71.876 43.9565 71.876 44.5959C71.876 45.2352 72.3962 45.7547 73.0366 45.7547C73.6769 45.7547 74.1971 45.2352 74.1971 44.5959C74.1971 43.9565 73.6769 43.437 73.0366 43.437Z" fill="white"/>
<path d="M47.2235 77.3629C46.8233 77.3629 46.5031 77.6027 46.3431 77.9623C46.183 77.7625 45.9829 77.6027 45.7027 77.6027C45.5827 77.2031 45.2225 76.9233 44.8223 76.9233C44.302 76.9233 43.8618 77.3629 43.8618 77.8824C43.8618 78.3619 44.222 78.7615 44.6622 78.8015C44.7823 79.2011 45.1425 79.4808 45.5427 79.4808C45.9429 79.4808 46.263 79.241 46.4231 78.8814C46.5832 79.1211 46.8633 79.281 47.1835 79.281C47.7037 79.281 48.144 78.8414 48.144 78.3219C48.144 77.8025 47.7438 77.3629 47.2235 77.3629Z" fill="white"/>
<path d="M32.2161 63.5371C32.9676 63.5371 33.5768 62.9288 33.5768 62.1785C33.5768 61.4281 32.9676 60.8198 32.2161 60.8198C31.4647 60.8198 30.8555 61.4281 30.8555 62.1785C30.8555 62.9288 31.4647 63.5371 32.2161 63.5371Z" fill="white"/>
<path d="M26.1732 59.4611C26.1732 58.8217 25.6529 58.3022 25.0126 58.3022C24.3723 58.3022 23.8521 58.8217 23.8521 59.4611C23.8521 60.1005 24.3723 60.6199 25.0126 60.6199C25.6529 60.6199 26.1732 60.1005 26.1732 59.4611Z" fill="white"/>
<path d="M35.1772 66.6133C34.5369 66.6133 34.0166 67.1328 34.0166 67.7721C34.0166 68.4115 34.5369 68.931 35.1772 68.931C35.8175 68.931 36.3378 68.4115 36.3378 67.7721C36.3378 67.1328 35.7775 66.6133 35.1772 66.6133Z" fill="white"/>
<path d="M20.0103 63.0172C20.5407 63.0172 20.9708 62.5878 20.9708 62.0582C20.9708 61.5285 20.5407 61.0991 20.0103 61.0991C19.4798 61.0991 19.0498 61.5285 19.0498 62.0582C19.0498 62.5878 19.4798 63.0172 20.0103 63.0172Z" fill="white"/>
<path d="M38.4995 73.6071C39.03 73.6071 39.46 73.1777 39.46 72.648C39.46 72.1183 39.03 71.689 38.4995 71.689C37.9691 71.689 37.5391 72.1183 37.5391 72.648C37.5391 73.1777 37.9691 73.6071 38.4995 73.6071Z" fill="white"/>
<path d="M27.3334 66.6141C27.9744 66.6141 28.494 66.0952 28.494 65.4552C28.494 64.8152 27.9744 64.2964 27.3334 64.2964C26.6925 64.2964 26.1729 64.8152 26.1729 65.4552C26.1729 66.0952 26.6925 66.6141 27.3334 66.6141Z" fill="white"/>
<path d="M15.4878 63.0171C14.9676 63.0171 14.5273 63.4567 14.5273 63.9761C14.5273 64.4956 14.9676 64.9352 15.4878 64.9352C16.0081 64.9352 16.4483 64.4956 16.4483 63.9761C16.4483 63.4167 16.0081 63.0171 15.4878 63.0171Z" fill="white"/>
<path d="M41.8604 75.125C41.3401 75.125 40.8999 75.5646 40.8999 76.084C40.8999 76.6035 41.3401 77.0431 41.8604 77.0431C42.3806 77.0431 42.8209 76.6035 42.8209 76.084C42.7808 75.5246 42.3806 75.125 41.8604 75.125Z" fill="white"/>
<path d="M30.375 72.088C30.9055 72.088 31.3355 71.6586 31.3355 71.129C31.3355 70.5993 30.9055 70.1699 30.375 70.1699C29.8446 70.1699 29.4146 70.5993 29.4146 71.129C29.4146 71.6586 29.8446 72.088 30.375 72.088Z" fill="white"/>
<path d="M22.3711 69.0509C22.9016 69.0509 23.3316 68.6215 23.3316 68.0919C23.3316 67.5622 22.9016 67.1328 22.3711 67.1328C21.8407 67.1328 21.4106 67.5622 21.4106 68.0919C21.4106 68.6215 21.8407 69.0509 22.3711 69.0509Z" fill="white"/>
<path d="M12.0464 65.775C12.5769 65.775 13.0069 65.3456 13.0069 64.816C13.0069 64.2863 12.5769 63.8569 12.0464 63.8569C11.516 63.8569 11.0859 64.2863 11.0859 64.816C11.0859 65.3456 11.516 65.775 12.0464 65.775Z" fill="white"/>
<path d="M40.9004 80.0001C41.4309 80.0001 41.8609 79.5707 41.8609 79.0411C41.8609 78.5114 41.4309 78.082 40.9004 78.082C40.37 78.082 39.9399 78.5114 39.9399 79.0411C39.9399 79.5707 40.37 80.0001 40.9004 80.0001Z" fill="white"/>
<path d="M34.0171 76.484C34.5476 76.484 34.9776 76.0546 34.9776 75.525C34.9776 74.9953 34.5476 74.5659 34.0171 74.5659C33.4867 74.5659 33.0566 74.9953 33.0566 75.525C33.0566 76.0546 33.4867 76.484 34.0171 76.484Z" fill="white"/>
<path d="M33.6172 79.5211C34.1477 79.5211 34.5777 79.0917 34.5777 78.5621C34.5777 78.0324 34.1477 77.603 33.6172 77.603C33.0868 77.603 32.6567 78.0324 32.6567 78.5621C32.6567 79.0917 33.0868 79.5211 33.6172 79.5211Z" fill="white"/>
<path d="M37.6592 79.0817C38.1897 79.0817 38.6197 78.6523 38.6197 78.1226C38.6197 77.593 38.1897 77.1636 37.6592 77.1636C37.1288 77.1636 36.6987 77.593 36.6987 78.1226C36.6987 78.6523 37.1288 79.0817 37.6592 79.0817Z" fill="white"/>
<path d="M25.6934 74.2457C26.2238 74.2457 26.6539 73.8163 26.6539 73.2867C26.6539 72.757 26.2238 72.3276 25.6934 72.3276C25.1629 72.3276 24.7329 72.757 24.7329 73.2867C24.7329 73.8163 25.1629 74.2457 25.6934 74.2457Z" fill="white"/>
<path d="M25.9727 75.5645C25.4524 75.5645 25.0122 76.004 25.0122 76.5235C25.0122 77.043 25.4524 77.4825 25.9727 77.4825C26.4929 77.4825 26.9332 77.043 26.9332 76.5235C26.9332 76.004 26.4929 75.5645 25.9727 75.5645Z" fill="white"/>
<path d="M29.6553 77.8024C30.1858 77.8024 30.6158 77.373 30.6158 76.8433C30.6158 76.3137 30.1858 75.8843 29.6553 75.8843C29.1248 75.8843 28.6948 76.3137 28.6948 76.8433C28.6948 77.373 29.1248 77.8024 29.6553 77.8024Z" fill="white"/>
<path d="M18.0894 70.4498C18.6198 70.4498 19.0499 70.0204 19.0499 69.4908C19.0499 68.9611 18.6198 68.5317 18.0894 68.5317C17.5589 68.5317 17.1289 68.9611 17.1289 69.4908C17.1289 70.0204 17.5589 70.4498 18.0894 70.4498Z" fill="white"/>
<path d="M18.9297 72.0483C18.4095 72.0483 17.9692 72.4879 17.9692 73.0074C17.9692 73.5269 18.4095 73.9664 18.9297 73.9664C19.45 73.9664 19.8902 73.5269 19.8902 73.0074C19.8902 72.4879 19.45 72.0483 18.9297 72.0483Z" fill="white"/>
<path d="M21.7305 74.8453C22.261 74.8453 22.691 74.416 22.691 73.8863C22.691 73.3566 22.261 72.9272 21.7305 72.9272C21.2 72.9272 20.77 73.3566 20.77 73.8863C20.77 74.416 21.2 74.8453 21.7305 74.8453Z" fill="white"/>
<path d="M13.2061 67.6128C12.6858 67.6128 12.2456 68.0524 12.2456 68.5718C12.2456 69.0913 12.6858 69.5309 13.2061 69.5309C13.7263 69.5309 14.1666 69.0913 14.1666 68.5718C14.1666 68.0524 13.7263 67.6128 13.2061 67.6128Z" fill="white"/>
<path d="M15.0078 68.6113C14.4876 68.6113 14.0474 69.0509 14.0474 69.5704C14.0474 70.0899 14.4876 70.5294 15.0078 70.5294C15.5281 70.5294 15.9683 70.0899 15.9683 69.5704C15.9283 69.0109 15.5281 68.6113 15.0078 68.6113Z" fill="white"/>
<path d="M9.92487 63.7362C9.84483 63.2967 9.44463 62.937 8.96439 62.937C8.44413 62.937 8.00391 63.3766 8.00391 63.8961C8.00391 64.4155 8.44413 64.8551 8.96439 64.8551C8.96439 64.8551 8.96439 64.8551 9.00441 64.8551C9.08445 65.2947 9.44463 65.6543 9.92487 65.6543C10.4451 65.6543 10.8853 65.2147 10.8853 64.6953C10.8853 64.1758 10.4451 63.7362 9.92487 63.7362Z" fill="white"/>
<path d="M36.1382 2.75647C36.6585 2.75647 37.0987 2.31691 37.0987 1.79742C37.0987 1.27794 36.6585 0.838379 36.1382 0.838379C35.618 0.838379 35.1777 1.27794 35.1777 1.79742C35.2178 2.31691 35.618 2.75647 36.1382 2.75647Z" fill="white"/>
<path d="M41.2202 1.91809C41.7405 1.91809 42.1807 1.47853 42.1807 0.959044C42.1807 0.439562 41.7405 0 41.2202 0C40.7 0 40.2598 0.439562 40.2598 0.959044C40.2598 1.51849 40.7 1.91809 41.2202 1.91809Z" fill="white"/>
<path d="M38.4995 4.75451C39.03 4.75451 39.46 4.32514 39.46 3.79547C39.46 3.2658 39.03 2.83643 38.4995 2.83643C37.9691 2.83643 37.5391 3.2658 37.5391 3.79547C37.5391 4.32514 37.9691 4.75451 38.4995 4.75451Z" fill="white"/>
<path d="M49.1446 3.07678C49.675 3.07678 50.105 2.6474 50.105 2.11773C50.105 1.58807 49.675 1.15869 49.1446 1.15869C48.6141 1.15869 48.1841 1.58807 48.1841 2.11773C48.1841 2.6474 48.6141 3.07678 49.1446 3.07678Z" fill="white"/>
<path d="M43.8223 3.07678C44.3426 3.07678 44.7828 2.63722 44.7828 2.11773C44.7828 1.59825 44.3426 1.15869 43.8223 1.15869C43.302 1.15869 42.8618 1.59825 42.8618 2.11773C42.9018 2.63722 43.302 3.07678 43.8223 3.07678Z" fill="white"/>
<path d="M40.9399 8.55158C41.5808 8.55158 42.1005 8.03274 42.1005 7.39273C42.1005 6.75272 41.5808 6.23389 40.9399 6.23389C40.2989 6.23389 39.7793 6.75272 39.7793 7.39273C39.7793 8.03274 40.2989 8.55158 40.9399 8.55158Z" fill="white"/>
<path d="M69.0352 15.2653C69.5554 15.2653 69.9957 14.8257 69.9957 14.3062C69.9957 13.7867 69.5554 13.3472 69.0352 13.3472C68.5149 13.3472 68.0747 13.7867 68.0747 14.3062C68.0747 14.8257 68.5149 15.2653 69.0352 15.2653Z" fill="white"/>
<path d="M57.0689 6.03381C57.5993 6.03381 58.0294 5.60443 58.0294 5.07477C58.0294 4.5451 57.5993 4.11572 57.0689 4.11572C56.5384 4.11572 56.1084 4.5451 56.1084 5.07477C56.1084 5.60443 56.5384 6.03381 57.0689 6.03381Z" fill="white"/>
<path d="M65.9532 13.7863C66.4734 13.7863 66.9136 13.3468 66.9136 12.8273C66.9136 12.7474 66.9136 12.6275 66.8736 12.5476C67.2738 12.4277 67.594 12.068 67.594 11.6285C67.594 11.109 67.1537 10.6694 66.6335 10.6694C66.1132 10.6694 65.673 11.109 65.673 11.6285C65.673 11.7084 65.673 11.8283 65.713 11.9082C65.3128 12.0281 64.9927 12.3877 64.9927 12.8273C64.9927 13.3867 65.4329 13.7863 65.9532 13.7863Z" fill="white"/>
<path d="M63.8716 10.3497C64.4021 10.3497 64.8321 9.92035 64.8321 9.39068C64.8321 8.86102 64.4021 8.43164 63.8716 8.43164C63.3412 8.43164 62.9111 8.86102 62.9111 9.39068C62.9111 9.92035 63.3412 10.3497 63.8716 10.3497Z" fill="white"/>
<path d="M52.0655 5.15452C52.5457 5.15452 52.9459 4.79488 52.9859 4.31536C53.146 4.55512 53.4261 4.71496 53.7463 4.71496C54.2666 4.71496 54.7068 4.2754 54.7068 3.75592C54.7068 3.23644 54.2666 2.79688 53.7463 2.79688C53.2661 2.79688 52.8659 3.15652 52.8258 3.63604C52.6658 3.39628 52.3856 3.23644 52.0655 3.23644C51.5452 3.23644 51.105 3.676 51.105 4.19548C51.145 4.75492 51.5452 5.15452 52.0655 5.15452Z" fill="white"/>
<path d="M60.3501 12.3468C60.3501 12.9862 60.8704 13.5057 61.5107 13.5057C62.151 13.5057 62.6713 12.9862 62.6713 12.3468C62.6713 11.7075 62.151 11.188 61.5107 11.188C60.8704 11.188 60.3501 11.7075 60.3501 12.3468Z" fill="white"/>
<path d="M59.75 8.99073C60.2303 8.99073 60.6305 8.63109 60.6705 8.19153C60.7105 8.19153 60.7505 8.19153 60.8306 8.19153C61.3508 8.19153 61.791 7.75196 61.791 7.23248C61.791 6.713 61.3508 6.27344 60.8306 6.27344C60.3503 6.27344 59.9501 6.63308 59.9101 7.07264C59.8701 7.07264 59.8301 7.07264 59.75 7.07264C59.2298 7.07264 58.7896 7.5122 58.7896 8.03168C58.8296 8.55117 59.2298 8.99073 59.75 8.99073Z" fill="white"/>
<path d="M46.4233 6.2337C47.0636 6.2337 47.5839 5.71422 47.5839 5.07486C47.5839 4.4355 47.0636 3.91602 46.4233 3.91602C45.783 3.91602 45.2627 4.4355 45.2627 5.07486C45.3027 5.75418 45.823 6.2337 46.4233 6.2337Z" fill="white"/>
<path d="M54.7075 13.0269C54.7075 13.7862 55.3078 14.3856 56.0682 14.3856C56.8286 14.3856 57.4289 13.7862 57.4289 13.0269C57.4289 12.2677 56.8286 11.6683 56.0682 11.6683C55.3078 11.6283 54.7075 12.2677 54.7075 13.0269Z" fill="white"/>
<path d="M54.4667 9.23028C55.1077 9.23028 55.6273 8.71145 55.6273 8.07144C55.6273 7.43143 55.1077 6.9126 54.4667 6.9126C53.8258 6.9126 53.3062 7.43143 53.3062 8.07144C53.3062 8.71145 53.8258 9.23028 54.4667 9.23028Z" fill="white"/>
<path d="M48.584 14.666C48.584 15.665 49.3844 16.4242 50.3449 16.4242C51.3053 16.4242 52.1057 15.625 52.1057 14.666C52.1057 13.667 51.3053 12.9077 50.3449 12.9077C49.3844 12.9077 48.584 13.667 48.584 14.666Z" fill="white"/>
<path d="M48.6644 10.9092C49.4248 10.9092 50.0251 10.3098 50.0251 9.55054C50.0251 8.7913 49.4248 8.19189 48.6644 8.19189C47.904 8.19189 47.3037 8.7913 47.3037 9.55054C47.3037 10.3098 47.944 10.9092 48.6644 10.9092Z" fill="white"/>
<path d="M43.182 13.3467C43.9335 13.3467 44.5426 12.7384 44.5426 11.988C44.5426 11.2377 43.9335 10.6294 43.182 10.6294C42.4305 10.6294 41.8213 11.2377 41.8213 11.988C41.8213 12.7384 42.4305 13.3467 43.182 13.3467Z" fill="white"/>
<path d="M208.784 53.707C204.862 57.623 200.1 59.5811 194.497 59.5811C188.894 59.5811 184.132 57.623 180.21 53.707C176.288 49.7909 174.327 45.0356 174.327 39.4412C174.327 33.8468 176.288 29.0915 180.21 25.1754C184.132 21.2593 188.894 19.3013 194.497 19.3013C200.1 19.3013 204.862 21.2593 208.784 25.1754C212.706 29.0915 214.667 33.8468 214.667 39.4412C214.667 45.0356 212.706 49.7909 208.784 53.707ZM183.131 50.9897C186.213 54.1066 190.014 55.665 194.497 55.665C198.979 55.665 202.781 54.1066 205.862 50.9897C208.944 47.8728 210.505 43.9966 210.505 39.4412C210.505 34.8857 208.944 31.0096 205.862 27.8927C202.781 24.7758 198.979 23.2174 194.497 23.2174C190.014 23.2174 186.213 24.7758 183.131 27.8927C180.05 31.0096 178.489 34.8857 178.489 39.4412C178.489 43.9966 180.05 47.8728 183.131 50.9897Z" fill="white"/>
<path d="M173.207 59.581L170.365 56.8637L149.995 37.6429V19.2612H146.073V59.581H149.995V43.0775L167.644 59.581H173.207Z" fill="white"/>
<path d="M165.803 19.2612L151.396 36.4441L154.597 39.2413L171.005 19.2612H165.803Z" fill="white"/>
<path d="M127.183 51.9886C130.505 49.1514 132.386 45.4751 132.826 40.8796C133.266 36.3242 132.066 32.3282 129.304 28.9316C126.543 25.5349 122.941 23.6169 118.499 23.2173C116.858 23.0574 115.217 23.1373 113.657 23.497C112.096 23.8566 110.815 24.2562 109.855 24.7757C108.854 25.2952 107.934 25.8546 107.093 26.5739C106.253 27.2932 105.693 27.7727 105.413 28.0125C105.052 28.3322 105.252 28.1324 104.932 28.452L102.291 25.9745L102.971 25.1753C103.412 24.6558 104.132 24.0165 105.092 23.2972C106.053 22.5779 107.173 21.8986 108.414 21.2192C109.655 20.5399 111.215 20.0204 113.096 19.6208C114.937 19.2212 116.858 19.1413 118.819 19.3411C124.342 19.8606 128.864 22.2582 132.386 26.5339C135.908 30.8097 137.389 35.7248 136.868 41.2792C136.348 46.8337 133.987 51.4291 129.745 54.9456C125.503 58.5021 122.501 59.9806 116.498 59.581C115.858 59.541 114.737 59.3013 114.097 59.1814L117.699 55.585C121.421 55.545 124.342 54.3862 127.183 51.9886Z" fill="white"/>
<path d="M131.146 37.8423H118.259H114.337L118.259 41.7983H130.986C131.066 41.2789 131.066 41.159 131.106 40.8793C131.186 39.8403 131.186 38.8413 131.146 37.8423Z" fill="white"/>
</svg>
