<svg width="100" height="100" viewBox="0 0 100 100" fill="none" xmlns="http://www.w3.org/2000/svg">
<circle cx="50" cy="50" r="49" fill="white" stroke="#D0D6DF" stroke-width="2"/>
<path d="M46.9647 71.9973C46.5606 71.4223 46.1805 70.8294 45.7582 70.2725C44.9752 69.3284 44.5304 68.1504 44.4944 66.9254H43.9816C40.5632 66.9254 37.1447 66.9254 33.7263 66.9254C31.5515 66.9254 29.9951 65.3631 29.9921 63.1869V48.9254C29.9753 48.4307 30.0605 47.9378 30.2425 47.4774C30.4245 47.017 30.6994 46.5988 31.0501 46.2488C31.4009 45.8988 31.8199 45.6245 32.2813 45.4428C32.7427 45.2612 33.2366 45.1761 33.7323 45.1929H48.8348V43.7571H32.9179V40.121C32.6427 40.1043 32.3667 40.1043 32.0914 40.121C32.0233 40.1411 31.9516 40.1456 31.8815 40.134C31.8114 40.1225 31.7449 40.0953 31.6869 40.0545C31.6288 40.0137 31.5808 39.9603 31.5464 39.8983C31.512 39.8363 31.4921 39.7673 31.4882 39.6966C31.4445 39.5397 31.388 39.3867 31.3193 39.2391C31.277 39.2391 31.2438 39.212 31.2227 39.221C30.3571 39.5762 30.3571 39.5762 29.6965 38.92C29.1324 38.3571 28.5865 37.7702 27.9923 37.2344C27.6695 36.9334 27.6032 36.6805 27.8354 36.3314C27.9001 36.2201 27.9546 36.1032 27.9983 35.9822C27.9651 35.9371 27.9531 35.9039 27.932 35.8919C27.0874 35.5337 27.0874 35.5337 27.0874 34.6277V31.6538L27.9923 31.2956C27.9923 31.2565 27.9923 31.2354 27.9923 31.2264C27.4946 30.5581 27.7751 30.0976 28.3422 29.625C28.9373 29.1097 29.4966 28.5546 30.0162 27.9635C30.2997 27.6625 30.5501 27.5782 30.897 27.819C31.0276 27.8926 31.1638 27.956 31.3042 28.0086L31.6691 27.0815C32.8968 27.0815 34.1214 27.0815 35.343 27.0815C35.4144 27.0975 35.4816 27.1282 35.5403 27.1718C35.5991 27.2154 35.6479 27.2708 35.6838 27.3344C35.7817 27.5325 35.8614 27.739 35.9221 27.9514C35.9734 27.9514 36.0066 27.9725 36.0307 27.9514C36.8873 27.5993 36.8873 27.5993 37.5539 28.2524C38.133 28.8304 38.6911 29.4264 39.2943 29.9742C39.5959 30.2511 39.6472 30.4859 39.427 30.817C39.3566 30.9421 39.297 31.073 39.2491 31.2083C39.2702 31.2414 39.2762 31.2655 39.2853 31.2655C40.1117 31.3859 40.2324 31.9126 40.1721 32.6411C40.1234 33.443 40.1234 34.2472 40.1721 35.0491C40.1871 35.4223 40.0846 35.6511 39.7106 35.7203C39.5295 35.7749 39.3521 35.8413 39.1797 35.919C39.9458 36.6896 39.3637 37.123 38.8449 37.6197C38.3261 38.1163 37.7741 38.6431 37.2764 39.1909C36.9899 39.507 36.7305 39.6123 36.3715 39.3565C36.2564 39.2902 36.1364 39.2329 36.0126 39.1849C35.8316 39.4859 35.7291 39.9223 35.4757 40.0608C35.2223 40.1993 34.7729 40.0939 34.3898 40.0939V42.2611H48.868V40.1391H43.1371V27.1147H56.1071V40.0999H50.352V42.2702H65.5692C65.5692 41.5628 65.5692 40.8464 65.5541 40.13C65.5541 40.0337 65.3701 39.9193 65.2525 39.8531C64.8618 39.646 64.5448 39.3234 64.345 38.9295C64.1452 38.5356 64.0723 38.0896 64.1365 37.6528C64.1823 37.2364 64.3527 36.8435 64.6255 36.5251C64.8982 36.2068 65.2607 35.9777 65.6657 35.8678C66.1757 35.7074 66.7272 35.7418 67.2132 35.9643C67.6992 36.1868 68.0851 36.5815 68.2959 37.0718C68.5172 37.5584 68.547 38.1102 68.3794 38.6177C68.2117 39.1252 67.8589 39.5511 67.391 39.811C67.2637 39.8639 67.1573 39.957 67.0881 40.0761C67.0189 40.1952 66.9908 40.3336 67.008 40.4702C67.0291 41.5417 67.008 42.6103 67.008 43.73H50.349V45.1959H65.4606C65.9566 45.1791 66.4507 45.2643 66.9123 45.4461C67.3739 45.6279 67.7931 45.9025 68.1439 46.2528C68.4947 46.6031 68.7695 47.0217 68.9513 47.4825C69.1331 47.9433 69.2181 48.4364 69.2008 48.9314V63.1899C69.2185 63.6848 69.1339 64.1781 68.9525 64.639C68.771 65.0999 68.4965 65.5187 68.1461 65.8693C67.7956 66.2199 67.3766 66.4948 66.9151 66.677C66.4537 66.8592 65.9596 66.9448 65.4636 66.9284C63.9555 66.9284 62.4685 66.9284 60.9724 66.9284H60.4807C60.5169 68.5508 59.6905 69.7638 58.7614 70.9347C58.493 71.2718 58.2728 71.6451 58.0285 72.0003L46.9647 71.9973ZM44.4944 62.5608C44.5095 62.4825 44.5185 62.4524 44.5215 62.4223C44.5215 61.5334 44.5215 60.6434 44.5215 59.7524C44.5215 58.723 45.2183 58.0969 46.2499 58.2264C46.647 58.2985 47.0398 58.3929 47.4262 58.5093C47.4262 56.7033 47.4262 54.9364 47.4262 53.1544C47.4472 52.5925 47.6857 52.0605 48.0915 51.6703C48.4973 51.2801 49.0389 51.0621 49.6025 51.0621C50.166 51.0621 50.7076 51.2801 51.1135 51.6703C51.5193 52.0605 51.7578 52.5925 51.7787 53.1544C51.7787 54.2561 51.7787 55.3578 51.7787 56.4655C51.7787 56.6039 51.7787 56.7454 51.8029 56.911C52.1677 56.7917 52.5572 56.7681 52.9338 56.8424C53.3104 56.9167 53.6616 57.0865 53.9535 57.3354C55.4073 56.3481 56.5415 56.6762 57.5429 58.3377C57.5719 58.342 57.6013 58.342 57.6303 58.3377C57.9817 58.2278 58.355 58.2069 58.7165 58.2768C59.078 58.3467 59.4164 58.5052 59.7012 58.7381C59.986 58.971 60.2084 59.2709 60.3481 59.6109C60.4879 59.9508 60.5407 60.3201 60.5018 60.6856C60.4415 61.3086 60.5018 61.9407 60.5018 62.5548H64.8362V49.5755H34.3778V62.5698L44.4944 62.5608ZM45.9754 59.6953C45.9754 61.6307 46.0599 63.5361 45.9513 65.4143C45.8427 67.2926 46.2981 68.8608 47.565 70.2304C47.6403 70.3272 47.7375 70.4049 47.8486 70.4572C47.9597 70.5095 48.0816 70.5349 48.2044 70.5314C50.7019 70.5314 53.1994 70.4531 55.6909 70.5554C56.8371 70.6036 57.57 70.2906 58.1582 69.3153C58.5925 68.5899 59.0208 67.8856 59.0329 67.0307C59.057 64.8424 59.051 62.6541 59.0329 60.4658C59.0272 60.3479 58.9975 60.2324 58.9457 60.1263C58.8938 60.0203 58.8209 59.9258 58.7313 59.8488C58.6306 59.7823 58.5159 59.7399 58.3961 59.7248C58.2763 59.7096 58.1547 59.7222 58.0406 59.7615C57.8061 59.9288 57.6478 60.1821 57.6002 60.4658C57.5429 61.1491 57.5821 61.8414 57.5821 62.5187H56.1312C56.1312 61.3658 56.1312 60.2491 56.1312 59.1324C56.1312 58.5725 55.8296 58.2294 55.4103 58.2294C54.9911 58.2294 54.6834 58.5815 54.6804 59.1324C54.6804 60.1257 54.6804 61.122 54.6804 62.1183V62.5337H53.2416C53.2416 62.4193 53.2416 62.332 53.2416 62.2327C53.2416 61.1611 53.2416 60.0896 53.2416 59.018C53.253 58.9165 53.2428 58.8138 53.2117 58.7166C53.1806 58.6194 53.1293 58.5297 53.0611 58.4537C52.9929 58.3776 52.9094 58.3167 52.816 58.275C52.7227 58.2333 52.6215 58.2118 52.5192 58.2118C52.4169 58.2118 52.3158 58.2333 52.2224 58.275C52.129 58.3167 52.0455 58.3776 51.9773 58.4537C51.9092 58.5297 51.8578 58.6194 51.8267 58.7166C51.7956 58.8138 51.7854 58.9165 51.7968 59.018C51.7968 59.2738 51.7968 59.5297 51.7968 59.7856V62.5307H50.3219V53.5969C50.3219 52.8233 50.0926 52.4531 49.607 52.4441C49.1214 52.4351 48.871 52.8143 48.871 53.618V66.1608H47.4202V65.6371C47.4202 64.1561 47.4202 62.6782 47.4202 61.2003C47.4333 61.0038 47.4051 60.8069 47.3375 60.6219C47.2698 60.437 47.1641 60.2683 47.0272 60.1266C46.8903 59.9848 46.7251 59.8732 46.5425 59.799C46.3598 59.7247 46.1635 59.6894 45.9663 59.6953H45.9754ZM44.4944 64.0237H34.3778C34.1806 64.0332 33.9837 64.0014 33.7996 63.9302C33.6156 63.8591 33.4485 63.7503 33.3093 63.6107C33.17 63.4711 33.0616 63.304 32.9911 63.12C32.9205 62.9361 32.8894 62.7394 32.8998 62.5427C32.8998 58.2103 32.8998 53.8799 32.8998 49.5514C32.8927 49.3586 32.9253 49.1663 32.9958 48.9866C33.0662 48.8069 33.1729 48.6435 33.3092 48.5066C33.4455 48.3697 33.6086 48.2623 33.7882 48.1909C33.9679 48.1195 34.1603 48.0857 34.3536 48.0916C44.5165 48.0916 54.6794 48.0916 64.8423 48.0916C65.0357 48.0856 65.2283 48.1195 65.408 48.1911C65.5877 48.2627 65.7507 48.3705 65.8869 48.5078C66.023 48.645 66.1293 48.8088 66.1992 48.9889C66.2691 49.169 66.3011 49.3615 66.2931 49.5545C66.2931 53.8869 66.2931 58.2173 66.2931 62.5458C66.3022 62.7425 66.2699 62.9389 66.1985 63.1225C66.1271 63.3061 66.0181 63.4728 65.8784 63.612C65.7387 63.7511 65.5714 63.8596 65.3873 63.9305C65.2032 64.0014 65.0062 64.0331 64.8091 64.0237C63.5392 64.0237 62.2694 64.0237 60.9995 64.0237H60.523V65.4474C60.5625 65.4585 60.6028 65.4665 60.6436 65.4715H65.2706C66.8602 65.4715 67.747 64.5896 67.75 63.0123V49.121C67.75 47.5106 66.8722 46.6407 65.2465 46.6407H33.9374C32.3176 46.6407 31.4429 47.5136 31.4399 49.127V62.9732C31.4399 64.5926 32.3146 65.4715 33.9253 65.4715H44.4944V64.0237ZM54.6502 38.6551V28.5655H51.7576V31.3979H47.3991V28.5534H44.5396V38.6551H54.6502ZM37.8586 30.7116C37.8028 30.629 37.7424 30.5496 37.6776 30.4739C37.4544 30.2712 37.2429 30.0562 37.0442 29.8297C36.7425 29.4203 36.4409 29.3571 35.9794 29.622C35.8769 29.6736 35.7647 29.7034 35.65 29.7095C35.5353 29.7156 35.4206 29.6979 35.3131 29.6574C35.2056 29.6169 35.1077 29.5546 35.0257 29.4744C34.9436 29.3943 34.8791 29.2979 34.8362 29.1916C34.6884 28.5896 34.3446 28.4391 33.7956 28.5264C33.6608 28.5489 33.5232 28.5489 33.3884 28.5264C32.8726 28.4361 32.5891 28.6287 32.4654 29.1524C32.378 29.5257 31.7084 29.8749 31.4278 29.6792C30.8246 29.2608 30.4445 29.5197 30.0826 29.9802C30.0205 30.0668 29.9439 30.1421 29.8564 30.2029C29.428 30.504 29.3888 30.823 29.6543 31.2655C29.8714 31.6297 29.6543 32.2919 29.2471 32.3822C28.5925 32.5327 28.4749 32.924 28.5533 33.4899C28.5697 33.5896 28.5697 33.6912 28.5533 33.7909C28.4447 34.3297 28.6589 34.6157 29.1928 34.7481C29.5879 34.8474 29.9016 35.5126 29.6874 35.8317C29.3345 36.3555 29.4914 36.7046 29.9348 37.0357C30.056 37.1276 30.1636 37.236 30.2545 37.3578C30.3004 37.4471 30.3658 37.5249 30.4459 37.5855C30.526 37.6461 30.6187 37.6879 30.7172 37.7078C30.8157 37.7278 30.9175 37.7253 31.0149 37.7007C31.1123 37.6761 31.2029 37.6298 31.28 37.5655C31.3854 37.5138 31.5005 37.485 31.6178 37.4809C31.7351 37.4769 31.8519 37.4978 31.9605 37.5422C32.0692 37.5866 32.1671 37.6534 32.2479 37.7384C32.3287 37.8234 32.3905 37.9245 32.4292 38.0351C32.577 38.61 32.9058 38.7635 33.4367 38.6762C33.5415 38.6581 33.6486 38.6581 33.7534 38.6762C34.3295 38.7846 34.6824 38.5979 34.8121 37.9869C34.8845 37.6558 35.5873 37.3397 35.8497 37.5324C36.453 37.9598 36.8029 37.6799 37.1618 37.2314C37.2356 37.1352 37.3218 37.0491 37.4182 36.9755C37.8103 36.6926 37.8767 36.3735 37.6112 35.9491C37.388 35.5849 37.5931 34.9106 37.9883 34.8233C38.7031 34.6698 38.7665 34.2213 38.7031 33.6374C38.6805 33.4575 38.6805 33.2755 38.7031 33.0956C38.7514 32.7615 38.6066 32.617 38.2989 32.5177C37.5449 32.2678 37.3579 31.7922 37.6957 31.0698C37.7439 30.9585 37.7862 30.8471 37.8586 30.7116ZM50.3068 29.9591V28.5655H48.8921V29.9591H50.3068ZM67.0321 37.9478C67.0321 37.8059 66.99 37.6671 66.9112 37.549C66.8324 37.4309 66.7203 37.3387 66.5891 37.284C66.4579 37.2293 66.3135 37.2146 66.1739 37.2416C66.0343 37.2686 65.9058 37.3363 65.8047 37.436C65.7035 37.5357 65.6341 37.663 65.6053 37.802C65.5765 37.9409 65.5895 38.0853 65.6426 38.2169C65.6958 38.3485 65.7868 38.4614 65.9042 38.5416C66.0215 38.6217 66.16 38.6654 66.3022 38.6672C66.489 38.6556 66.6651 38.5759 66.7969 38.4433C66.9287 38.3107 67.007 38.1343 67.017 37.9478H67.0321Z" fill="#ED6C2D"/>
<path d="M71.9216 32.3187L70.9021 33.3211C69.6757 32.1181 68.0249 31.444 66.3053 31.444C64.5856 31.444 62.9348 32.1181 61.7085 33.3211L60.7402 32.2946C63.289 29.408 68.7545 29.0047 71.9216 32.3187Z" fill="#ED6C2D"/>
<path d="M63.7174 35.3615L62.7432 34.3742C64.4896 32.3906 68.0518 32.3575 69.8495 34.3742L68.8511 35.3434C67.2224 33.9528 65.2768 34.031 63.7174 35.3615Z" fill="#ED6C2D"/>
<path d="M40.1356 51.02V55.3093H35.8374V51.02H40.1356ZM38.6667 53.8765V52.4678H37.2882V53.8765H38.6667Z" fill="#ED6C2D"/>
<path d="M41.6318 55.3093V51.02H45.9361V55.3093H41.6318ZM44.4943 53.8645V52.4648H43.0947V53.8645H44.4943Z" fill="#ED6C2D"/>
<path d="M57.552 55.3157H53.2417V51.0264H57.5429L57.552 55.3157ZM54.6986 53.8648H56.1042V52.4682H54.6986V53.8648Z" fill="#ED6C2D"/>
<path d="M59.0723 51.0078H63.3644V55.3122H59.0723V51.0078ZM60.505 53.8523H61.9196V52.4617H60.505V53.8523Z" fill="#ED6C2D"/>
<path d="M40.1239 61.1096H35.8257V56.8203H40.1239V61.1096ZM37.2886 58.2501V59.6588H38.6791V58.2501H37.2886Z" fill="#ED6C2D"/>
<path d="M29.9921 33.568C30.0029 32.8546 30.2251 32.1603 30.6308 31.5728C31.0364 30.9853 31.6073 30.5309 32.2715 30.2668C32.9357 30.0027 33.6634 29.9408 34.3628 30.089C35.0621 30.2371 35.7019 30.5886 36.2013 31.0992C36.7007 31.6097 37.0374 32.2564 37.169 32.9577C37.3005 33.659 37.221 34.3834 36.9405 35.0397C36.6599 35.6959 36.1909 36.2546 35.5926 36.6451C34.9942 37.0357 34.2934 37.2406 33.5785 37.2342C33.1013 37.2299 32.6298 37.1315 32.1909 36.9446C31.752 36.7578 31.3545 36.4862 31.0212 36.1454C30.6879 35.8047 30.4254 35.4016 30.2488 34.9592C30.0722 34.5169 29.9849 34.0441 29.9921 33.568ZM33.6358 31.4308C33.0639 31.4392 32.5173 31.6678 32.1103 32.0688C31.7034 32.4699 31.4675 33.0124 31.452 33.583C31.4579 34.1541 31.6846 34.7008 32.0847 35.1091C32.4849 35.5174 33.0276 35.7557 33.5996 35.7743C34.1795 35.7705 34.7349 35.5403 35.147 35.133C35.5591 34.7257 35.7951 34.1737 35.8045 33.5951C35.7929 33.0247 35.5607 32.4809 35.1565 32.0775C34.7523 31.6741 34.2073 31.4424 33.6358 31.4308Z" fill="#ED6C2D"/>
</svg>
