<svg width="100" height="100" viewBox="0 0 100 100" fill="none" xmlns="http://www.w3.org/2000/svg">
<circle cx="50" cy="50" r="49" fill="white" stroke="#D0D6DF" stroke-width="2"/>
<path d="M28.7552 29H70.1633C70.1944 29.0267 70.2211 29.0667 70.2566 29.08C71.4194 29.5243 71.9185 30.2383 71.9185 31.4691C71.9185 40.8377 71.9022 50.2077 71.9348 59.5762C71.9416 59.9092 71.8806 60.2401 71.7557 60.5488C71.6308 60.8575 71.4445 61.1377 71.2081 61.3723C70.9717 61.6069 70.6901 61.7911 70.3804 61.9136C70.0707 62.0362 69.7394 62.0946 69.4064 62.0853C65.7035 62.035 62.0094 62.069 58.3109 62.069H57.8161V65.4921H58.3123C59.6276 65.4921 60.9429 65.4846 62.2582 65.4921C62.9517 65.5037 63.6138 65.7831 64.106 66.2717C64.5983 66.7603 64.8825 67.4204 64.8992 68.1138C64.911 68.7062 64.8992 69.2839 64.8992 69.8675C64.8992 70.6318 64.6029 70.9265 63.8386 70.9265H35.0754C34.3126 70.9265 34.0179 70.6303 34.0149 69.8704C34.0149 69.315 34.0149 68.7596 34.0149 68.2041C34.0113 67.8455 34.0795 67.4898 34.2156 67.158C34.3516 66.8262 34.5526 66.5249 34.8069 66.272C35.0612 66.0192 35.3635 65.8197 35.6961 65.6855C36.0286 65.5513 36.3847 65.485 36.7433 65.4906C38.0437 65.4906 39.3442 65.4906 40.6462 65.4906H41.1024V62.069H40.5677C36.8252 62.069 33.0827 62.069 29.3403 62.069C28.862 62.0817 28.3918 61.9438 27.9961 61.6748C27.6003 61.4059 27.2991 61.0194 27.1348 60.5701C27.0978 60.4827 27.0459 60.4012 27 60.3153V30.7537C27.1391 30.3467 27.3696 29.977 27.6739 29.673C27.9782 29.369 28.3481 29.1388 28.7552 29V29ZM70.1633 58.0313H53.7592C53.5986 58.039 53.4376 58.0341 53.2778 58.0165C53.0648 57.9873 52.8701 57.8804 52.7312 57.7164C52.5923 57.5523 52.519 57.3427 52.5253 57.1278C52.5178 56.9138 52.593 56.7051 52.7353 56.5451C52.8776 56.3851 53.0762 56.2861 53.2896 56.2687C53.4778 56.2459 53.6674 56.2365 53.8569 56.2405C59.0905 56.2405 64.324 56.2405 69.5575 56.2405H70.1633V31.6528C70.1633 30.9122 70.0152 30.7641 69.2672 30.7641H29.6661C28.8989 30.7641 28.7582 30.9122 28.7582 31.6884V56.2391H29.3506C34.5842 56.2391 39.8177 56.2391 45.0512 56.2391C45.2707 56.233 45.4903 56.2464 45.7074 56.2791C45.9036 56.3122 46.0813 56.4152 46.2076 56.569C46.3339 56.7227 46.4003 56.917 46.3947 57.1159C46.3947 57.6921 46.0051 58.0239 45.3016 58.0239H28.7537V59.3496C28.7537 60.1805 28.8841 60.3094 29.718 60.3094H69.1931C69.3235 60.3094 69.4568 60.3168 69.5871 60.3094C69.9441 60.2738 70.1515 60.0724 70.1604 59.7169C70.1722 59.1703 70.1633 58.6312 70.1633 58.0313ZM63.141 69.161C63.141 69.0128 63.141 68.9121 63.141 68.8114C63.1514 67.4783 62.9188 67.2458 61.6006 67.2458H37.1772C37.0167 67.2403 36.856 67.2438 36.6959 67.2561C36.1893 67.3124 35.8323 67.6324 35.7864 68.1138C35.7523 68.4559 35.7864 68.8025 35.7864 69.161H63.141ZM42.9257 62.0838V65.4609H55.9928V62.0838H42.9257Z" fill="#ED6C2D"/>
<path d="M49.3035 47.8009C50.0767 48.814 50.0293 49.5428 49.1213 50.4493C48.7185 50.8522 48.3185 51.258 47.9112 51.6564C47.2091 52.3467 46.4226 52.397 45.6168 51.8475C45.4791 51.7797 45.3226 51.7604 45.1725 51.7927C45.0244 51.8164 44.8763 51.9319 44.7281 51.9779C44.2053 52.1378 43.8291 52.3304 43.7046 52.9969C43.5743 53.6931 42.9433 54.0456 42.2234 54.0737C41.5036 54.1019 40.7615 54.096 40.0313 54.0737C39.1737 54.0486 38.5368 53.4324 38.402 52.5777C38.3556 52.4317 38.2584 52.3071 38.128 52.2267C37.9838 52.1579 37.8354 52.0985 37.6836 52.049C37.1992 51.7972 36.7949 51.649 36.2306 52.0371C35.6381 52.4429 34.9582 52.24 34.4279 51.7409C33.9836 51.3217 33.5555 50.8773 33.1215 50.4433C32.218 49.5413 32.1706 48.8066 32.9408 47.795C32.7586 47.3506 32.5913 46.8959 32.3883 46.4619C32.3527 46.399 32.3044 46.3442 32.2465 46.3009C32.1887 46.2575 32.1225 46.2266 32.0521 46.2101C31.1219 46.0501 30.5709 45.4695 30.5472 44.5127C30.5265 43.8402 30.528 43.1677 30.5472 42.4968C30.5754 41.5444 31.1012 40.9667 32.0373 40.7697C32.1178 40.7469 32.1928 40.7082 32.258 40.6558C32.3231 40.6033 32.377 40.5383 32.4165 40.4646C32.615 40.0602 32.7675 39.6336 32.9408 39.207C32.1528 38.1421 32.2002 37.4607 33.1704 36.498C33.554 36.1173 33.9347 35.7322 34.3198 35.353C35.0367 34.6494 35.8247 34.5976 36.6482 35.1738C36.7767 35.2357 36.9223 35.2524 37.0615 35.2212C37.1843 35.1817 37.3037 35.1321 37.4185 35.073C37.9813 34.8864 38.4346 34.6968 38.5679 33.9562C38.6864 33.3075 39.2981 32.9638 40.0002 32.9535C40.7309 32.9416 41.4616 32.9416 42.1923 32.9535C42.598 32.9451 42.9917 33.0908 43.2941 33.3613C43.5964 33.6318 43.785 34.0069 43.8216 34.411C43.8498 34.6672 43.9401 34.7724 44.1697 34.8183C44.2695 34.8405 44.3657 34.8764 44.4556 34.9249C44.9859 35.1856 45.4435 35.3959 46.0627 34.9501C46.587 34.5694 47.2624 34.7635 47.7557 35.2182C48.3245 35.7425 48.8755 36.2906 49.3983 36.8594C50.016 37.5303 49.9671 38.3598 49.2976 39.2056C49.4842 39.6662 49.6649 40.1387 49.8723 40.5994C49.9404 40.6953 50.0437 40.7602 50.1597 40.7801C51.1832 40.9845 51.6764 41.5562 51.6942 42.5975C51.7031 43.19 51.6942 43.7943 51.6942 44.3942C51.6808 45.4725 51.2098 46.0146 50.1434 46.2264C50.0796 46.245 50.0204 46.2766 49.9695 46.3192C49.9185 46.3618 49.8768 46.4144 49.8471 46.4738C49.6531 46.9018 49.4842 47.3521 49.3035 47.8009ZM34.2576 37.9599C34.3391 38.0488 34.4057 38.1243 34.4753 38.1954C35.09 38.8219 35.0945 39.0189 34.6768 39.804C34.4148 40.2906 34.1958 40.799 34.0221 41.3237C33.6429 42.479 33.6651 42.4894 32.4357 42.5901C32.412 42.5901 32.3913 42.6197 32.3646 42.639V44.446C32.5661 44.446 32.7379 44.446 32.9112 44.446C33.4355 44.4593 33.6859 44.68 33.874 45.1718C34.1702 45.9435 34.4813 46.7122 34.8308 47.4617C35.0323 47.8898 35.0115 48.2527 34.6931 48.583C34.5389 48.723 34.3729 48.8493 34.1969 48.9607C34.7257 49.4895 35.1463 49.9131 35.5833 50.3515C35.6558 50.2863 35.7462 50.2138 35.8277 50.1338C36.4394 49.5413 36.6379 49.5295 37.4022 49.9368C37.8643 50.1827 38.3383 50.4626 38.8389 50.5604C39.7913 50.7455 40.3201 51.1795 40.1853 52.2089C40.1853 52.2193 40.1972 52.2326 40.2135 52.2637H42.0605C42.0605 52.123 42.0753 52.0223 42.0768 51.9201C42.0887 51.0877 42.2353 50.9144 43.01 50.6818C43.4973 50.5337 44.0053 50.3989 44.4334 50.1397C45.2569 49.642 46.0064 49.3576 46.6122 50.353L47.9601 49.0199C47.9053 48.9592 47.8386 48.8837 47.769 48.8111C47.1543 48.1831 47.1469 47.9831 47.5587 47.201C47.8258 46.7002 48.0507 46.178 48.2311 45.6398C48.6029 44.5023 48.5837 44.4949 49.8012 44.4282C49.8249 44.4282 49.8486 44.4016 49.8842 44.3808V42.596C49.7775 42.5871 49.6931 42.5768 49.6087 42.5738C48.6992 42.5471 48.5629 42.4257 48.2948 41.5503C48.1499 41.0163 47.9416 40.5017 47.6742 40.0173C47.0477 38.9804 47.1795 38.7479 47.9319 38.0191C47.9497 38.0014 47.9497 37.9658 47.9393 37.9999L46.627 36.6772C46.5455 36.7542 46.4404 36.8534 46.3308 36.9556C45.839 37.4326 45.5472 37.4326 44.9192 37.1275C44.2513 36.8069 43.5654 36.5255 42.8648 36.2847C42.2975 36.0877 42.0827 35.861 42.0724 35.2478C42.0724 35.0775 42.0724 34.9072 42.0724 34.7279H40.1661V35.0953C40.1572 35.9233 40.018 36.0699 39.2196 36.3187C38.7039 36.4772 38.2013 36.6752 37.7162 36.9112C36.5564 37.4815 36.5638 37.4963 35.601 36.6801C35.5865 36.6721 35.5711 36.6657 35.5551 36.6609L34.2576 37.9599Z" fill="#ED6C2D"/>
<path d="M60.3814 54.0808H54.6803C53.8464 54.0808 53.5205 53.752 53.5205 52.9077C53.5205 51.2715 53.5205 49.6343 53.5205 47.9961C53.5205 47.1562 53.8493 46.8259 54.6847 46.8259H66.044C66.8794 46.8259 67.1845 47.1296 67.1845 47.9576C67.1845 49.6244 67.1845 51.2907 67.1845 52.9566C67.1845 53.7816 66.8794 54.0793 66.0395 54.0808H60.3814ZM55.3453 48.6478V52.2737H65.3967V48.6478H55.3453Z" fill="#ED6C2D"/>
<path d="M62.3337 42.347C63.6193 42.347 64.9035 42.3381 66.1847 42.347C66.955 42.347 67.4097 43.0283 67.0809 43.6489C67.0035 43.7999 66.8846 43.9256 66.7382 44.0111C66.5917 44.0967 66.4238 44.1386 66.2544 44.1318C63.6415 44.1318 61.0272 44.1436 58.4144 44.1318C57.822 44.1318 57.4324 43.7111 57.4561 43.2105C57.4798 42.7099 57.8871 42.3499 58.4766 42.347C59.7653 42.3425 61.0495 42.347 62.3337 42.347Z" fill="#ED6C2D"/>
<path d="M62.3591 36.5362C61.0453 36.5362 59.7314 36.5362 58.4176 36.5362C58.1958 36.5502 57.9767 36.4805 57.8037 36.3409C57.6307 36.2014 57.5163 36.002 57.483 35.7823C57.4506 35.5938 57.4827 35.3999 57.5741 35.2319C57.6654 35.064 57.8108 34.9317 57.9866 34.8565C58.2085 34.7882 58.4403 34.7577 58.6724 34.7662C61.1104 34.7602 63.548 34.7602 65.985 34.7662C66.0576 34.7662 66.1331 34.7662 66.2042 34.7662C66.8234 34.7913 67.1803 35.1142 67.1818 35.646C67.1833 36.1777 66.7982 36.5347 66.1687 36.5347C64.8993 36.5406 63.6284 36.5377 62.3591 36.5362Z" fill="#ED6C2D"/>
<path d="M62.2703 40.3207C61.0157 40.3207 59.7523 40.3207 58.5051 40.3207C57.883 40.3207 57.4683 39.9681 57.4683 39.4512C57.4683 38.9343 57.8874 38.5625 58.5051 38.5625C61.0587 38.5625 63.6122 38.5625 66.1658 38.5625C66.8101 38.5625 67.1893 38.8898 67.1923 39.4364C67.1952 39.983 66.8249 40.3162 66.1777 40.3251C64.8683 40.3236 63.5693 40.3207 62.2703 40.3207Z" fill="#ED6C2D"/>
<path d="M54.4152 42.3486C54.6503 42.3608 54.8722 42.4609 55.0368 42.6291C55.2015 42.7973 55.2968 43.0213 55.3039 43.2566C55.2954 43.493 55.1944 43.7166 55.0227 43.8792C54.8509 44.0418 54.6221 44.1305 54.3856 44.1261C54.1566 44.1162 53.9398 44.0205 53.7781 43.858C53.6165 43.6956 53.5219 43.4782 53.5132 43.2492C53.5224 43.013 53.6204 42.789 53.7876 42.6221C53.9549 42.4551 54.179 42.3574 54.4152 42.3486Z" fill="#ED6C2D"/>
<path d="M54.4165 40.3177C54.1808 40.3177 53.9548 40.2241 53.7881 40.0574C53.6215 39.8907 53.5278 39.6647 53.5278 39.429C53.5278 39.1933 53.6215 38.9672 53.7881 38.8006C53.9548 38.6339 54.1808 38.5403 54.4165 38.5403C54.6522 38.5403 54.8783 38.6339 55.045 38.8006C55.2116 38.9672 55.3053 39.1933 55.3053 39.429C55.3053 39.6647 55.2116 39.8907 55.045 40.0574C54.8783 40.2241 54.6522 40.3177 54.4165 40.3177Z" fill="#ED6C2D"/>
<path d="M54.4209 34.7769C54.6566 34.7769 54.8827 34.8705 55.0494 35.0372C55.216 35.2038 55.3097 35.4299 55.3097 35.6656C55.3097 35.9013 55.216 36.1273 55.0494 36.294C54.8827 36.4607 54.6566 36.5543 54.4209 36.5543C54.1852 36.5543 53.9592 36.4607 53.7925 36.294C53.6259 36.1273 53.5322 35.9013 53.5322 35.6656C53.5322 35.4299 53.6259 35.2038 53.7925 35.0372C53.9592 34.8705 54.1852 34.7769 54.4209 34.7769Z" fill="#ED6C2D"/>
<path d="M48.5825 57.1426C48.5848 56.9151 48.6753 56.6974 48.8351 56.5355C48.9948 56.3736 49.2112 56.28 49.4386 56.2747C49.666 56.2693 49.8866 56.3525 50.0538 56.5067C50.221 56.6609 50.3217 56.874 50.3348 57.1011C50.3436 57.3366 50.2585 57.5659 50.0982 57.7387C49.9379 57.9115 49.7156 58.0135 49.4801 58.0224C49.2451 58.0224 49.0195 57.9303 48.8516 57.7658C48.6838 57.6013 48.5872 57.3775 48.5825 57.1426Z" fill="#ED6C2D"/>
<path d="M46.2439 43.5158C46.2439 44.2757 46.2321 45.0355 46.2439 45.7939C46.2627 46.0118 46.2164 46.2305 46.111 46.4221C46.0055 46.6138 45.8456 46.7699 45.6515 46.8707C44.345 47.6409 43.046 48.423 41.7544 49.2169C41.5703 49.3484 41.3497 49.4191 41.1235 49.4191C40.8972 49.4191 40.6766 49.3484 40.4925 49.2169C39.1999 48.4181 37.8999 47.6355 36.5925 46.8692C36.398 46.7689 36.2369 46.614 36.1291 46.4235C36.0212 46.2331 35.9712 46.0153 35.9852 45.7969C35.9941 44.2633 35.9941 42.7298 35.9852 41.1963C35.9733 40.9847 36.023 40.7742 36.1281 40.5902C36.2332 40.4063 36.3894 40.2566 36.5777 40.1594C37.8969 39.3823 39.2088 38.5924 40.5132 37.7895C40.6931 37.6642 40.9071 37.5969 41.1264 37.5969C41.3457 37.5969 41.5597 37.6642 41.7396 37.7895C43.0327 38.5805 44.3302 39.367 45.6366 40.1358C45.8382 40.2388 46.0047 40.3994 46.1149 40.5972C46.2251 40.7949 46.2741 41.021 46.2558 41.2466C46.2306 41.9961 46.2439 42.756 46.2439 43.5158ZM43.6385 41.0097C42.8209 40.5149 42.0773 40.0587 41.3234 39.6188C41.2705 39.5901 41.212 39.5731 41.152 39.569C41.0919 39.5649 41.0317 39.5738 40.9753 39.5951C40.1992 40.0395 39.4364 40.5105 38.6054 41.0082C39.4379 41.5088 40.2051 41.9754 40.9753 42.4272C41.0239 42.4484 41.0766 42.4587 41.1296 42.4572C41.1827 42.4556 41.2347 42.4423 41.2819 42.4183C42.0536 41.9709 42.8091 41.5088 43.6385 41.0097ZM37.7804 42.5842C37.7804 43.3085 37.8397 43.9424 37.7656 44.5586C37.6767 45.2918 37.9493 45.7095 38.598 46.0116C39.155 46.2708 39.6645 46.6322 40.2466 46.9788C40.2466 46.0338 40.2466 45.1733 40.2392 44.3127C40.2382 44.2513 40.2246 44.1908 40.1991 44.135C40.1736 44.0792 40.1368 44.0292 40.0911 43.9883C39.3549 43.5277 38.6069 43.0833 37.7804 42.5842ZM44.465 42.5842C43.6444 43.0804 42.8979 43.5262 42.1573 43.9824C42.1173 44.0092 42.0834 44.0442 42.0578 44.085C42.0323 44.1259 42.0157 44.1717 42.0092 44.2194C41.9988 45.1081 42.0092 46.0101 42.0092 46.9818C42.8268 46.4886 43.5748 46.0457 44.3125 45.5836C44.358 45.5428 44.3947 45.4931 44.4202 45.4376C44.4457 45.382 44.4594 45.3218 44.4606 45.2607C44.4784 44.4045 44.465 43.544 44.465 42.5871V42.5842Z" fill="#ED6C2D"/>
</svg>
