<svg width="17" height="17" viewBox="0 0 17 17" fill="none" xmlns="http://www.w3.org/2000/svg">
<g opacity="1">
<path d="M13.8127 15.4062H13.7224C3.2833 14.8059 1.80111 5.99781 1.59393 3.30969C1.57723 3.10068 1.60194 2.89044 1.66664 2.691C1.73134 2.49156 1.83476 2.30685 1.97096 2.14745C2.10717 1.98804 2.27349 1.85708 2.4604 1.76207C2.64731 1.66706 2.85113 1.60986 3.06018 1.59375H5.98736C6.20016 1.59354 6.40812 1.65724 6.58429 1.77659C6.76047 1.89593 6.89675 2.06543 6.97549 2.26313L7.78299 4.25C7.86074 4.44313 7.88003 4.65485 7.83848 4.85886C7.79692 5.06287 7.69634 5.25017 7.54924 5.3975L6.41768 6.53969C6.59443 7.54415 7.07546 8.47007 7.79568 9.1922C8.51591 9.91432 9.44056 10.3978 10.4446 10.5772L11.5974 9.435C11.7469 9.28952 11.936 9.19129 12.141 9.15256C12.346 9.11382 12.5579 9.1363 12.7502 9.21719L14.753 10.0194C14.9477 10.1006 15.1138 10.2379 15.2302 10.4139C15.3466 10.5899 15.4079 10.7965 15.4064 11.0075V13.8125C15.4064 14.2352 15.2385 14.6406 14.9396 14.9395C14.6407 15.2383 14.2354 15.4062 13.8127 15.4062ZM3.18768 2.65625C3.04678 2.65625 2.91166 2.71222 2.81203 2.81185C2.7124 2.91148 2.65643 3.0466 2.65643 3.1875V3.23C2.9008 6.375 4.46799 13.8125 13.7808 14.3438C13.8506 14.3481 13.9206 14.3386 13.9867 14.3158C14.0528 14.293 14.1137 14.2574 14.1661 14.211C14.2184 14.1646 14.261 14.1083 14.2915 14.0454C14.3221 13.9825 14.3399 13.9142 14.3439 13.8444V11.0075L12.3411 10.2053L10.8164 11.7194L10.5614 11.6875C5.93955 11.1084 5.31268 6.48656 5.31268 6.43875L5.2808 6.18375L6.78955 4.65906L5.99268 2.65625H3.18768Z" fill="white"/>
</g>
</svg>
