<svg width="1185" height="381" opacity="0.04" viewBox="0 0 1185 381" fill="none" xmlns="http://www.w3.org/2000/svg">
<path d="M1122.28 325.015C1080.95 361.938 1030.76 380.4 971.714 380.4C912.668 380.4 862.479 361.938 821.147 325.015C779.815 288.091 759.148 243.256 759.148 190.508C759.148 137.76 779.815 92.9239 821.147 56.0003C862.479 19.0768 912.668 0.61499 971.714 0.61499C1030.76 0.61499 1080.95 19.0768 1122.28 56.0003C1163.61 92.9239 1184.28 137.76 1184.28 190.508C1184.28 243.256 1163.61 288.091 1122.28 325.015ZM851.935 299.394C884.41 328.783 924.477 343.477 971.714 343.477C1018.95 343.477 1059.02 328.783 1091.49 299.394C1123.97 270.006 1140.42 233.459 1140.42 190.508C1140.42 147.556 1123.97 111.009 1091.49 81.6208C1059.02 52.2326 1018.95 37.5385 971.714 37.5385C924.477 37.5385 884.41 52.2326 851.935 81.6208C819.46 111.009 803.011 147.556 803.011 190.508C803.011 233.459 819.46 270.006 851.935 299.394Z" fill="white"/>
<path d="M747.351 380.402L717.406 354.781L502.732 173.554V0.238525H461.399V380.402H502.732V224.795L688.727 380.402H747.351Z" fill="white"/>
<path d="M669.325 0.238525L517.492 162.25L551.233 188.624L724.153 0.238525H669.325Z" fill="white"/>
<path d="M262.333 308.815C297.339 282.064 317.161 247.401 321.801 204.072C326.44 161.12 313.787 123.443 284.686 91.4177C255.585 59.3922 217.627 41.3072 170.812 37.5394C153.52 36.0324 136.228 36.7859 119.779 40.1769C103.331 43.5678 89.8344 47.3355 79.7122 52.2335C69.1683 57.1315 59.4678 62.4063 50.6109 69.1882C41.754 75.9701 35.8494 80.4913 32.8971 82.752C29.1013 85.7661 31.2101 83.8823 27.836 86.8964L0 63.5366L7.16992 56.0012C11.8093 51.1032 19.4008 45.0749 29.523 38.293C39.6452 31.5111 51.4544 25.106 64.5289 18.7009C77.6034 12.2958 94.0518 7.39777 113.874 3.63006C133.275 -0.137652 153.52 -0.891182 174.186 0.992673C232.388 5.89069 280.047 28.4969 317.161 68.8114C354.276 109.126 369.881 155.469 364.398 207.84C358.915 260.211 334.032 303.54 289.325 336.696C244.619 370.228 212.987 384.169 149.724 380.401C142.976 380.024 131.166 377.764 124.418 376.633L162.376 342.724C201.6 342.347 232.388 331.421 262.333 308.815Z" fill="white"/>
<path d="M304.095 175.436H168.289H126.957L168.289 212.736H302.408C303.252 207.838 303.251 206.708 303.673 204.07C304.517 194.274 304.517 184.855 304.095 175.436Z" fill="white"/>
</svg>
