<svg width="14" height="16" viewBox="0 0 14 16" fill="none" xmlns="http://www.w3.org/2000/svg">
<path d="M7 8.75C8.24264 8.75 9.25 7.74264 9.25 6.5C9.25 5.25736 8.24264 4.25 7 4.25C5.75736 4.25 4.75 5.25736 4.75 6.5C4.75 7.74264 5.75736 8.75 7 8.75Z" stroke="#ED6C2D" stroke-linecap="round" stroke-linejoin="round"/>
<path d="M7 0.5C5.4087 0.5 3.88258 1.13214 2.75736 2.25736C1.63214 3.38258 1 4.9087 1 6.5C1 7.919 1.3015 8.8475 2.125 9.875L7 15.5L11.875 9.875C12.6985 8.8475 13 7.919 13 6.5C13 4.9087 12.3679 3.38258 11.2426 2.25736C10.1174 1.13214 8.5913 0.5 7 0.5V0.5Z" stroke="#ED6C2D" stroke-linecap="round" stroke-linejoin="round"/>
</svg>
