<svg width="28" height="30" viewBox="0 0 28 30" fill="" xmlns="http://www.w3.org/2000/svg">
<path d="M22.75 27.1875H22.6013C5.40753 26.1281 2.96628 10.5844 2.62503 5.84063C2.59754 5.47179 2.63824 5.10077 2.7448 4.74882C2.85136 4.39687 3.02169 4.07091 3.24604 3.78961C3.47038 3.50831 3.74432 3.27721 4.05217 3.10954C4.36001 2.94187 4.69571 2.84093 5.04003 2.8125H9.86128C10.2118 2.81214 10.5543 2.92454 10.8445 3.13515C11.1346 3.34576 11.3591 3.64488 11.4888 3.99375L12.8188 7.5C12.9468 7.84083 12.9786 8.21445 12.9102 8.57446C12.8417 8.93447 12.6761 9.26501 12.4338 9.525L10.57 11.5406C10.8612 13.3132 11.6534 14.9472 12.8397 16.2215C14.0259 17.4959 15.5489 18.349 17.2025 18.6656L19.1013 16.65C19.3476 16.3933 19.659 16.2199 19.9967 16.1516C20.3343 16.0832 20.6833 16.1229 21 16.2656L24.2988 17.6813C24.6195 17.8246 24.8931 18.067 25.0848 18.3775C25.2764 18.6881 25.3775 19.0527 25.375 19.425V24.375C25.375 25.1209 25.0985 25.8363 24.6062 26.3637C24.1139 26.8912 23.4462 27.1875 22.75 27.1875ZM5.25003 4.6875C5.01797 4.6875 4.79541 4.78627 4.63131 4.96209C4.46722 5.1379 4.37503 5.37636 4.37503 5.625V5.7C4.77753 11.25 7.35878 24.375 22.6975 25.3125C22.8125 25.3201 22.9277 25.3033 23.0366 25.2631C23.1455 25.2229 23.2459 25.1601 23.3321 25.0782C23.4182 24.9963 23.4885 24.897 23.5387 24.786C23.589 24.675 23.6183 24.5544 23.625 24.4312V19.425L20.3263 18.0094L17.815 20.6812L17.395 20.625C9.78253 19.6031 8.75003 11.4469 8.75003 11.3625L8.69753 10.9125L11.1825 8.22188L9.87003 4.6875H5.25003Z" fill=""/>
</svg>
