<svg width="371" height="371" viewBox="0 0 371 371" fill="none" xmlns="http://www.w3.org/2000/svg">
<circle cx="185.501" cy="185.5" r="181.634" transform="rotate(-90 185.501 185.5)" stroke="url(#paint0_linear_1444_22405)" stroke-width="6.42953"/>
<path d="M156.464 131.753C165.327 118.476 177.199 109.042 193.153 106.128C213.305 102.44 231.756 106.378 246.901 120.986C255.775 129.552 260.57 140.52 262.901 152.417C264.091 158.508 264.388 164.765 265.043 170.951C265.097 172.017 265.097 173.086 265.043 174.152C272.53 176.013 279.544 179.421 285.635 184.156C290.348 187.761 294.272 192.293 297.163 197.474C300.055 202.656 301.852 208.375 302.445 214.278C303.183 219.709 302.838 225.233 301.429 230.529C300.02 235.826 297.576 240.791 294.236 245.138C287.337 254.405 277.581 259.152 266.554 261.4C263.196 262.06 259.78 262.383 256.358 262.364C205.299 262.423 154.239 262.685 103.192 262.221C88.6068 262.09 75.6397 256.558 67.1219 243.722C61.8517 235.775 60.4599 226.805 61.1737 217.431C61.4797 211.547 62.952 205.783 65.5048 200.473C68.0576 195.163 71.6401 190.414 76.0442 186.5C82.436 180.823 90.06 176.71 98.3143 174.485C99.8965 174.033 100.36 173.533 100.313 171.867C99.956 160.066 104.072 150.323 114.065 143.566C125.046 136.143 138.322 136.702 148.862 144.863C148.88 144.883 148.902 144.899 148.927 144.91C148.951 144.921 148.978 144.927 149.005 144.927C149.032 144.927 149.059 144.921 149.083 144.91C149.108 144.899 149.13 144.883 149.148 144.863C149.921 143.602 153.882 135.619 156.464 131.753Z" fill="white" stroke="#285BA7" stroke-width="5.97094" stroke-miterlimit="10"/>
<circle cx="183.647" cy="201.716" r="40.1618" stroke="#285BA7" stroke-width="5.97094"/>
<path d="M139.6 240.795L145.598 214.292L171.558 222.325" stroke="#285BA7" stroke-width="5.97094"/>
<path d="M235.482 171.569L224.107 198.685L197.953 185.244" stroke="#285BA7" stroke-width="5.97094"/>
<defs>
<linearGradient id="paint0_linear_1444_22405" x1="185.501" y1="0.651138" x2="185.275" y2="187.108" gradientUnits="userSpaceOnUse">
<stop stop-color="white"/>
<stop offset="1" stop-color="white" stop-opacity="0"/>
</linearGradient>
</defs>
</svg>
