<svg width="51" height="51" viewBox="0 0 51 51" fill="none" xmlns="http://www.w3.org/2000/svg">
<path d="M30.7598 17.3106L36.886 14.9172V39.0717H30.7598V17.3106Z" fill="white"/>
<path d="M21.7261 20.6929L27.8523 18.407V39.0716H21.7261V20.6929Z" fill="white"/>
<path d="M12.6914 24.1937L18.8177 21.8786V39.0716H12.6914V24.1937Z" fill="white"/>
<path d="M12.7493 18.7542C12.5245 18.8427 12.414 19.0968 12.5025 19.3217C12.5911 19.5465 12.8451 19.657 13.07 19.5685L12.7493 18.7542ZM36.0891 10.3653C36.1855 10.1436 36.084 9.88584 35.8624 9.78945L32.2508 8.21879C32.0292 8.1224 31.7714 8.22393 31.675 8.44555C31.5786 8.66717 31.6802 8.92497 31.9018 9.02135L35.1121 10.4175L33.7159 13.6278C33.6195 13.8494 33.721 14.1072 33.9427 14.2036C34.1643 14.2999 34.4221 14.1984 34.5185 13.9768L36.0891 10.3653ZM13.07 19.5685L35.8482 10.5979L35.5275 9.78358L12.7493 18.7542L13.07 19.5685Z" fill="white"/>
<circle cx="25.0839" cy="25.0839" r="24.6036" transform="rotate(-90 25.0839 25.0839)" stroke="url(#paint0_linear_1441_22399)" stroke-width="0.960675"/>
<defs>
<linearGradient id="paint0_linear_1441_22399" x1="25.0839" y1="-1.90735e-06" x2="25.302" y2="25.1146" gradientUnits="userSpaceOnUse">
<stop stop-color="white"/>
<stop offset="1" stop-color="white" stop-opacity="0"/>
</linearGradient>
</defs>
</svg>
