<svg width="39" height="50" viewBox="0 0 39 50" fill="none" xmlns="http://www.w3.org/2000/svg">
<path d="M29.4268 15.0017L38.9993 11.2619V49.0043H29.4268V15.0017Z" fill="white"/>
<path d="M15.3125 20.2867L24.885 16.7148V49.0042H15.3125V20.2867Z" fill="white"/>
<path d="M1.19434 25.7568L10.7669 22.1394V49.0042H1.19434V25.7568Z" fill="white"/>
<path d="M1.28559 17.2573C0.934225 17.3957 0.761565 17.7927 0.899939 18.144C1.03831 18.4954 1.43532 18.6681 1.78668 18.5297L1.28559 17.2573ZM37.7551 4.14928C37.9057 3.80299 37.747 3.40017 37.4007 3.24957L31.7575 0.79533C31.4113 0.644726 31.0084 0.803364 30.8578 1.14966C30.7072 1.49595 30.8659 1.89877 31.2122 2.04937L36.2283 4.23091L34.0468 9.24708C33.8962 9.59338 34.0548 9.99619 34.4011 10.1468C34.7474 10.2974 35.1502 10.1388 35.3008 9.79247L37.7551 4.14928ZM1.78668 18.5297L37.3786 4.51278L36.8775 3.24039L1.28559 17.2573L1.78668 18.5297Z" fill="white"/>
</svg>
