<svg width="59" height="59" viewBox="0 0 59 59" fill="none" xmlns="http://www.w3.org/2000/svg">
<path fill-rule="evenodd" clip-rule="evenodd" d="M52.3504 14.9702C55.1045 19.204 56.7046 24.2574 56.7046 29.6846C56.7046 32.8559 56.1582 35.8996 55.1545 38.7267C52.6499 38.1695 49.9095 37.1784 47.1347 35.7176C50.6827 30.2441 52.7942 23.4043 52.3504 14.9702ZM50.0742 11.9542C51.2632 21.4615 49.1868 28.928 45.3875 34.7371C38.3467 30.5355 31.3568 23.2742 27.6914 12.3731C31.6204 9.43713 36.6214 7.22609 42.954 6.14177C45.6487 7.66386 48.056 9.63523 50.0742 11.9542ZM51.9801 11.1073C51.9457 10.8577 51.9092 10.6067 51.8705 10.3545L51.395 10.4275C49.2807 8.04549 46.7803 6.0139 43.992 4.43078L43.925 3.96453C43.7194 3.99409 43.515 4.02477 43.3119 4.05655C39.2486 1.89148 34.6098 0.664444 29.6844 0.664444C13.6571 0.664445 0.664311 13.6572 0.664312 29.6846C0.664312 30.2655 0.681379 30.8424 0.71504 31.4148L0.473145 31.6652C0.563491 31.7525 0.655715 31.8404 0.74981 31.9289C1.4291 40.8101 6.10606 48.5729 12.9847 53.4212C13.0068 53.5574 13.0292 53.6923 13.052 53.8259L13.4684 53.7548C13.6789 53.897 13.8914 54.0364 14.1058 54.1731L14.1675 54.6495C14.3586 54.6248 14.5519 54.5984 14.7475 54.5705C19.111 57.1952 24.2214 58.7047 29.6844 58.7047C41.5795 58.7047 51.8031 51.548 56.2842 41.3056C56.3597 41.2794 56.4353 41.2531 56.5109 41.2265L56.4326 41.0033L56.5359 41.0191L56.6096 40.5312C57.9608 37.1803 58.7046 33.5193 58.7046 29.6846C58.7046 22.6176 56.1785 16.1406 51.9801 11.1073ZM53.6596 42.1578C48.3689 43.7581 43.3383 44.5692 38.6185 44.7863C32.0476 49.8045 24.2616 52.672 17.9071 54.0098C21.4667 55.7364 25.4625 56.7047 29.6844 56.7047C40.1079 56.7047 49.1529 50.8025 53.6596 42.1578ZM15.1756 52.4829C20.9581 51.5596 28.4839 49.2041 35.0908 44.84C27.0957 44.7146 20.0965 42.9141 14.3681 40.4911C14.0971 44.8219 14.3443 48.8994 14.8299 52.2587C14.9445 52.3343 15.0598 52.4091 15.1756 52.4829ZM12.6077 50.6254C12.2523 47.3639 12.1239 43.5895 12.4233 39.623C8.59788 37.8239 5.41915 35.7764 2.98321 33.8487C4.02541 40.5861 7.55661 46.5014 12.6077 50.6254ZM2.69572 30.999C5.01669 33.0684 8.37658 35.4335 12.6232 37.5034C13.0842 33.4426 14.0167 29.2437 15.6271 25.2363C17.6622 20.1718 20.7778 15.4245 25.3619 11.6583C24.5779 9.07758 23.9711 6.31257 23.5779 3.35737C11.5963 6.12534 2.66431 16.8619 2.66431 29.6846C2.66431 30.1253 2.67486 30.5635 2.69572 30.999ZM25.5454 2.97948C25.8877 5.59301 26.4029 8.04991 27.0636 10.3551C30.5646 7.85806 34.8266 5.89367 39.9877 4.6983C36.8125 3.38756 33.3329 2.66444 29.6844 2.66444C28.277 2.66444 26.8947 2.77205 25.5454 2.97948ZM17.4829 25.982C19.3081 21.4398 22.0428 17.1688 26.0345 13.7075C29.896 24.6367 37.0014 32.0238 44.2374 36.3775C42.6651 38.4741 40.8635 40.3346 38.9183 41.9803C38.5834 42.2636 38.2442 42.5406 37.9011 42.8113C28.7175 43.1298 20.7944 41.1277 14.5397 38.3894C14.9545 34.2831 15.8597 30.0213 17.4829 25.982ZM41.2509 42.5947C42.9733 41.0297 44.5716 39.2927 45.9892 37.372C48.3927 38.6565 50.7828 39.6109 53.0456 40.2539C48.9412 41.4924 45.0013 42.24 41.2509 42.5947Z" fill="#F5F5F5"/>
<circle cx="50.1243" cy="25.3922" r="3.53289" transform="rotate(47.3213 50.1243 25.3922)" fill="#F5F5F5"/>
<circle cx="17.8245" cy="23.8783" r="3.53289" transform="rotate(-17.7598 17.8245 23.8783)" fill="#F5F5F5"/>
<circle cx="26.4035" cy="50.1224" r="3.53289" transform="rotate(-132.813 26.4035 50.1224)" fill="#F5F5F5"/>
</svg>
