<svg width="56" height="37" viewBox="0 0 56 37" fill="none" xmlns="http://www.w3.org/2000/svg">
<path d="M22.3872 7.03152C24.3728 4.05715 27.0326 1.94365 30.6067 1.29067C35.1215 0.464457 39.2552 1.34664 42.6481 4.61951C44.6363 6.53846 45.7104 8.99577 46.2327 11.661C46.4993 13.0256 46.5659 14.4275 46.7125 15.8134C46.7246 16.0522 46.7246 16.2915 46.7125 16.5303C48.3898 16.9474 49.9613 17.7109 51.326 18.7717C52.3819 19.5792 53.2609 20.5947 53.9086 21.7554C54.5564 22.9162 54.9591 24.1974 55.0919 25.52C55.2573 26.7368 55.1799 27.9742 54.8643 29.1608C54.5486 30.3475 54.001 31.4598 53.2529 32.4336C51.7071 34.5098 49.5216 35.5732 47.051 36.0769C46.2987 36.2247 45.5335 36.297 44.7669 36.2928C33.3278 36.3061 21.8888 36.3647 10.4524 36.2608C7.18486 36.2315 4.27979 34.9922 2.37151 32.1164C1.19082 30.3361 0.878991 28.3265 1.0389 26.2263C1.10748 24.9082 1.43731 23.6168 2.00922 22.4272C2.58114 21.2376 3.38374 20.1735 4.37041 19.2968C5.80239 18.0249 7.51043 17.1034 9.35967 16.6049C9.71414 16.5037 9.81808 16.3917 9.80742 16.0186C9.72747 13.3747 10.6496 11.1919 12.8884 9.67807C15.3484 8.01498 18.3227 8.14024 20.6841 9.96857C20.6881 9.97311 20.693 9.97674 20.6986 9.97923C20.7041 9.98172 20.71 9.98301 20.7161 9.98301C20.7221 9.98301 20.7281 9.98172 20.7336 9.97923C20.7392 9.97674 20.7441 9.97311 20.7481 9.96857C20.9213 9.68606 21.8088 7.89771 22.3872 7.03152Z" fill="white" stroke="#ED6C2D" stroke-width="1.33769" stroke-miterlimit="10"/>
<circle cx="28.477" cy="22.7057" r="8.9976" stroke="#ED6C2D" stroke-width="1.33769"/>
<path d="M18.609 31.4608L19.9529 25.523L25.7687 27.3229" stroke="#ED6C2D" stroke-width="1.33769"/>
<path d="M40.0907 15.9518L37.5423 22.0267L31.683 19.0153" stroke="#ED6C2D" stroke-width="1.33769"/>
</svg>
