<svg width="371" height="371" viewBox="0 0 371 371" fill="none" xmlns="http://www.w3.org/2000/svg">
<circle cx="185.5" cy="185.5" r="181.634" transform="rotate(-90 185.5 185.5)" stroke="url(#paint0_linear_1444_22401)" stroke-width="6.42953"/>
<path d="M281.001 117.749H110.003V146.646H79.9805V259.481C79.9805 285.9 99.9955 288.836 110.003 287.001H281.001V117.749Z" fill="#285BA7"/>
<path d="M110.003 259.481V146.646M110.003 146.646V117.749H281.001V287.001H110.003C99.9955 288.836 79.9805 285.9 79.9805 259.481C79.9805 233.061 79.9805 173.249 79.9805 146.646H110.003Z" stroke="white" stroke-width="8.04349"/>
<path d="M111.307 94.2534L280.999 94.2534" stroke="#FBFCFF" stroke-width="8.04349"/>
<path d="M140.026 75.979L254.895 75.979" stroke="white" stroke-width="8.04349"/>
<path d="M173.963 146.467L218.344 146.467" stroke="white" stroke-width="8.04349"/>
<path d="M249.675 146.467L254.896 146.467" stroke="white" stroke-width="8.04349"/>
<path d="M231.399 146.467L236.621 146.467" stroke="white" stroke-width="8.04349"/>
<path d="M137.413 146.467L142.634 146.467" stroke="white" stroke-width="8.04349"/>
<path d="M155.688 146.467L160.909 146.467" stroke="white" stroke-width="8.04349"/>
<path d="M210.511 177.795L254.892 177.795" stroke="white" stroke-width="8.04349"/>
<path d="M210.511 196.069L254.892 196.069" stroke="white" stroke-width="8.04349"/>
<path d="M210.511 214.344L254.892 214.344" stroke="white" stroke-width="8.04349"/>
<path d="M137.413 232.619L254.892 232.619" stroke="white" stroke-width="8.04349"/>
<path d="M137.413 250.893L254.892 250.893" stroke="white" stroke-width="8.04349"/>
<rect x="141.435" y="179.206" width="49.3909" height="33.727" fill="#285BA7" stroke="white" stroke-width="8.04349"/>
<defs>
<linearGradient id="paint0_linear_1444_22401" x1="185.5" y1="0.651138" x2="185.274" y2="187.108" gradientUnits="userSpaceOnUse">
<stop stop-color="white"/>
<stop offset="1" stop-color="white" stop-opacity="0"/>
</linearGradient>
</defs>
</svg>
