<svg width="51" height="51" viewBox="0 0 51 51" fill="none" xmlns="http://www.w3.org/2000/svg">
<circle cx="25.4999" cy="25.4998" r="24.6489" transform="rotate(-90 25.4999 25.4998)" fill="" stroke="url(#paint0_linear_1435_22396)" stroke-width="0.87"/>
<path fill-rule="evenodd" clip-rule="evenodd" d="M38.7333 14.6141C40.9201 17.5011 42.2174 21.099 42.2174 25C42.2174 27.0803 41.8484 29.0745 41.1724 30.9206C39.4208 30.5795 37.4673 29.8919 35.4947 28.8258C37.9312 25.1671 39.3166 20.4946 38.7333 14.6141ZM37.8103 13.496C38.7017 19.78 37.336 24.6739 34.8108 28.4413C30.3019 25.8064 25.8039 21.1789 23.495 14.1787C26.0689 12.2191 29.3855 10.7608 33.6325 10.0998C35.1983 11.0089 36.6076 12.1577 37.8103 13.496ZM38.5509 13.1517C38.5456 13.1162 38.5402 13.0806 38.5348 13.045L38.4662 13.0555C37.1548 11.5783 35.6042 10.3183 33.8749 9.33636L33.8659 9.27353C33.8387 9.27744 33.8115 9.28138 33.7844 9.28535C31.1862 7.8298 28.19 6.99999 25 6.99999C15.0589 6.99999 7 15.0589 7 25C7 31.1995 10.1342 36.6671 14.9045 39.9045C14.9062 39.9148 14.908 39.9251 14.9097 39.9354L14.9419 39.9299C15.0725 40.018 15.2042 40.1044 15.3372 40.1892L15.346 40.2576C15.3733 40.2541 15.4007 40.2505 15.4282 40.2468C18.2008 41.9911 21.4826 43 25 43C32.5345 43 38.9877 38.3708 41.6707 31.8014C41.677 31.8024 41.6834 31.8033 41.6897 31.8043L41.7017 31.725C42.5391 29.6474 43 27.3775 43 25C43 20.4627 41.3212 16.3175 38.5509 13.1517ZM40.6147 32.2638C37.0278 33.4284 33.6291 34.0021 30.4593 34.1414C26.0526 37.5263 20.7389 39.3344 16.6453 40.0581C19.1195 41.4338 21.9683 42.2174 25 42.2174C31.9135 42.2174 37.8752 38.1426 40.6147 32.2638ZM14.7413 38.8287C14.4402 36.5923 14.3058 33.8855 14.5346 31.0245C11.7235 29.7188 9.47181 28.1927 7.87816 26.8247C8.39555 31.7363 10.978 36.0324 14.7413 38.8287ZM7.79667 25.7023C7.78733 25.4694 7.78261 25.2352 7.78261 25C7.78261 16.7329 13.6092 9.82668 21.3798 8.16384C21.6249 10.221 22.0366 12.131 22.5836 13.8991C19.7055 16.2252 17.7597 19.1757 16.4937 22.3263C15.4609 24.8964 14.881 27.5966 14.6107 30.1964C11.6192 28.7755 9.30453 27.1096 7.79667 25.7023ZM22.1506 8.01729C22.3763 9.93806 22.7506 11.7264 23.2463 13.3869C25.6741 11.5936 28.717 10.2246 32.5063 9.50063C30.2376 8.3999 27.6909 7.7826 25 7.7826C24.0293 7.7826 23.0774 7.86292 22.1506 8.01729ZM17.2199 22.6181C18.4038 19.6719 20.1993 16.9075 22.8433 14.6986C25.231 21.7086 29.7734 26.3871 34.361 29.084C33.3402 30.4823 32.1575 31.7164 30.8752 32.8012C30.6461 32.9951 30.4138 33.1842 30.1786 33.3686C24.3395 33.5836 19.3114 32.2949 15.3627 30.5418C15.614 27.9251 16.1823 25.2001 17.2199 22.6181ZM31.5029 33.2947C32.8069 32.1766 34.0084 30.9067 35.0461 29.472C36.8568 30.459 38.6581 31.14 40.3204 31.5364C37.2276 32.5359 34.2794 33.087 31.5029 33.2947ZM15.2935 31.3655C15.0781 34.3639 15.2655 37.1819 15.6199 39.4303C19.4559 38.8777 24.6597 37.2829 29.091 34.1751C23.7165 34.2032 19.0467 32.9957 15.2935 31.3655Z" fill="white"/>
<circle cx="37.6782" cy="22.3378" r="2.19131" transform="rotate(47.3213 37.6782 22.3378)" fill="white"/>
<circle cx="17.643" cy="21.3986" r="2.19131" transform="rotate(-17.7598 17.643 21.3986)" fill="white"/>
<circle cx="22.9659" cy="37.6769" r="2.19131" transform="rotate(-132.813 22.9659 37.6769)" fill="white"/>
<defs>
<linearGradient id="paint0_linear_1435_22396" x1="25.4999" y1="0.415895" x2="25.4692" y2="25.7179" gradientUnits="userSpaceOnUse">
<stop stop-color="white"/>
<stop offset="1" stop-color="white" stop-opacity="0"/>
</linearGradient>
</defs>
</svg>
