<svg width="371" height="371" viewBox="0 0 371 371" fill="none" xmlns="http://www.w3.org/2000/svg">
    <circle cx="185.5" cy="185.5" r="181.634" transform="rotate(-90 185.5 185.5)" stroke="url(#paint0_linear_1903_34726)" stroke-width="6.42953"/>
    <path fill-rule="evenodd" clip-rule="evenodd" d="M296.719 98.5664C314.684 122.285 325.343 151.844 325.343 183.893C325.343 200.984 322.311 217.367 316.757 232.534C302.367 229.731 286.318 224.082 270.112 215.324C290.129 185.266 301.511 146.879 296.719 98.5664ZM289.135 89.3812C296.459 141.008 285.239 181.214 264.493 212.165C227.45 190.518 190.496 152.501 171.527 94.991C192.673 78.8915 219.922 66.9103 254.813 61.4797C267.677 68.9483 279.255 78.3864 289.135 89.3812ZM295.22 86.5526C295.177 86.2609 295.132 85.9688 295.087 85.6763L294.524 85.7627C283.751 73.6261 271.011 63.2747 256.805 55.2079L256.73 54.6917C256.507 54.7238 256.284 54.7562 256.061 54.7888C234.715 42.8308 210.1 36.0134 183.893 36.0134C102.221 36.0134 36.0137 102.221 36.0137 183.893C36.0137 234.825 61.7625 279.744 100.953 306.341C100.967 306.425 100.982 306.51 100.996 306.594L101.261 306.549C102.333 307.273 103.415 307.983 104.507 308.679L104.58 309.242C104.805 309.213 105.03 309.183 105.256 309.153C128.034 323.483 154.995 331.772 183.893 331.772C245.792 331.772 298.809 293.74 320.851 239.77C320.903 239.778 320.954 239.785 321.006 239.793L321.103 239.148C327.984 222.077 331.772 203.427 331.772 183.893C331.772 146.616 317.98 112.561 295.22 86.5526ZM312.175 243.569C282.707 253.136 254.785 257.85 228.743 258.994C192.54 286.802 148.886 301.657 115.255 307.602C135.582 318.905 158.986 325.342 183.893 325.342C240.69 325.342 289.669 291.866 312.175 243.569ZM99.6121 297.503C97.1386 279.129 96.0347 256.891 97.914 233.386C74.8193 222.66 56.3206 210.122 43.2281 198.883C47.4786 239.235 68.6949 274.529 99.6121 297.503ZM42.5587 189.662C42.482 187.748 42.4432 185.825 42.4432 183.893C42.4432 115.975 90.3109 59.2369 154.15 45.5754C156.163 62.4763 159.546 78.1682 164.039 92.6938C140.395 111.804 124.41 136.043 114.009 161.926C105.524 183.041 100.76 205.225 98.5392 226.583C73.9627 214.91 54.9463 201.223 42.5587 189.662ZM160.482 44.3713C162.337 60.1516 165.411 74.8436 169.484 88.486C189.43 73.7527 214.429 62.5056 245.561 56.5574C226.922 47.5144 206 42.4429 183.893 42.4429C175.918 42.4429 168.097 43.1029 160.482 44.3713ZM119.975 164.324C129.701 140.12 144.452 117.409 166.173 99.262C185.79 156.853 223.108 195.289 260.798 217.445C252.412 228.933 242.695 239.071 232.161 247.984C230.278 249.576 228.369 251.13 226.437 252.645C178.466 254.411 137.158 243.823 104.717 229.421C106.782 207.923 111.451 185.536 119.975 164.324ZM237.317 252.038C248.03 242.852 257.901 232.419 266.426 220.633C281.302 228.742 296.101 234.337 309.758 237.593C284.349 245.804 260.127 250.331 237.317 252.038ZM104.149 236.188C102.379 260.822 103.919 283.973 106.831 302.445C138.346 297.905 181.097 284.803 217.502 259.271C173.348 259.502 134.984 249.581 104.149 236.188Z" fill="white"/>
    <circle cx="288.051" cy="162.021" r="18.0027" transform="rotate(47.3213 288.051 162.021)" fill="white"/>
    <circle cx="123.454" cy="154.305" r="18.0027" transform="rotate(-17.7598 123.454 154.305)" fill="white"/>
    <circle cx="167.177" cy="288.04" r="18.0027" transform="rotate(-132.813 167.177 288.04)" fill="white"/>
    <defs>
        <linearGradient id="paint0_linear_1903_34726" x1="185.5" y1="0.651138" x2="185.274" y2="187.108" gradientUnits="userSpaceOnUse">
            <stop stop-color="white"/>
            <stop offset="1" stop-color="white" stop-opacity="0"/>
        </linearGradient>
    </defs>

</svg>
