<svg width="51" height="51" viewBox="0 0 51 51" fill="none" xmlns="http://www.w3.org/2000/svg">
<circle cx="25.4999" cy="25.5" r="24.6477" transform="rotate(-90 25.4999 25.5)" stroke="url(#paint0_linear_1435_22395)" stroke-width="0.872483"/>
<path d="M21.7814 16.1286C23.0764 14.1886 24.8113 12.8101 27.1424 12.3842C30.0871 11.8453 32.7832 12.4207 34.9961 14.5554C36.2929 15.807 36.9935 17.4097 37.3342 19.148C37.508 20.0381 37.5515 20.9524 37.6471 21.8564C37.655 22.0121 37.655 22.1682 37.6471 22.324C38.7411 22.596 39.7661 23.094 40.6561 23.7859C41.3448 24.3125 41.9181 24.9749 42.3406 25.7319C42.7631 26.489 43.0258 27.3247 43.1124 28.1873C43.2202 28.9809 43.1698 29.788 42.9639 30.562C42.758 31.3359 42.4008 32.0614 41.9129 32.6965C40.9047 34.0507 39.4793 34.7443 37.8678 35.0728C37.3772 35.1692 36.8781 35.2164 36.3781 35.2136C28.9172 35.2223 21.4563 35.2606 13.9972 35.1928C11.866 35.1737 9.97121 34.3653 8.72657 32.4897C7.95649 31.3285 7.75311 30.0178 7.85741 28.648C7.90213 27.7883 8.11726 26.946 8.49028 26.1701C8.8633 25.3942 9.38678 24.7002 10.0303 24.1283C10.9643 23.2988 12.0783 22.6978 13.2845 22.3726C13.5157 22.3066 13.5834 22.2336 13.5765 21.9902C13.5243 20.2658 14.1258 18.8421 15.586 17.8547C17.1905 16.77 19.1304 16.8517 20.6706 18.0442C20.6732 18.0472 20.6764 18.0495 20.68 18.0512C20.6836 18.0528 20.6875 18.0536 20.6915 18.0536C20.6954 18.0536 20.6993 18.0528 20.7029 18.0512C20.7065 18.0495 20.7097 18.0472 20.7123 18.0442C20.8253 17.8599 21.4042 16.6935 21.7814 16.1286Z" fill="white" stroke="#165DA9" stroke-width="0.872483" stroke-miterlimit="10"/>
<circle cx="25.753" cy="26.3517" r="5.8685" stroke="#285BA7" stroke-width="0.872483"/>
<path d="M19.3163 32.0621L20.1928 28.1893L23.9861 29.3632" stroke="#285BA7" stroke-width="0.872483"/>
<path d="M33.328 21.9466L31.6659 25.9089L27.8443 23.9448" stroke="#285BA7" stroke-width="0.872483"/>
<defs>
<linearGradient id="paint0_linear_1435_22395" x1="25.4999" y1="0.416075" x2="25.4692" y2="25.7181" gradientUnits="userSpaceOnUse">
<stop stop-color="white"/>
<stop offset="1" stop-color="white" stop-opacity="0"/>
</linearGradient>
</defs>
</svg>
