<svg width="51" height="51" viewBox="0 0 51 51" fill="none" xmlns="http://www.w3.org/2000/svg">
<circle cx="25.4999" cy="25.5001" r="24.6477" transform="rotate(-90 25.4999 25.5001)" stroke="url(#paint0_linear_1435_22391)" stroke-width="0.872483"/>
<path d="M39.6783 16.2472H15.9286V20.2606H11.7588V35.9321C11.7588 39.6015 14.5386 40.0092 15.9286 39.7544H39.6783V16.2472Z" fill="white"/>
<path d="M15.9286 35.9321V20.2606M15.9286 20.2606V16.2472H39.6783V39.7544H15.9286C14.5386 40.0092 11.7588 39.6015 11.7588 35.9321C11.7588 32.2627 11.7588 23.9555 11.7588 20.2606H15.9286Z" stroke="#285BA7" stroke-width="0.872483"/>
<path d="M16.1099 12.9839L39.6782 12.9839" stroke="#FBFCFF" stroke-width="0.872483"/>
<path d="M20.0986 10.4458L36.0526 10.4458" stroke="white" stroke-width="0.872483"/>
<path d="M24.812 20.2357L30.976 20.2357" stroke="#285BA7" stroke-width="0.872483"/>
<path d="M35.3271 20.2357L36.0523 20.2357" stroke="#285BA7" stroke-width="0.872483"/>
<path d="M32.7891 20.2357L33.5142 20.2357" stroke="#285BA7" stroke-width="0.872483"/>
<path d="M19.7358 20.2357L20.461 20.2357" stroke="#285BA7" stroke-width="0.872483"/>
<path d="M22.2739 20.2357L22.9991 20.2357" stroke="#285BA7" stroke-width="0.872483"/>
<path d="M29.8882 24.5869L36.0522 24.5869" stroke="#285BA7" stroke-width="0.872483"/>
<path d="M29.8882 27.125L36.0522 27.125" stroke="#285BA7" stroke-width="0.872483"/>
<path d="M29.8882 29.6631L36.0522 29.6631" stroke="#285BA7" stroke-width="0.872483"/>
<path d="M19.7358 32.2013L36.0524 32.2013" stroke="#285BA7" stroke-width="0.872483"/>
<path d="M19.7358 34.7394L36.0524 34.7394" stroke="#285BA7" stroke-width="0.872483"/>
<rect x="20.1721" y="24.6605" width="7.10451" height="4.92896" fill="white" stroke="#285BA7" stroke-width="0.872483"/>
<defs>
<linearGradient id="paint0_linear_1435_22391" x1="25.4999" y1="0.416197" x2="25.718" y2="25.282" gradientUnits="userSpaceOnUse">
<stop stop-color="white"/>
<stop offset="1" stop-color="white" stop-opacity="0"/>
</linearGradient>
</defs>
</svg>
