<svg width="50" height="52" viewBox="0 0 50 52" fill="none" xmlns="http://www.w3.org/2000/svg">
  <path d="M48.4817 11.3418H8.51841V18.0951H1.50195V44.4654C1.50195 50.6398 6.17959 51.3259 8.51841 50.8971H48.4817V11.3418Z" fill="#ED6C2D"/>
  <path d="M8.51841 44.4654V18.0951M8.51841 18.0951V11.3418H48.4817V50.8971H8.51841C6.17959 51.3259 1.50195 50.6398 1.50195 44.4654C1.50195 38.2909 1.50195 24.3125 1.50195 18.0951H8.51841Z" stroke="white" stroke-width="1.87982"/>
  <path d="M8.82324 5.85065L48.4815 5.85065" stroke="#FBFCFF" stroke-width="1.87982"/>
  <path d="M15.5352 1.57977L42.3807 1.57978" stroke="white" stroke-width="1.87982"/>
  <path d="M23.4663 18.0532L33.8385 18.0532" stroke="white" stroke-width="1.87982"/>
  <path d="M41.1606 18.0532L42.3809 18.0532" stroke="white" stroke-width="1.87982"/>
  <path d="M36.8896 18.0532L38.1099 18.0532" stroke="white" stroke-width="1.87982"/>
  <path d="M14.9243 18.0532L16.1446 18.0532" stroke="white" stroke-width="1.87982"/>
  <path d="M19.1953 18.0532L20.4156 18.0532" stroke="white" stroke-width="1.87982"/>
  <path d="M32.0078 25.3749L42.38 25.3749" stroke="white" stroke-width="1.87982"/>
  <path d="M32.0078 29.6458L42.38 29.6458" stroke="white" stroke-width="1.87982"/>
  <path d="M32.0078 33.9166L42.38 33.9166" stroke="white" stroke-width="1.87982"/>
  <path d="M14.9243 38.1876L42.38 38.1876" stroke="white" stroke-width="1.87982"/>
  <path d="M14.9243 42.4584L42.38 42.4584" stroke="white" stroke-width="1.87982"/>
  <rect x="15.8642" y="25.7046" width="11.543" height="7.88222" fill="#ED6C2D" stroke="white" stroke-width="1.87982"/>
</svg>
