<svg width="371" height="371" viewBox="0 0 371 371" fill="none" xmlns="http://www.w3.org/2000/svg">
<circle cx="185.5" cy="185.5" r="181.634" transform="rotate(-90 185.5 185.5)" stroke="url(#paint0_linear_1444_22403)" stroke-width="6.42953"/>
<path d="M227.031 124.007L274.361 105.515V292.128H227.031V124.007Z" fill="white"/>
<path d="M157.246 150.137L204.576 132.477V292.127H157.246V150.137Z" fill="white"/>
<path d="M87.4404 177.184L134.77 159.298V292.127H87.4404V177.184Z" fill="white"/>
<path d="M87.8921 135.159C86.1548 135.843 85.3011 137.806 85.9853 139.543C86.6695 141.281 88.6324 142.134 90.3697 141.45L87.8921 135.159ZM268.21 70.3483C268.955 68.6361 268.171 66.6444 266.458 65.8998L238.556 53.7651C236.844 53.0205 234.853 53.8049 234.108 55.5171C233.363 57.2293 234.148 59.2209 235.86 59.9656L260.662 70.7519L249.875 95.5537C249.131 97.2659 249.915 99.2575 251.627 100.002C253.339 100.747 255.331 99.9625 256.076 98.2503L268.21 70.3483ZM90.3697 141.45L266.349 72.1456L263.871 65.8544L87.8921 135.159L90.3697 141.45Z" fill="white"/>
<defs>
<linearGradient id="paint0_linear_1444_22403" x1="185.5" y1="0.651138" x2="185.274" y2="187.108" gradientUnits="userSpaceOnUse">
<stop stop-color="white"/>
<stop offset="1" stop-color="white" stop-opacity="0"/>
</linearGradient>
</defs>
</svg>
